<svg xmlns="http://www.w3.org/2000/svg" xmlns:xlink="http://www.w3.org/1999/xlink" width="122" height="122" viewBox="0 0 122 122"><defs><linearGradient id="a" x1="0.5" x2="0.5" y2="1" gradientUnits="objectBoundingBox"><stop offset="0" stop-color="#8906ce"/><stop offset="1" stop-color="#335ba9"/></linearGradient></defs><g transform="translate(-1551 -3912)"><circle cx="61" cy="61" r="61" transform="translate(1551 3912)" fill="url(#a)"/><path d="M-21.62,0h-9.807V-26.851l.1-4.412.159-4.824q-2.444,2.444-3.4,3.206L-39.9-28.6l-4.729-5.9,14.949-11.9h8.062ZM21.272-23.2q0,12.156-3.983,18T5.022.635q-8.03,0-12.108-6.03T-11.165-23.2q0-12.283,3.967-18.107T5.022-47.131q8.03,0,12.14,6.094T21.272-23.2Zm-22.693,0q0,8.538,1.476,12.235t4.967,3.7q3.428,0,4.951-3.745T11.5-23.2q0-8.538-1.539-12.267T5.022-39.2q-3.459,0-4.951,3.729T-1.421-23.2ZM26.058-15a8.733,8.733,0,0,0,.33,2.776q.33.916,1.062.916,1.406,0,1.406-3.691,0-3.662-1.406-3.662-.732,0-1.062.9A8.589,8.589,0,0,0,26.058-15Zm6.489-.029a8.216,8.216,0,0,1-1.3,5.061A4.531,4.531,0,0,1,27.42-8.276a4.415,4.415,0,0,1-3.735-1.736,8.18,8.18,0,0,1-1.318-5.017q0-6.694,5.054-6.694a4.5,4.5,0,0,1,3.8,1.736A8.035,8.035,0,0,1,32.547-15.029Zm10.078-6.387L30.746,0H27.23L39.11-21.416ZM41.058-6.445a8.733,8.733,0,0,0,.33,2.776q.33.916,1.062.916,1.406,0,1.406-3.691,0-3.662-1.406-3.662-.732,0-1.062.9A8.589,8.589,0,0,0,41.058-6.445Zm6.489-.029a8.187,8.187,0,0,1-1.3,5.046A4.531,4.531,0,0,1,42.42.264a4.415,4.415,0,0,1-3.735-1.736,8.152,8.152,0,0,1-1.318-5q0-6.694,5.054-6.694a4.5,4.5,0,0,1,3.8,1.736A8.035,8.035,0,0,1,47.547-6.475Z" transform="translate(1612 3998)" fill="#fff"/></g></svg>