<svg xmlns="http://www.w3.org/2000/svg" xmlns:xlink="http://www.w3.org/1999/xlink" width="122" height="122" viewBox="0 0 122 122"><defs><linearGradient id="a" x1="0.5" x2="0.5" y2="1" gradientUnits="objectBoundingBox"><stop offset="0" stop-color="#8906ce"/><stop offset="1" stop-color="#335ba9"/></linearGradient></defs><g transform="translate(-309 -3912)"><circle cx="61" cy="61" r="61" transform="translate(309 3912)" fill="url(#a)"/><path d="M-26.657,0h-9.807V-26.851l.1-4.412.159-4.824q-2.444,2.444-3.4,3.206L-44.939-28.6l-4.729-5.9,14.949-11.9h8.062ZM.936-29.644q6.729,0,10.712,3.777T15.631-15.52q0,7.776-4.792,11.965T-2.872.635q-7.744,0-12.5-2.507v-8.474a25.957,25.957,0,0,0,5.84,2.174,25.838,25.838,0,0,0,6.316.841q8.982,0,8.982-7.363,0-7.014-9.3-7.014a23.091,23.091,0,0,0-3.713.333,27.171,27.171,0,0,0-3.3.714l-3.9-2.095L-12.711-46.4H12.457v8.315H-4.11l-.857,9.109,1.111-.222A21.847,21.847,0,0,1,.936-29.644Zm30.545,10.22H19.2v-6.951H31.482V-38.752h6.951v12.378H50.715v6.951H38.432V-7.2H31.482Z" transform="translate(371 3998)" fill="#fff"/></g></svg>