<svg xmlns="http://www.w3.org/2000/svg" xmlns:xlink="http://www.w3.org/1999/xlink" width="122" height="122" viewBox="0 0 122 122"><defs><linearGradient id="a" x1="0.5" x2="0.5" y2="1" gradientUnits="objectBoundingBox"><stop offset="0" stop-color="#8906ce"/><stop offset="1" stop-color="#335ba9"/></linearGradient></defs><g transform="translate(-718 -3912)"><circle cx="61" cy="61" r="61" transform="translate(718 3912)" fill="url(#a)"/><path d="M-15.24-36.023a10.919,10.919,0,0,1-2.634,7.4,13.654,13.654,0,0,1-7.4,4.189v.19q5.618.7,8.506,3.412a9.558,9.558,0,0,1,2.888,7.316A12.4,12.4,0,0,1-18.731-3.094Q-23.587.635-32.6.635A33.678,33.678,0,0,1-45.995-1.873V-10.22A30.271,30.271,0,0,0-40.06-8a24.975,24.975,0,0,0,6.411.857q4.856,0,7.173-1.65t2.317-5.3a4.787,4.787,0,0,0-2.666-4.634q-2.666-1.365-8.506-1.365h-3.523v-7.522h3.586q5.4,0,7.887-1.412a5.1,5.1,0,0,0,2.491-4.84q0-5.269-6.6-5.269a15.108,15.108,0,0,0-4.65.762,22.713,22.713,0,0,0-5.253,2.634l-4.539-6.76a25.218,25.218,0,0,1,15.139-4.57q7.2,0,11.378,2.92A9.365,9.365,0,0,1-15.24-36.023ZM21.272-23.2q0,12.156-3.983,18T5.022.635q-8.03,0-12.108-6.03T-11.165-23.2q0-12.283,3.967-18.107T5.022-47.131q8.03,0,12.14,6.094T21.272-23.2Zm-22.693,0q0,8.538,1.476,12.235t4.967,3.7q3.428,0,4.951-3.745T11.5-23.2q0-8.538-1.539-12.267T5.022-39.2q-3.459,0-4.951,3.729T-1.421-23.2ZM26.058-15a8.733,8.733,0,0,0,.33,2.776q.33.916,1.062.916,1.406,0,1.406-3.691,0-3.662-1.406-3.662-.732,0-1.062.9A8.589,8.589,0,0,0,26.058-15Zm6.489-.029a8.216,8.216,0,0,1-1.3,5.061A4.531,4.531,0,0,1,27.42-8.276a4.415,4.415,0,0,1-3.735-1.736,8.18,8.18,0,0,1-1.318-5.017q0-6.694,5.054-6.694a4.5,4.5,0,0,1,3.8,1.736A8.035,8.035,0,0,1,32.547-15.029Zm10.078-6.387L30.746,0H27.23L39.11-21.416ZM41.058-6.445a8.733,8.733,0,0,0,.33,2.776q.33.916,1.062.916,1.406,0,1.406-3.691,0-3.662-1.406-3.662-.732,0-1.062.9A8.589,8.589,0,0,0,41.058-6.445Zm6.489-.029a8.187,8.187,0,0,1-1.3,5.046A4.531,4.531,0,0,1,42.42.264a4.415,4.415,0,0,1-3.735-1.736,8.152,8.152,0,0,1-1.318-5q0-6.694,5.054-6.694a4.5,4.5,0,0,1,3.8,1.736A8.035,8.035,0,0,1,47.547-6.475Z" transform="translate(779 3998)" fill="#fff"/></g></svg>