<svg xmlns="http://www.w3.org/2000/svg" width="264.678" height="260.501" viewBox="0 0 264.678 260.501"><g transform="translate(-0.714 -0.714)"><path d="M307.612,143.865a3,3,0,0,1-2.982-2.7,116.308,116.308,0,0,0-50.287-84.594,3,3,0,0,1,3.388-4.952A122.294,122.294,0,0,1,310.6,140.567a3,3,0,0,1-2.688,3.282C307.812,143.86,307.712,143.865,307.612,143.865Z" transform="translate(-65.833 -13.908)"/><path d="M5,151.22c-.049,0-.1,0-.148,0A3,3,0,0,1,2,148.074q.164-3.382.516-6.778A122.116,122.116,0,0,1,42.54,62.784q3.85-3.454,7.949-6.549a3,3,0,1,1,3.619,4.786q-3.894,2.944-7.562,6.23A116.127,116.127,0,0,0,8.488,141.913q-.334,3.23-.491,6.452A3,3,0,0,1,5,151.22Z" transform="translate(-1.286 -15.075)"/><path d="M154.078,343.231a124.118,124.118,0,0,1-34.393-4.871,3,3,0,0,1,1.669-5.763,118.118,118.118,0,0,0,32.724,4.635,115.563,115.563,0,0,0,66.166-20.72,3,3,0,0,1,3.42,4.93A121.536,121.536,0,0,1,154.078,343.231Z" transform="translate(-30.988 -82.016)"/><path d="M47.867,147.457a87.757,87.757,0,1,1,78.257,96.324,87.757,87.757,0,0,1-78.257-96.324" transform="translate(-12.186 -17.671)" fill="#c2b1fb"/><path d="M136.712,79.848a39.849,39.849,0,1,1,12.279-59.619" transform="translate(-20.007 -1.286)" fill="#fff"/><path d="M117.658,87.69a42.845,42.845,0,1,1,33.691-69.316,3,3,0,0,1-4.716,3.71,36.836,36.836,0,1,0-11.358,55.13,3,3,0,0,1,2.873,5.267A42.906,42.906,0,0,1,117.658,87.69Z" transform="translate(-20.007 -1.286)"/><path d="M117.658,87.69a42.845,42.845,0,1,1,33.691-69.316,3,3,0,0,1-4.716,3.71,36.836,36.836,0,1,0-11.358,55.13,3,3,0,0,1,2.873,5.267A42.906,42.906,0,0,1,117.658,87.69Z" transform="translate(-20.007 -1.286)"/><path d="M116.32,73.015a6.334,6.334,0,0,1-4.478-1.855L99.969,59.286a6.332,6.332,0,1,1,8.956-8.955l6.71,6.71L135,31.223a6.332,6.332,0,0,1,10.132,7.6L121.386,70.482A6.33,6.33,0,0,1,116.769,73c-.149.01-.3.016-.449.016" transform="translate(-25.228 -7.377)" fill="#fff"/><path d="M116.32,76.015a9.272,9.272,0,0,1-6.6-2.734L97.848,61.408a9.332,9.332,0,0,1,13.2-13.2l4.265,4.265L132.6,29.423a9.387,9.387,0,0,1,7.471-3.732,9.331,9.331,0,0,1,7.462,14.929L123.786,72.282a9.327,9.327,0,0,1-6.8,3.709ZM104.447,51.478a3.331,3.331,0,0,0-2.357,5.686l11.873,11.874a3.356,3.356,0,0,0,2.357.976v3l.24-3.008a3.328,3.328,0,0,0,2.426-1.324l23.746-31.661a3.338,3.338,0,0,0-.667-4.665,3.335,3.335,0,0,0-4.666.669L115.959,61.609,106.8,52.453A3.313,3.313,0,0,0,104.447,51.478Z" transform="translate(-25.228 -7.377)"/><path d="M116.32,76.015a9.272,9.272,0,0,1-6.6-2.734L97.848,61.408a9.332,9.332,0,0,1,13.2-13.2l4.265,4.265L132.6,29.423a9.387,9.387,0,0,1,7.471-3.732,9.331,9.331,0,0,1,7.462,14.929L123.786,72.282a9.327,9.327,0,0,1-6.8,3.709C116.91,76,116.391,76.015,116.32,76.015ZM104.447,51.478a3.331,3.331,0,0,0-2.357,5.686l11.873,11.874a3.356,3.356,0,0,0,2.357.976v3l.24-3.008a3.328,3.328,0,0,0,2.426-1.324l23.746-31.661a3.338,3.338,0,0,0-.667-4.665,3.335,3.335,0,0,0-4.666.669L118.035,58.842a3,3,0,0,1-4.521.321l-6.71-6.71A3.313,3.313,0,0,0,104.447,51.478Z" transform="translate(-25.228 -7.377)"/><path d="M137.416,146.582A10.928,10.928,0,1,0,148.343,135.8a10.856,10.856,0,0,0-10.927,10.782" transform="translate(-35.333 -34.917)" fill="#fff"/><path d="M148.343,160.365a13.783,13.783,0,1,1,13.927-13.783A13.871,13.871,0,0,1,148.343,160.365Zm0-21.565a7.784,7.784,0,1,0,7.927,7.782A7.864,7.864,0,0,0,148.343,138.8Z" transform="translate(-35.333 -34.917)"/><path d="M148.343,132.8a13.783,13.783,0,1,1-13.927,13.782A13.871,13.871,0,0,1,148.343,132.8Zm0,21.565a7.784,7.784,0,1,0-7.927-7.783A7.865,7.865,0,0,0,148.343,154.365Z" transform="translate(-35.333 -34.917)"/><path d="M226.716,88.959H215.759a22.354,22.354,0,0,1-44.7,0H160.1a33.011,33.011,0,0,0,28.063,32.457v9.209h10.491v-9.209a33.011,33.011,0,0,0,28.063-32.457" transform="translate(-41.165 -22.873)" fill="#fff"/><path d="M201.653,133.626H185.162v-9.731A35.761,35.761,0,0,1,157.1,88.959v-3h16.957v3a19.354,19.354,0,0,0,38.7,0v-3h16.957v3a35.761,35.761,0,0,1-28.063,34.935Zm-10.491-6h4.491v-8.777l2.537-.4a29.876,29.876,0,0,0,25.377-26.493h-4.989a25.391,25.391,0,0,1-50.342,0h-4.989a29.876,29.876,0,0,0,25.377,26.493l2.537.4Z" transform="translate(-41.165 -22.873)"/><path d="M160.1,85.959h10.957a3,3,0,0,1,3,3,19.354,19.354,0,0,0,38.7,0,3,3,0,0,1,3-3h10.957a3,3,0,0,1,3,3,35.761,35.761,0,0,1-28.063,34.935v6.731a3,3,0,0,1-3,3H188.162a3,3,0,0,1-3-3v-6.731A35.761,35.761,0,0,1,157.1,88.959,3,3,0,0,1,160.1,85.959Zm8.137,6h-4.989a29.876,29.876,0,0,0,25.377,26.493,3,3,0,0,1,2.537,2.964v6.209h4.491v-6.209a3,3,0,0,1,2.537-2.964,29.876,29.876,0,0,0,25.377-26.493h-4.989a25.391,25.391,0,0,1-50.342,0Z" transform="translate(-41.165 -22.873)"/><path d="M187.7,42.1h-5.878a3.705,3.705,0,1,1,0-7.411H187.7a3.705,3.705,0,0,1,0,7.411" transform="translate(-45.799 -8.92)" fill="#fff"/><path d="M187.7,45.1h-5.878a6.705,6.705,0,1,1,0-13.411H187.7a6.705,6.705,0,0,1,0,13.411Zm-5.878-7.411V39.1H187.7a.714.714,0,0,0,.7-.7Z" transform="translate(-45.799 -8.92)"/><path d="M187.7,45.1h-5.878a6.705,6.705,0,1,1,0-13.411H187.7a6.705,6.705,0,0,1,0,13.411Zm-5.878-7.411V39.1H187.7a.714.714,0,0,0,.7-.7Z" transform="translate(-45.799 -8.92)"/><path d="M223.066,42.1h-5.878a3.705,3.705,0,1,1,0-7.411h5.878a3.705,3.705,0,0,1,0,7.411" transform="translate(-54.891 -8.92)" fill="#fff"/><path d="M223.066,45.1h-5.878a6.705,6.705,0,1,1,0-13.411h5.878a6.705,6.705,0,0,1,0,13.411Zm-5.878-7.411V39.1h5.878a.714.714,0,0,0,.7-.7Z" transform="translate(-54.891 -8.92)"/><path d="M223.066,45.1h-5.878a6.705,6.705,0,1,1,0-13.411h5.878a6.705,6.705,0,0,1,0,13.411Zm-5.878-7.411V39.1h5.878a.714.714,0,0,0,.7-.7Z" transform="translate(-54.891 -8.92)"/><path d="M166.835,79.289a3,3,0,0,1-3-3V45.679a9.049,9.049,0,0,1,9.078-9h2.306a3,3,0,0,1,0,6h-2.306a3.042,3.042,0,0,0-3.078,3v30.61A3,3,0,0,1,166.835,79.289Z" transform="translate(-42.897 -10.203)"/><path d="M239.755,79.289a3,3,0,0,1-3-3V45.679a3.042,3.042,0,0,0-3.078-3h-2.306a3,3,0,0,1,0-6h2.306a9.049,9.049,0,0,1,9.078,9v30.61A3,3,0,0,1,239.755,79.289Z" transform="translate(-59.491 -10.203)"/><path d="M171.741,187.733a22.512,22.512,0,0,1-22.616-22.355v-5.637a3,3,0,0,1,6,0v5.637a16.618,16.618,0,0,0,33.232,0V145.046a3,3,0,0,1,6,0v20.332A22.512,22.512,0,0,1,171.741,187.733Z" transform="translate(-39.115 -37.294)"/><path d="M210.131,222.6a53.145,53.145,0,1,0,53.145-53.145A53.145,53.145,0,0,0,210.131,222.6" transform="translate(-54.029 -43.57)" fill="#fff"/><path d="M263.276,278.744A56.145,56.145,0,1,1,319.422,222.6,56.209,56.209,0,0,1,263.276,278.744Zm0-106.29A50.145,50.145,0,1,0,313.422,222.6,50.2,50.2,0,0,0,263.276,172.454Z" transform="translate(-54.029 -43.57)"/><path d="M263.276,166.454A56.145,56.145,0,1,1,207.131,222.6,56.209,56.209,0,0,1,263.276,166.454Zm0,106.29A50.145,50.145,0,1,0,213.131,222.6,50.2,50.2,0,0,0,263.276,272.744Z" transform="translate(-54.029 -43.57)"/><path d="M142.733,281.514l-.149-6.72a4.077,4.077,0,0,1,3.527-4.04l16.1-2.192a3.7,3.7,0,0,0,2.264-1.111L175.8,257.287a3.605,3.605,0,0,0,.284-5.238s-2.356-2.87-4.763-.712l-5.722,5.133-1.273,1.142a4.066,4.066,0,0,1-2.52,1.037l-28.78,1.436a3.7,3.7,0,0,0-.883.14,7.516,7.516,0,0,0-4.448,4,4.171,4.171,0,0,0-.47,1.912v15.6" transform="translate(-32.713 -64.418)" fill="#fff"/><path d="M127.227,284.744a3,3,0,0,1-3-3v-15.6a7.188,7.188,0,0,1,.806-3.293,10.447,10.447,0,0,1,6.267-5.5l.341-.1,1.238-.158,28.779-1.436,1.94-1.416,5.722-5.133a5.752,5.752,0,0,1,4.344-1.555,7.292,7.292,0,0,1,4.741,2.6,7.076,7.076,0,0,1,1.706,4.807,6.487,6.487,0,0,1-2.305,4.567l-11.332,10.164a6.543,6.543,0,0,1-3.944,1.86l-16.013,2.182a1.081,1.081,0,0,0-.932,1.068l.148,6.654a3,3,0,0,1-6,.133l-.149-6.72a7.119,7.119,0,0,1,6.122-7.079l16.1-2.192,12-10.535c.326-.292.505-.453.029-1.03L167.6,258.7l-1.274,1.142a7.084,7.084,0,0,1-4.377,1.8l-28.776,1.436a4.428,4.428,0,0,0-2.818,2.525l-.133,16.137A3,3,0,0,1,127.227,284.744Z" transform="translate(-32.713 -64.418)"/><path d="M127.227,284.744a3,3,0,0,1-3-3v-15.6a7.188,7.188,0,0,1,.806-3.293,10.447,10.447,0,0,1,6.267-5.5,15.37,15.37,0,0,1,1.579-.258l28.779-1.436,1.94-1.416,5.722-5.133a5.752,5.752,0,0,1,4.344-1.555,7.292,7.292,0,0,1,4.741,2.6,7.076,7.076,0,0,1,1.706,4.807,6.487,6.487,0,0,1-2.305,4.567l-11.332,10.164a6.543,6.543,0,0,1-3.944,1.86l-16.013,2.182a1.081,1.081,0,0,0-.932,1.068l.148,6.654a3,3,0,0,1-6,.133l-.149-6.72a7.119,7.119,0,0,1,6.122-7.079l16.1-2.192,12-10.535c.326-.292.505-.453.029-1.03L167.6,258.7l-1.274,1.142a7.084,7.084,0,0,1-4.377,1.8l-28.776,1.436a4.428,4.428,0,0,0-2.818,2.525l-.133,16.137A3,3,0,0,1,127.227,284.744Z" transform="translate(-32.713 -64.418)"/><path d="M94,280.548h23.355v29.07a5.7,5.7,0,0,1-5.7,5.7H13.311a5.7,5.7,0,0,1-5.7-5.7V293.735c0-16.636,14.057-30.248,31.239-30.248l26.26.527c15.893,0,29.257,11.018,32.351,25.553,0,0,1.963,8.867,1.841,15.674" transform="translate(-1.956 -67.748)" fill="#fff"/><path d="M111.65,318.319H13.311a8.711,8.711,0,0,1-8.7-8.7V293.735c0-18.333,15.359-33.248,34.239-33.248l26.32.527a36.385,36.385,0,0,1,30.521,16.534h24.664v32.07A8.712,8.712,0,0,1,111.65,318.319ZM38.788,266.486c-15.511,0-28.179,12.224-28.179,27.248v15.883a2.7,2.7,0,0,0,2.7,2.7H111.65a2.705,2.705,0,0,0,2.7-2.7v-26.07H98.767a33.967,33.967,0,0,1,1.626,5.395A83.649,83.649,0,0,1,102.3,305.3a3,3,0,0,1-6-.108c.115-6.362-1.752-14.887-1.771-14.972a28.219,28.219,0,0,0-3.048-8.032,2.993,2.993,0,0,1-.169-.295,30.343,30.343,0,0,0-26.2-14.875Z" transform="translate(-1.956 -67.748)"/><path d="M111.65,318.319H13.311a8.711,8.711,0,0,1-8.7-8.7V293.735c0-18.333,15.359-33.248,34.239-33.248l26.32.527a36.385,36.385,0,0,1,30.521,16.534h21.664a3,3,0,0,1,3,3v29.07A8.712,8.712,0,0,1,111.65,318.319ZM38.788,266.486c-15.511,0-28.179,12.224-28.179,27.248v15.883a2.7,2.7,0,0,0,2.7,2.7H111.65a2.705,2.705,0,0,0,2.7-2.7v-26.07H98.767a33.967,33.967,0,0,1,1.626,5.395A83.649,83.649,0,0,1,102.3,305.3a3,3,0,0,1-6-.108c.115-6.362-1.752-14.887-1.771-14.972a28.219,28.219,0,0,0-3.048-8.032,2.993,2.993,0,0,1-.169-.295,30.343,30.343,0,0,0-26.2-14.875Z" transform="translate(-1.956 -67.748)"/><path d="M74.884,254.785v6.439c0,4.693-5.656,8.532-12.571,8.532s-12.571-3.839-12.571-8.532v-6.439" transform="translate(-12.79 -65.511)" fill="#fff"/><path d="M62.313,272.755c-8.731,0-15.571-5.065-15.571-11.532v-6.439a3,3,0,1,1,6,0v6.439c0,2.617,3.931,5.532,9.571,5.532s9.571-2.915,9.571-5.532v-6.439a3,3,0,1,1,6,0v6.439C77.884,267.69,71.044,272.755,62.313,272.755Z" transform="translate(-12.79 -65.511)"/><path d="M62.313,272.755c-8.731,0-15.571-5.065-15.571-11.532v-6.439a3,3,0,1,1,6,0v6.439c0,2.617,3.931,5.532,9.571,5.532s9.571-2.915,9.571-5.532v-6.439a3,3,0,1,1,6,0v6.439C77.884,267.69,71.044,272.755,62.313,272.755Z" transform="translate(-12.79 -65.511)"/><path d="M52.815,159.911h0a30.308,30.308,0,0,0-30.269,27.148c-.045,0-.089-.007-.134-.007a9.446,9.446,0,1,0,0,18.89c.045,0,.089-.007.134-.007a30.448,30.448,0,0,0,60.537,0c.045,0,.089.007.134.007a9.446,9.446,0,1,0,0-18.89c-.045,0-.089.006-.134.007l-1.108-.16v-4.156" transform="translate(-3.293 -41.117)" fill="#fff"/><path d="M52.815,236.084a33.539,33.539,0,0,1-32.929-27.415,12.4,12.4,0,0,1,0-24.366,33.541,33.541,0,0,1,32.925-27.392,3,3,0,0,1,0,6c-14.015,0-26,10.73-27.282,24.428l-.259,2.765-2.776-.045a6.445,6.445,0,1,0-.086,12.884h2.732l.389,2.713c1.284,13.7,13.267,24.428,27.282,24.428s26-10.73,27.282-24.428l.255-2.72h2.732a6.446,6.446,0,1,0,.134-12.883l-1.671-.184-2.572-.371v-6.754a3,3,0,0,1,6,0v1.429a12.42,12.42,0,0,1,.765,24.52A33.539,33.539,0,0,1,52.815,236.084Z" transform="translate(-3.293 -41.117)"/><path d="M52.815,236.084a33.539,33.539,0,0,1-32.929-27.415,12.4,12.4,0,0,1,0-24.366,33.541,33.541,0,0,1,32.925-27.392,3,3,0,0,1,0,6c-14.015,0-26,10.73-27.282,24.428a3,3,0,0,1-3.035,2.72,6.445,6.445,0,1,0-.086,12.884,3.126,3.126,0,0,1,3.121,2.713c1.284,13.7,13.267,24.428,27.282,24.428s26-10.73,27.282-24.428a3,3,0,0,1,3-2.72,6.446,6.446,0,1,0,.121-12.883l-1.671-.184a3,3,0,0,1-2.572-2.969v-4.156a3,3,0,0,1,6,0v1.429a12.42,12.42,0,0,1,.765,24.52A33.539,33.539,0,0,1,52.815,236.084Z" transform="translate(-3.293 -41.117)"/><path d="M84.252,180.852h-57.2a1.333,1.333,0,0,1-1.33-1.33V152.455a6.532,6.532,0,0,1,6.513-6.514H79.068a6.533,6.533,0,0,1,6.514,6.514v27.068a1.334,1.334,0,0,1-1.33,1.33" transform="translate(-6.613 -37.525)" fill="#fff"/><path d="M84.252,183.852h-57.2a4.335,4.335,0,0,1-4.33-4.33V152.455a9.524,9.524,0,0,1,9.513-9.514H79.068a9.524,9.524,0,0,1,9.514,9.514v27.068A4.335,4.335,0,0,1,84.252,183.852Zm-55.533-6H82.582v-25.4a3.518,3.518,0,0,0-3.514-3.514H32.232a3.517,3.517,0,0,0-3.513,3.514Z" transform="translate(-6.613 -37.525)"/><path d="M97.9,285.7A3,3,0,0,1,95,281.9c.022-.078,2.12-7.886-1.063-14.6a3,3,0,1,1,5.422-2.57c4.165,8.787,1.532,18.388,1.418,18.792A3,3,0,0,1,97.9,285.7Z" transform="translate(-24.851 -68.398)"/><path d="M99.984,294.172a5.913,5.913,0,1,1-5.827-6,5.914,5.914,0,0,1,5.827,6" transform="translate(-22.667 -74.095)" fill="#fff"/><path d="M94.071,303h-.127a8.913,8.913,0,1,1,.127,0Z" transform="translate(-22.667 -74.095)"/><path d="M94.071,303h-.127a8.913,8.913,0,1,1,.127,0Z" transform="translate(-22.667 -74.095)"/><path d="M37.774,282.439a3,3,0,0,1-2.979-2.678,34.527,34.527,0,0,1,2.163-15.518,3,3,0,1,1,5.516,2.361,28.728,28.728,0,0,0-1.713,12.512,3,3,0,0,1-2.661,3.3A3.035,3.035,0,0,1,37.774,282.439Z" transform="translate(-9.681 -68.246)"/><path d="M24.15,313.042a3,3,0,0,1-2.984-2.691A45.177,45.177,0,0,1,23.22,293.3c2.389-7.375,6.1-11.527,10.744-12.007,10.118-1.048,17.515,16.5,18.48,25.813A3,3,0,0,1,49.77,310.4l-4.537.47a3,3,0,1,1-.619-5.968l1.367-.142c-1.817-8.131-7.417-17.91-11.4-17.5-1.977.2-4.144,3.227-5.654,7.888a41.766,41.766,0,0,0-1.91,11.575l1.944-.2a3,3,0,1,1,.619,5.968l-5.121.531A3,3,0,0,1,24.15,313.042Z" transform="translate(-6.175 -73.088)"/><g transform="translate(168.977 140.72)"><path d="M24.553,77.254,8.582,78.587,3.819,7.5l54.99-3.685.212,6.093Z" transform="translate(-2.689 -2.689)" fill="#fff"/><path d="M5.893,77.027a1.129,1.129,0,0,1-1.127-1.054L0,4.889a1.129,1.129,0,0,1,1.051-1.2L56.043,0a1.13,1.13,0,0,1,1.2,1.088l.212,6.092a1.129,1.129,0,0,1-2.257.079l-.171-4.927L2.331,5.865,6.943,74.677,21.77,73.439a1.129,1.129,0,0,1,.188,2.251L5.987,77.023c-.032,0-.063,0-.094,0" transform="translate(0 0)" fill="#111"/><path d="M131.15,58.488l-.191.244-10.823,13.8-8.071,10.282L104.117,92.95l-5.881,7.493-9.571,12.2-5.722,7.291L82.9,120l49.474,11.517,15.891-69.448Zm-10.4,51.239h10.08l-10.08,10.08Z" transform="translate(-58.381 -41.191)" fill="#fff"/><path d="M129.681,129.956a1.137,1.137,0,0,1-.256-.029L79.951,118.409a1.129,1.129,0,0,1-.647-1.778l.048-.064L127.572,55.1a1.128,1.128,0,0,1,1.121-.41L145.8,58.273a1.129,1.129,0,0,1,.869,1.357l-15.892,69.448a1.129,1.129,0,0,1-1.1.877M82.188,116.611l46.644,10.859,15.382-67.222-15.3-3.2Zm35.869,1.637a1.13,1.13,0,0,1-1.129-1.129v-10.08a1.129,1.129,0,0,1,1.129-1.129h10.08a1.129,1.129,0,0,1,.8,1.928l-10.08,10.08a1.128,1.128,0,0,1-.8.331m1.129-10.08v6.225l6.225-6.225Z" transform="translate(-55.692 -38.502)" fill="#111"/><path d="M57.99,24.6V96.068h45.215l10.213-10.207V24.6Zm45.215,71.341V85.861h10.08Z" transform="translate(-40.84 -17.325)" fill="#fff"/><path d="M100.517,94.508H55.3a1.129,1.129,0,0,1-1.129-1.129V21.91A1.129,1.129,0,0,1,55.3,20.781H110.73a1.129,1.129,0,0,1,1.129,1.129V83.172a1.129,1.129,0,0,1-.331.8L101.315,94.178a1.129,1.129,0,0,1-.8.331M56.431,92.25H99.387V83.172a1.129,1.129,0,0,1,1.129-1.129H109.6v-59H56.431ZM101.646,84.3v6.225l6.225-6.225Z" transform="translate(-38.152 -14.635)" fill="#111"/><path d="M208.194,240.271a1.13,1.13,0,0,1-1.129-1.129v-10.08a1.129,1.129,0,0,1,1.129-1.129h10.08a1.129,1.129,0,0,1,.8,1.928l-10.08,10.08a1.128,1.128,0,0,1-.8.331m1.129-10.08v6.225l6.225-6.225Z" transform="translate(-145.829 -160.525)" fill="#111"/><path d="M87.333,199.648H79.04a5.472,5.472,0,0,1-5.465-5.465v-8.293a5.472,5.472,0,0,1,5.465-5.465h8.293a5.472,5.472,0,0,1,5.465,5.465v8.293a5.471,5.471,0,0,1-5.465,5.465M79.04,182.682a3.211,3.211,0,0,0-3.207,3.207v8.293a3.21,3.21,0,0,0,3.207,3.207h8.293a3.211,3.211,0,0,0,3.207-3.207v-8.293a3.211,3.211,0,0,0-3.207-3.207Z" transform="translate(-51.817 -127.067)" fill="#111"/><path d="M87.333,131.311H79.04a5.472,5.472,0,0,1-5.465-5.465v-8.293a5.472,5.472,0,0,1,5.465-5.465h8.293a5.472,5.472,0,0,1,5.465,5.465v8.293a5.472,5.472,0,0,1-5.465,5.465M79.04,114.345a3.211,3.211,0,0,0-3.207,3.207v8.293a3.21,3.21,0,0,0,3.207,3.207h8.293a3.211,3.211,0,0,0,3.207-3.207v-8.293a3.211,3.211,0,0,0-3.207-3.207Z" transform="translate(-51.817 -78.939)" fill="#111"/><path d="M87.333,62.974H79.04a5.472,5.472,0,0,1-5.465-5.465V49.215A5.472,5.472,0,0,1,79.04,43.75h8.293A5.472,5.472,0,0,1,92.8,49.215v8.293a5.472,5.472,0,0,1-5.465,5.465M79.04,46.008a3.211,3.211,0,0,0-3.207,3.207v8.293a3.211,3.211,0,0,0,3.207,3.207h8.293a3.211,3.211,0,0,0,3.207-3.207V49.215a3.211,3.211,0,0,0-3.207-3.207Z" transform="translate(-51.817 -30.812)" fill="#111"/><path d="M99.8,68.006a1.13,1.13,0,0,1-1.053-.721l-.906-2.333H95.808L94.9,67.286a1.129,1.129,0,0,1-2.1-.819l2.7-6.935a1.493,1.493,0,0,1,.294-.479l.035-.037a1.426,1.426,0,0,1,2.008,0,1.455,1.455,0,0,1,.334.524l2.69,6.923A1.13,1.13,0,0,1,99.8,68.006m-3.117-5.312h.281l-.14-.36Zm-.63-2.344,0,.011Zm1.547-.012-.006.014.006-.014" transform="translate(-65.298 -41.273)" fill="#111"/><path d="M99.029,138.542H95.839a1.129,1.129,0,0,1-1.129-1.129v-7.59a1.129,1.129,0,0,1,1.129-1.129h3.025a3.128,3.128,0,0,1,3.124,3.124,3.04,3.04,0,0,1-.4,1.529,3.129,3.129,0,0,1,.684,2.523,3.271,3.271,0,0,1-3.242,2.673m-2.06-2.259h2.06a1.009,1.009,0,0,0,1.013-.776.86.86,0,0,0-.565-.977l-.016-.006H96.968Zm0-4.018H99.6a.769.769,0,0,0,.135-.448.867.867,0,0,0-.866-.865h-1.9Z" transform="translate(-66.701 -90.635)" fill="#111"/><path d="M95.61,204.658a4.8,4.8,0,0,1-1.895-.38,5.253,5.253,0,0,1-1.571-1.043l-.035-.036a5.233,5.233,0,0,1-1.044-1.572,4.921,4.921,0,0,1,7.665-5.7,1.129,1.129,0,0,1-1.432,1.747,2.567,2.567,0,0,0-1.689-.607,2.665,2.665,0,0,0-2.467,3.674A2.635,2.635,0,0,0,94.6,202.2a2.664,2.664,0,0,0,1.886.05,3.014,3.014,0,0,0,.82-.458,1.129,1.129,0,1,1,1.385,1.784,5.265,5.265,0,0,1-1.438.8,4.83,4.83,0,0,1-1.645.283" transform="translate(-63.867 -137.198)" fill="#111"/><path d="M172.348,104.415H149.01a1.129,1.129,0,1,1,0-2.258h23.337a1.129,1.129,0,0,1,0,2.258" transform="translate(-104.148 -71.946)" fill="#111"/><path d="M179.3,72.015a1.129,1.129,0,0,1-.8-.331l-3.16-3.16a1.129,1.129,0,0,1,1.6-1.6l2.24,2.24,5.539-7.386a1.129,1.129,0,0,1,1.807,1.355L180.2,71.563a1.13,1.13,0,0,1-.823.449l-.08,0" transform="translate(-123.253 -43.192)" fill="#111"/><path d="M172.348,173.465H149.01a1.129,1.129,0,1,1,0-2.259h23.337a1.129,1.129,0,0,1,0,2.259" transform="translate(-104.148 -120.576)" fill="#111"/><path d="M166.514,242.515h-17.5a1.129,1.129,0,0,1,0-2.258h17.5a1.129,1.129,0,0,1,0,2.258" transform="translate(-104.149 -169.205)" fill="#111"/><path d="M179.3,210.117a1.128,1.128,0,0,1-.8-.331l-3.16-3.16a1.129,1.129,0,1,1,1.6-1.6l2.24,2.24,5.54-7.386a1.129,1.129,0,1,1,1.807,1.355l-6.321,8.428a1.129,1.129,0,0,1-.823.449c-.027,0-.054,0-.08,0" transform="translate(-123.253 -140.453)" fill="#111"/><path d="M183.43,143.768a1.126,1.126,0,0,1-.8-.331l-7.293-7.293a1.129,1.129,0,1,1,1.6-1.6l7.293,7.293a1.129,1.129,0,0,1-.8,1.928" transform="translate(-123.253 -94.525)" fill="#111"/><path d="M176.138,143.768a1.129,1.129,0,0,1-.8-1.928l7.293-7.293a1.129,1.129,0,1,1,1.6,1.6l-7.293,7.293a1.126,1.126,0,0,1-.8.331" transform="translate(-123.253 -94.525)" fill="#111"/></g></g></svg>