<svg xmlns="http://www.w3.org/2000/svg" width="1645.5" height="43" viewBox="0 0 1645.5 43"><g transform="translate(1982.5 -2021)"><path d="M1640,2.5H0A2.5,2.5,0,0,1-2.5,0,2.5,2.5,0,0,1,0-2.5H1640a2.5,2.5,0,0,1,2.5,2.5A2.5,2.5,0,0,1,1640,2.5Z" transform="translate(-1980 2042)" fill="#fff"/><path d="M18,21.5a2.493,2.493,0,0,1-1.815-.781l-18-19a2.5,2.5,0,0,1,.1-3.534,2.5,2.5,0,0,1,3.534.1l18,19A2.5,2.5,0,0,1,18,21.5Z" transform="translate(-357.5 2023.5)" fill="#fff"/><path d="M0,21.5a2.491,2.491,0,0,1-1.719-.685,2.5,2.5,0,0,1-.1-3.534l18-19a2.5,2.5,0,0,1,3.534-.1,2.5,2.5,0,0,1,.1,3.534l-18,19A2.493,2.493,0,0,1,0,21.5Z" transform="translate(-357.5 2042.5)" fill="#fff"/></g></svg>