<svg xmlns="http://www.w3.org/2000/svg" width="9.015" height="5.609" viewBox="0 0 9.015 5.609"><g transform="translate(-15.834 -60.3)"><path d="M16.51,60.977a.6.6,0,0,1,.851,0l2.98,2.98,2.98-2.98a.6.6,0,1,1,.851.851l-3.406,3.406a.6.6,0,0,1-.851,0L16.51,61.828A.6.6,0,0,1,16.51,60.977Z" transform="translate(0 0)" fill="#fff"/><path d="M23.747,60.3a1.1,1.1,0,0,1,.779,1.881L21.12,65.587a1.1,1.1,0,0,1-1.558,0l-3.406-3.406a1.1,1.1,0,0,1,1.558-1.558l2.626,2.626,2.626-2.626A1.094,1.094,0,0,1,23.747,60.3Zm-3.406,4.61a.1.1,0,0,0,.072-.03l3.406-3.405a.1.1,0,1,0-.144-.144l-3.334,3.334L17.007,61.33a.1.1,0,0,0-.144,0,.1.1,0,0,0,0,.144l3.406,3.406A.1.1,0,0,0,20.341,64.91Z" transform="translate(0 0)" fill="#fff"/></g></svg>