<svg xmlns="http://www.w3.org/2000/svg" xmlns:xlink="http://www.w3.org/1999/xlink" width="87" height="87" viewBox="0 0 87 87"><defs><linearGradient id="a" x1="0.5" x2="0.5" y2="1" gradientUnits="objectBoundingBox"><stop offset="0" stop-color="#8906ce"/><stop offset="1" stop-color="#335ba9"/></linearGradient></defs><g transform="translate(-2962 -425)"><circle cx="43.5" cy="43.5" r="43.5" transform="translate(2962 425)" fill="url(#a)"/><g transform="translate(2.338 3.561)"><path d="M6.683,19.553a.568.568,0,0,1-.569-.566v0c0-3.358-2.816-6.374-4.027-7.514A6.648,6.648,0,0,1,6.635,0H6.68a6.666,6.666,0,0,1,4.712,1.93,6.618,6.618,0,0,1-.111,9.537c-1.948,1.836-4.029,4.775-4.029,7.52A.568.568,0,0,1,6.683,19.553Zm0-15.472a2.582,2.582,0,1,0,2.6,2.582A2.592,2.592,0,0,0,6.683,4.081Z" transform="translate(2980.662 466.539)" fill="#fff"/><path d="M396.316,12.959a.739.739,0,0,1-.739-.739v0c0-2-1.818-3.875-2.375-4.4A4.528,4.528,0,0,1,396.283,0h.033a4.528,4.528,0,0,1,4.528,4.528,4.486,4.486,0,0,1-1.413,3.286c-1.1,1.039-2.376,2.817-2.376,4.406a.739.739,0,0,1-.739.739m0-11.481h-.022a3.049,3.049,0,0,0-2.075,5.262,10.81,10.81,0,0,1,2.107,2.74,10.688,10.688,0,0,1,2.087-2.741,3.049,3.049,0,0,0-2.1-5.262" transform="translate(2624.495 444.439)" fill="#474747"/><path d="M396.316,13.959a1.741,1.741,0,0,1-1.739-1.739c0-1.273-1.065-2.735-2.063-3.68A5.528,5.528,0,0,1,396.276-1h.04a5.528,5.528,0,0,1,5.528,5.528,5.477,5.477,0,0,1-1.725,4.012,6.194,6.194,0,0,0-2.064,3.681A1.741,1.741,0,0,1,396.316,13.959Zm0-11.481H396.3a2.049,2.049,0,0,0-1.394,3.537,12.676,12.676,0,0,1,1.416,1.593,12.01,12.01,0,0,1,1.4-1.593,2.049,2.049,0,0,0-1.41-3.536Z" transform="translate(2624.495 444.439)" fill="#fff"/><path d="M70.377,120.026a.765.765,0,0,1-.788-.739,2.923,2.923,0,0,1,3.009-2.822h32.788a.741.741,0,1,1,0,1.479H72.6a1.392,1.392,0,0,0-1.432,1.344.765.765,0,0,1-.788.739" transform="translate(2915.933 343.455)" fill="#474747"/><path d="M70.377,121.026a1.766,1.766,0,0,1-1.788-1.739,3.923,3.923,0,0,1,4.009-3.822h32.788a1.74,1.74,0,1,1,0,3.479H72.6a.4.4,0,0,0-.432.344A1.766,1.766,0,0,1,70.377,121.026Z" transform="translate(2915.933 343.455)" fill="#fff"/><path d="M151.594,271.444H124.682a.739.739,0,0,1,0-1.479h26.912a2.1,2.1,0,0,0,2.1-2.1v-5.054a2.1,2.1,0,0,0-2.1-2.1H130.709a.739.739,0,0,1,0-1.479h20.885a3.579,3.579,0,0,1,3.575,3.575v5.054a3.579,3.579,0,0,1-3.575,3.575" transform="translate(2866.937 214.755)" fill="#474747"/><path d="M151.594,272.444H124.682a1.739,1.739,0,1,1,0-3.479h26.912a1.1,1.1,0,0,0,1.1-1.1v-5.054a1.1,1.1,0,0,0-1.1-1.1H130.709a1.739,1.739,0,1,1,0-3.479h20.885a4.581,4.581,0,0,1,4.575,4.575v5.054A4.581,4.581,0,0,1,151.594,272.444Z" transform="translate(2866.937 214.755)" fill="#fff"/></g></g></svg>