<svg xmlns="http://www.w3.org/2000/svg" xmlns:xlink="http://www.w3.org/1999/xlink" width="144" height="144" viewBox="0 0 144 144"><defs><linearGradient id="a" x1="0.5" x2="0.5" y2="1" gradientUnits="objectBoundingBox"><stop offset="0" stop-color="#8906ce"/><stop offset="1" stop-color="#335ba9"/></linearGradient></defs><g transform="translate(-2733 -3061)"><circle cx="72" cy="72" r="72" transform="translate(2733 3061)" fill="url(#a)"/><g transform="translate(-2264 -48)"><path d="M210.239,178.5a8.738,8.738,0,1,1-6.176,2.556A8.677,8.677,0,0,1,210.239,178.5Zm0,14.475a5.738,5.738,0,1,0-4.06-1.682A5.707,5.707,0,0,0,210.239,192.974Z" transform="translate(4887.452 2994.502)" fill="#fff"/><path d="M187.161,198.66a24.913,24.913,0,0,1-16.409-6.158,24.6,24.6,0,0,1-8.213-15.194,4.235,4.235,0,0,1,4.2-4.808H169.8a4.276,4.276,0,0,1,4.194,3.639,13.365,13.365,0,0,0,26.34,0,4.277,4.277,0,0,1,4.194-3.639h3.057a4.236,4.236,0,0,1,4.2,4.807,24.6,24.6,0,0,1-8.213,15.195A24.911,24.911,0,0,1,187.161,198.66ZM166.738,175.5a1.235,1.235,0,0,0-1.226,1.4,21.871,21.871,0,0,0,43.3,0,1.236,1.236,0,0,0-1.228-1.4h-3.057a1.273,1.273,0,0,0-1.234,1.127,16.223,16.223,0,0,1-5.5,9.693,16.407,16.407,0,0,1-21.259,0,16.222,16.222,0,0,1-5.5-9.694A1.273,1.273,0,0,0,169.8,175.5Z" transform="translate(4870 2991.817)" fill="#fff"/><path d="M167,179.87a1.5,1.5,0,0,1-1.5-1.5V164.859a5.312,5.312,0,0,1,5.25-5.359h4.935a1.5,1.5,0,1,1,0,3H170.75a2.309,2.309,0,0,0-2.25,2.359V178.37A1.5,1.5,0,0,1,167,179.87Z" transform="translate(4871.342 2986)" fill="#fff"/><path d="M195.685,179.87a1.5,1.5,0,0,1-1.5-1.5V164.852a2.354,2.354,0,0,0-2.352-2.352H187a1.5,1.5,0,0,1,0-3h4.833a5.358,5.358,0,0,1,5.352,5.352V178.37A1.5,1.5,0,0,1,195.685,179.87Z" transform="translate(4880.292 2986)" fill="#fff"/><path d="M200.265,217.555A21.748,21.748,0,0,1,178.5,195.79a1.5,1.5,0,0,1,3,0,18.765,18.765,0,1,0,37.53,0V190a1.5,1.5,0,0,1,3,0v5.79a21.748,21.748,0,0,1-21.765,21.765Z" transform="translate(4877.16 2998.977)" fill="#fff"/><path d="M182.79,197.29h-2.895a4.4,4.4,0,0,1-4.395-4.395V190a1.5,1.5,0,0,1,1.5-1.5h8.685a1.5,1.5,0,0,1,1.5,1.5v2.895A4.4,4.4,0,0,1,182.79,197.29Zm-4.29-5.79v1.395a1.4,1.4,0,0,0,1.395,1.395h2.895a1.4,1.4,0,0,0,1.395-1.395V191.5Z" transform="translate(4875.817 2998.977)" fill="#fff"/></g></g></svg>