<svg xmlns="http://www.w3.org/2000/svg" width="13.861" height="10.4" viewBox="0 0 13.861 10.4"><g transform="translate(-10.287 -31.924)"><path d="M30.6,31.928a.866.866,0,0,0-.178,0H18.3a.866.866,0,0,0-.23.035L24.328,38.2Z" transform="translate(-7.149)" fill="#fff"/><path d="M24.1,39.389,17.789,45.67a.866.866,0,0,1-1.222,0l-6.251-6.233a.866.866,0,0,0-.03.217v8.663a.866.866,0,0,0,.866.866H23.282a.866.866,0,0,0,.866-.866V39.653A.866.866,0,0,0,24.1,39.389ZM11.747,48.316h-.6V47.7l3.149-3.123.611.611Zm11.526,0h-.606l-3.158-3.132.611-.611L23.269,47.7Z" transform="translate(0 -6.858)" fill="#fff"/></g></svg>