<svg xmlns="http://www.w3.org/2000/svg" xmlns:xlink="http://www.w3.org/1999/xlink" width="144" height="144" viewBox="0 0 144 144"><defs><linearGradient id="a" x1="0.5" x2="0.5" y2="1" gradientUnits="objectBoundingBox"><stop offset="0" stop-color="#8906ce"/><stop offset="1" stop-color="#335ba9"/></linearGradient></defs><g transform="translate(-3444 -3442)"><path d="M72,0A72,72,0,1,1,0,72,72,72,0,0,1,72,0Z" transform="translate(3444 3442)" fill="url(#a)"/><g transform="translate(-1554.832 411)"><path d="M72,1.5H0A1.5,1.5,0,0,1-1.5,0,1.5,1.5,0,0,1,0-1.5H72A1.5,1.5,0,0,1,73.5,0,1.5,1.5,0,0,1,72,1.5Z" transform="translate(5034.832 3138.832)" fill="#fff"/><path d="M217.268,149.712a1.5,1.5,0,0,1-1.5-1.5V88.5H169.5v59.712a1.5,1.5,0,0,1-3,0V87a1.5,1.5,0,0,1,1.5-1.5h49.268a1.5,1.5,0,0,1,1.5,1.5v61.212A1.5,1.5,0,0,1,217.268,149.712Z" transform="translate(4871.479 2988.958)" fill="#fff"/><path d="M177.493,79.5h22.395a3,3,0,0,1,2.993,2.993v7.465a1.5,1.5,0,0,1-1.5,1.5H176a1.5,1.5,0,0,1-1.5-1.5V82.493A3,3,0,0,1,177.493,79.5Zm22.388,3H177.5v5.958h22.381Z" transform="translate(4875.423 2986)" fill="#fff"/><path d="M3,1.5H0A1.5,1.5,0,0,1-1.5,0,1.5,1.5,0,0,1,0-1.5H3A1.5,1.5,0,0,1,4.5,0,1.5,1.5,0,0,1,3,1.5Z" transform="translate(5046.832 3090.832)" fill="#fff"/><path d="M3,1.5H0A1.5,1.5,0,0,1-1.5,0,1.5,1.5,0,0,1,0-1.5H3A1.5,1.5,0,0,1,4.5,0,1.5,1.5,0,0,1,3,1.5Z" transform="translate(5077.832 3090.832)" fill="#fff"/><path d="M3,1.5H0A1.5,1.5,0,0,1-1.5,0,1.5,1.5,0,0,1,0-1.5H3A1.5,1.5,0,0,1,4.5,0,1.5,1.5,0,0,1,3,1.5Z" transform="translate(5046.832 3099.832)" fill="#fff"/><path d="M3,1.5H0A1.5,1.5,0,0,1-1.5,0,1.5,1.5,0,0,1,0-1.5H3A1.5,1.5,0,0,1,4.5,0,1.5,1.5,0,0,1,3,1.5Z" transform="translate(5077.832 3099.832)" fill="#fff"/><path d="M3,1.5H0A1.5,1.5,0,0,1-1.5,0,1.5,1.5,0,0,1,0-1.5H3A1.5,1.5,0,0,1,4.5,0,1.5,1.5,0,0,1,3,1.5Z" transform="translate(5046.832 3108.832)" fill="#fff"/><path d="M3,1.5H0A1.5,1.5,0,0,1-1.5,0,1.5,1.5,0,0,1,0-1.5H3A1.5,1.5,0,0,1,4.5,0,1.5,1.5,0,0,1,3,1.5Z" transform="translate(5057.832 3108.832)" fill="#fff"/><path d="M3,1.5H0A1.5,1.5,0,0,1-1.5,0,1.5,1.5,0,0,1,0-1.5H3A1.5,1.5,0,0,1,4.5,0,1.5,1.5,0,0,1,3,1.5Z" transform="translate(5067.832 3108.832)" fill="#fff"/><path d="M3,1.5H0A1.5,1.5,0,0,1-1.5,0,1.5,1.5,0,0,1,0-1.5H3A1.5,1.5,0,0,1,4.5,0,1.5,1.5,0,0,1,3,1.5Z" transform="translate(5077.832 3108.832)" fill="#fff"/><path d="M3,1.5H0A1.5,1.5,0,0,1-1.5,0,1.5,1.5,0,0,1,0-1.5H3A1.5,1.5,0,0,1,4.5,0,1.5,1.5,0,0,1,3,1.5Z" transform="translate(5046.832 3117.832)" fill="#fff"/><path d="M3,1.5H0A1.5,1.5,0,0,1-1.5,0,1.5,1.5,0,0,1,0-1.5H3A1.5,1.5,0,0,1,4.5,0,1.5,1.5,0,0,1,3,1.5Z" transform="translate(5057.832 3117.832)" fill="#fff"/><path d="M3,1.5H0A1.5,1.5,0,0,1-1.5,0,1.5,1.5,0,0,1,0-1.5H3A1.5,1.5,0,0,1,4.5,0,1.5,1.5,0,0,1,3,1.5Z" transform="translate(5067.832 3117.832)" fill="#fff"/><path d="M3,1.5H0A1.5,1.5,0,0,1-1.5,0,1.5,1.5,0,0,1,0-1.5H3A1.5,1.5,0,0,1,4.5,0,1.5,1.5,0,0,1,3,1.5Z" transform="translate(5077.832 3117.832)" fill="#fff"/><path d="M3,1.5H0A1.5,1.5,0,0,1-1.5,0,1.5,1.5,0,0,1,0-1.5H3A1.5,1.5,0,0,1,4.5,0,1.5,1.5,0,0,1,3,1.5Z" transform="translate(5046.832 3126.832)" fill="#fff"/><path d="M3,1.5H0A1.5,1.5,0,0,1-1.5,0,1.5,1.5,0,0,1,0-1.5H3A1.5,1.5,0,0,1,4.5,0,1.5,1.5,0,0,1,3,1.5Z" transform="translate(5057.832 3126.832)" fill="#fff"/><path d="M3,1.5H0A1.5,1.5,0,0,1-1.5,0,1.5,1.5,0,0,1,0-1.5H3A1.5,1.5,0,0,1,4.5,0,1.5,1.5,0,0,1,3,1.5Z" transform="translate(5067.832 3126.832)" fill="#fff"/><path d="M3,1.5H0A1.5,1.5,0,0,1-1.5,0,1.5,1.5,0,0,1,0-1.5H3A1.5,1.5,0,0,1,4.5,0,1.5,1.5,0,0,1,3,1.5Z" transform="translate(5077.832 3126.832)" fill="#fff"/><path d="M214.437,140.346a1.5,1.5,0,0,1-1.5-1.5V107.5H201a1.5,1.5,0,0,1,0-3h11.944a3,3,0,0,1,2.993,2.993v31.353A1.5,1.5,0,0,1,214.437,140.346Z" transform="translate(4887.747 2998.324)" fill="#fff"/><path d="M184.479,92.5h5.972a1.5,1.5,0,0,1,1.5,1.5v2.979h2.979a1.5,1.5,0,0,1,1.5,1.5v5.972a1.5,1.5,0,0,1-1.5,1.5h-2.979v2.979a1.5,1.5,0,0,1-1.5,1.5h-5.972a1.5,1.5,0,0,1-1.5-1.5v-2.979H180a1.5,1.5,0,0,1-1.5-1.5V98.479a1.5,1.5,0,0,1,1.5-1.5h2.979V94A1.5,1.5,0,0,1,184.479,92.5Zm4.472,3h-2.972v2.979a1.5,1.5,0,0,1-1.5,1.5H181.5v2.972h2.979a1.5,1.5,0,0,1,1.5,1.5v2.979h2.972v-2.979a1.5,1.5,0,0,1,1.5-1.5h2.979V99.979h-2.979a1.5,1.5,0,0,1-1.5-1.5Z" transform="translate(4877.395 2992.409)" fill="#fff"/></g></g></svg>