<svg xmlns="http://www.w3.org/2000/svg" xmlns:xlink="http://www.w3.org/1999/xlink" width="122" height="122" viewBox="0 0 122 122"><defs><linearGradient id="a" x1="0.5" x2="0.5" y2="1" gradientUnits="objectBoundingBox"><stop offset="0" stop-color="#8906ce"/><stop offset="1" stop-color="#335ba9"/></linearGradient></defs><g transform="translate(-1136 -3912)"><path d="M61,0A61,61,0,1,1,0,61,61,61,0,0,1,61,0Z" transform="translate(1136 3912)" fill="url(#a)"/><path d="M-32.662,0h-3.923V-8.011h-7.351V0h-3.936V-18.561h3.936v7.274h7.351v-7.274h3.923ZM-29.3-17.862q0-1.892,2.107-1.892t2.107,1.892a1.844,1.844,0,0,1-.527,1.4,2.215,2.215,0,0,1-1.581.5Q-29.3-15.958-29.3-17.862ZM-25.268,0H-29.14V-14.193h3.872ZM-10.8-5.154a4.8,4.8,0,0,1-1.809,3.961A7.859,7.859,0,0,1-17.645.254,11.822,11.822,0,0,1-22.9-.863V-4.52a21.659,21.659,0,0,0,3.18,1.181A9.41,9.41,0,0,0-17.341-3a3.384,3.384,0,0,0,1.987-.5,1.693,1.693,0,0,0,.692-1.473,1.626,1.626,0,0,0-.3-.971,3.409,3.409,0,0,0-.9-.819,23.019,23.019,0,0,0-2.406-1.257,11.4,11.4,0,0,1-2.552-1.536,5.767,5.767,0,0,1-1.358-1.714,4.891,4.891,0,0,1-.508-2.285,4.8,4.8,0,0,1,1.669-3.872A6.937,6.937,0,0,1-16.4-18.827a10.9,10.9,0,0,1,2.761.343,18.98,18.98,0,0,1,2.749.965l-1.27,3.06a18.574,18.574,0,0,0-2.457-.851,7.907,7.907,0,0,0-1.911-.241,2.53,2.53,0,0,0-1.714.521,1.717,1.717,0,0,0-.6,1.358,1.681,1.681,0,0,0,.241.908,2.652,2.652,0,0,0,.768.749,23.748,23.748,0,0,0,2.495,1.3A9.926,9.926,0,0,1-11.767-8.22,4.869,4.869,0,0,1-10.8-5.154Zm10.39-10.4a4.01,4.01,0,0,0-3.44,1.669A7.767,7.767,0,0,0-5.072-9.229q0,6.208,4.659,6.208A14.728,14.728,0,0,0,4.323-4V-.7a13.151,13.151,0,0,1-5.1.952A7.784,7.784,0,0,1-6.976-2.2Q-9.122-4.659-9.122-9.255a11.516,11.516,0,0,1,1.054-5.072A7.616,7.616,0,0,1-5.04-17.666,8.957,8.957,0,0,1-.413-18.827,12.489,12.489,0,0,1,5.021-17.52l-1.27,3.2a21.015,21.015,0,0,0-2.095-.863A6.249,6.249,0,0,0-.413-15.552Zm11.761,5.23h1.27a4.857,4.857,0,0,0,2.755-.622,2.22,2.22,0,0,0,.889-1.955,2.031,2.031,0,0,0-.908-1.879,5.508,5.508,0,0,0-2.812-.559H11.349Zm0,3.2V0H7.413V-18.561h5.408q3.783,0,5.6,1.377A4.916,4.916,0,0,1,20.235-13a4.924,4.924,0,0,1-.9,2.914,5.964,5.964,0,0,1-2.552,2Q20.972-1.828,22.241,0H17.874L13.443-7.122ZM24.265,0l6.97-15.234H22.081v-3.3H35.4v2.463L28.378,0Zm18.9-11.857a5.971,5.971,0,0,1,4.285,1.511,5.43,5.43,0,0,1,1.593,4.139,6.017,6.017,0,0,1-1.917,4.786A8.081,8.081,0,0,1,41.637.254a10.742,10.742,0,0,1-5-1v-3.39a10.383,10.383,0,0,0,2.336.87,10.335,10.335,0,0,0,2.526.336q3.593,0,3.593-2.945,0-2.806-3.72-2.806a9.236,9.236,0,0,0-1.485.133,10.868,10.868,0,0,0-1.32.286L37-9.1l.7-9.458H47.769v3.326H41.142L40.8-11.591l.444-.089A8.739,8.739,0,0,1,43.161-11.857Z" transform="translate(1197 3983)" fill="#fff"/></g></svg>