<svg xmlns="http://www.w3.org/2000/svg" xmlns:xlink="http://www.w3.org/1999/xlink" width="87" height="87" viewBox="0 0 87 87"><defs><linearGradient id="a" x1="0.5" x2="0.5" y2="1" gradientUnits="objectBoundingBox"><stop offset="0" stop-color="#8906ce"/><stop offset="1" stop-color="#335ba9"/></linearGradient></defs><g transform="translate(-2382 -425)"><circle cx="43.5" cy="43.5" r="43.5" transform="translate(2382 425)" fill="url(#a)"/><g transform="translate(0.241 -1.76)"><path d="M0,4.941a1.5,1.5,0,0,1-1.5-1.5V0A1.5,1.5,0,0,1,0-1.5,1.5,1.5,0,0,1,1.5,0V3.441A1.5,1.5,0,0,1,0,4.941Z" transform="translate(2425.194 486.712)" fill="#fff"/><path d="M4.158,3A1.158,1.158,0,1,0,5.316,4.158,1.16,1.16,0,0,0,4.158,3m0-3A4.158,4.158,0,1,1,0,4.158,4.158,4.158,0,0,1,4.158,0Z" transform="matrix(0.16, -0.987, 0.987, 0.16, 2420.423, 501.908)" fill="#fff"/><path d="M0,4.941a1.5,1.5,0,0,1-1.5-1.5V0A1.5,1.5,0,0,1,0-1.5,1.5,1.5,0,0,1,1.5,0V3.441A1.5,1.5,0,0,1,0,4.941Z" transform="translate(2425.194 450.234)" fill="#fff"/><path d="M4.158,3A1.158,1.158,0,1,0,5.316,4.158,1.16,1.16,0,0,0,4.158,3m0-3A4.158,4.158,0,1,1,0,4.158,4.158,4.158,0,0,1,4.158,0Z" transform="translate(2421.036 437.76)" fill="#fff"/><path d="M3.441,1.5H0A1.5,1.5,0,0,1-1.5,0,1.5,1.5,0,0,1,0-1.5H3.441A1.5,1.5,0,0,1,4.941,0,1.5,1.5,0,0,1,3.441,1.5Z" transform="translate(2405.234 471.341)" fill="#fff"/><path d="M4.158,3A1.158,1.158,0,1,0,5.316,4.158,1.16,1.16,0,0,0,4.158,3m0-3A4.158,4.158,0,1,1,0,4.158,4.158,4.158,0,0,1,4.158,0Z" transform="translate(2392.759 467.422)" fill="#fff"/><path d="M3.441,1.5H0A1.5,1.5,0,0,1-1.5,0,1.5,1.5,0,0,1,0-1.5H3.441A1.5,1.5,0,0,1,4.941,0,1.5,1.5,0,0,1,3.441,1.5Z" transform="translate(2441.712 471.341)" fill="#fff"/><path d="M4.158,3A1.158,1.158,0,1,0,5.316,4.158,1.16,1.16,0,0,0,4.158,3m0-3A4.158,4.158,0,1,1,0,4.158,4.158,4.158,0,0,1,4.158,0Z" transform="matrix(0.16, -0.987, 0.987, 0.16, 2448.699, 475.018)" fill="#fff"/><path d="M0,3.931a1.5,1.5,0,0,1-1.061-.439,1.5,1.5,0,0,1,0-2.121L1.37-1.061a1.5,1.5,0,0,1,2.121,0,1.5,1.5,0,0,1,0,2.121L1.061,3.491A1.5,1.5,0,0,1,0,3.931Z" transform="translate(2411.076 481.835)" fill="#fff"/><path d="M70.653,357.495a1.158,1.158,0,1,0,.819.339,1.153,1.153,0,0,0-.819-.339m0-3a4.158,4.158,0,1,1-2.94,1.218A4.145,4.145,0,0,1,70.653,354.495Z" transform="translate(2334.581 131.5)" fill="#fff"/><path d="M0,3.931a1.5,1.5,0,0,1-1.061-.439,1.5,1.5,0,0,1,0-2.121L1.37-1.061a1.5,1.5,0,0,1,2.121,0,1.5,1.5,0,0,1,0,2.121L1.061,3.491A1.5,1.5,0,0,1,0,3.931Z" transform="translate(2436.811 456.1)" fill="#fff"/><path d="M358.653,71.811a1.158,1.158,0,1,0-.819-.339,1.153,1.153,0,0,0,.819.339m0,3a4.158,4.158,0,1,1,2.94-1.218A4.145,4.145,0,0,1,358.653,74.811Z" transform="translate(2086.5 379.581)" fill="#fff"/><path d="M2.431,3.931A1.5,1.5,0,0,1,1.37,3.491L-1.061,1.061a1.5,1.5,0,0,1,0-2.121,1.5,1.5,0,0,1,2.121,0L3.491,1.37A1.5,1.5,0,0,1,2.431,3.931Z" transform="translate(2410.265 456.911)" fill="#fff"/><path d="M63.653,78.811a1.158,1.158,0,1,0-.819-.339,1.153,1.153,0,0,0,.819.339m0,3a4.158,4.158,0,1,1,2.94-1.218A4.145,4.145,0,0,1,63.653,81.811Z" transform="translate(2340.611 373.551)" fill="#fff"/><path d="M70.53,92.566a8.036,8.036,0,1,0-5.682-2.354,7.983,7.983,0,0,0,5.682,2.354m0,3a11.035,11.035,0,1,1,7.8-3.232A11,11,0,0,1,70.53,95.566Z" transform="translate(2354.664 385.877)" fill="#fff"/><path d="M2.431,3.931A1.5,1.5,0,0,1,1.37,3.491L-1.061,1.061a1.5,1.5,0,0,1,0-2.121,1.5,1.5,0,0,1,2.121,0L3.491,1.37A1.5,1.5,0,0,1,2.431,3.931Z" transform="translate(2436.001 482.646)" fill="#fff"/><path d="M351.653,364.495a1.158,1.158,0,1,0,.819.339,1.153,1.153,0,0,0-.819-.339m0-3a4.158,4.158,0,1,1-2.94,1.218A4.145,4.145,0,0,1,351.653,361.495Z" transform="translate(2092.53 125.47)" fill="#fff"/></g></g></svg>