<svg xmlns="http://www.w3.org/2000/svg" xmlns:xlink="http://www.w3.org/1999/xlink" width="87" height="87" viewBox="0 0 87 87"><defs><linearGradient id="a" x1="0.5" x2="0.5" y2="1" gradientUnits="objectBoundingBox"><stop offset="0" stop-color="#8906ce"/><stop offset="1" stop-color="#335ba9"/></linearGradient></defs><g transform="translate(-3596 -283)"><circle cx="43.5" cy="43.5" r="43.5" transform="translate(3596 283)" fill="url(#a)"/><path d="M30.3,51.587A105.415,105.415,0,0,0,47.069,37.464a44.606,44.606,0,0,0,8.8-12.847,19.694,19.694,0,0,0,1.7-8.822,12.949,12.949,0,0,0-2.132-6.428,14,14,0,0,0-5.383-4.683A15.842,15.842,0,0,0,42.964,3,13.092,13.092,0,0,0,32.615,7.7L30.3,10.52,27.979,7.7A13.091,13.091,0,0,0,17.631,3a15.839,15.839,0,0,0-7.083,1.683A14,14,0,0,0,5.164,9.367a12.95,12.95,0,0,0-2.132,6.428,19.69,19.69,0,0,0,1.7,8.822,44.607,44.607,0,0,0,8.8,12.848A105.415,105.415,0,0,0,30.3,51.587m0,3.639C14.007,44.2,5.463,34.167,1.959,25.772-7.428,3.273,19.384-7.487,30.3,5.795,41.211-7.487,68.023,3.273,58.636,25.772,55.132,34.167,46.588,44.2,30.3,55.226Z" transform="translate(3609.203 302.476)" fill="#fff"/><path d="M16,40a2,2,0,0,1-2-2V26H2a2,2,0,0,1-2-2V16a2,2,0,0,1,2-2H14V2a2,2,0,0,1,2-2h8a2,2,0,0,1,2,2V14H38a2,2,0,0,1,2,2v8a2,2,0,0,1-2,2H26V38a2,2,0,0,1-2,2Z" transform="translate(3634 316)" fill="url(#a)"/><path d="M24,41.5H16A3.5,3.5,0,0,1,12.5,38V27.5H2A3.5,3.5,0,0,1-1.5,24V16A3.5,3.5,0,0,1,2,12.5H12.5V2A3.5,3.5,0,0,1,16-1.5h8A3.5,3.5,0,0,1,27.5,2V12.5H38A3.5,3.5,0,0,1,41.5,16v8A3.5,3.5,0,0,1,38,27.5H27.5V38A3.5,3.5,0,0,1,24,41.5ZM2,15.5a.5.5,0,0,0-.5.5v8a.5.5,0,0,0,.5.5H14A1.5,1.5,0,0,1,15.5,26V38a.5.5,0,0,0,.5.5h8a.5.5,0,0,0,.5-.5V26A1.5,1.5,0,0,1,26,24.5H38a.5.5,0,0,0,.5-.5V16a.5.5,0,0,0-.5-.5H26A1.5,1.5,0,0,1,24.5,14V2a.5.5,0,0,0-.5-.5H16a.5.5,0,0,0-.5.5V14A1.5,1.5,0,0,1,14,15.5Z" transform="translate(3634 316)" fill="#fff"/></g></svg>