<svg xmlns="http://www.w3.org/2000/svg" width="216.369" height="238.257" viewBox="0 0 216.369 238.257"><path d="M47.867,147.457a87.757,87.757,0,1,1,78.257,96.324,87.757,87.757,0,0,1-78.257-96.324" transform="translate(-24.836 -29.385)" fill="#c2b1fb"/><path d="M66.825,237.2c19.163,0,34.84,15.025,34.84,33.389v18.68a7.18,7.18,0,0,1-7.215,7.142H11.032a7.178,7.178,0,0,1-7.214-7.142v-18.68c0-18.363,15.677-33.389,34.84-33.389Z" transform="translate(-0.982 -60.989)" fill="#fff"/><path d="M93.47,298.265H10.05A10.027,10.027,0,0,1,0,288.287v-18.68c0-19.975,16.9-36.225,37.677-36.225a2.836,2.836,0,1,1,0,5.673c-17.646,0-32,13.706-32,30.552v18.68a4.346,4.346,0,0,0,4.377,4.3H93.47a4.347,4.347,0,0,0,4.378-4.3v-18.68c0-16.846-14.357-30.552-32-30.552a2.836,2.836,0,0,1,0-5.673c20.775,0,37.677,16.25,37.677,36.225v18.68a10.026,10.026,0,0,1-10.05,9.978" transform="translate(0 -60.008)" fill="#111"/><path d="M218.732,133.484c19.163,0,34.84,15.025,34.84,33.389v18.681a7.178,7.178,0,0,1-7.215,7.14H162.939a7.177,7.177,0,0,1-7.214-7.14V166.873c0-18.363,15.677-33.389,34.84-33.389Z" transform="translate(-40.04 -34.322)" fill="#fff"/><path d="M245.377,194.549H161.958a10.025,10.025,0,0,1-10.051-9.977V165.891c0-19.975,16.9-36.225,37.677-36.225a2.836,2.836,0,1,1,0,5.673c-17.646,0-32,13.706-32,30.552v18.681a4.345,4.345,0,0,0,4.378,4.3h83.419a4.345,4.345,0,0,0,4.378-4.3V165.891c0-16.846-14.357-30.552-32-30.552a2.836,2.836,0,0,1,0-5.673c20.775,0,37.677,16.25,37.677,36.225v18.681a10.025,10.025,0,0,1-10.051,9.977" transform="translate(-39.059 -33.34)" fill="#111"/><path d="M238.792,230.322h-111.2l20.9,18.27v31.97a7.533,7.533,0,0,0,7.548,7.471h82.752a7.533,7.533,0,0,0,7.548-7.471V237.8a7.533,7.533,0,0,0-7.548-7.473" transform="translate(-32.807 -59.221)" fill="#fff"/><path d="M237.809,289.888H155.059a10.359,10.359,0,0,1-10.385-10.308V248.9l-19.928-17.423a2.837,2.837,0,0,1,1.868-4.972h111.2a10.359,10.359,0,0,1,10.385,10.31V279.58a10.359,10.359,0,0,1-10.385,10.308M134.166,232.176l15.21,13.3a2.837,2.837,0,0,1,.969,2.135v31.97a4.68,4.68,0,0,0,4.713,4.635h82.751a4.679,4.679,0,0,0,4.712-4.635V236.813a4.68,4.68,0,0,0-4.712-4.636Z" transform="translate(-31.826 -58.239)" fill="#111"/><path d="M173.927,257.455h0Z" transform="translate(-44.72 -66.197)" fill="#fff"/><path d="M215.332,259.309H172.945a2.837,2.837,0,0,1,0-5.673h42.387a2.837,2.837,0,0,1,0,5.673" transform="translate(-43.739 -65.215)" fill="#111"/><path d="M173.927,281.42h0Z" transform="translate(-44.72 -72.359)" fill="#fff"/><path d="M215.332,283.275H172.945a2.837,2.837,0,0,1,0-5.673h42.387a2.837,2.837,0,0,1,0,5.673" transform="translate(-43.739 -71.378)" fill="#111"/><path d="M248.824,260.358a6.1,6.1,0,1,1,9.752,4.838s-3.749,2.94-3.65,6.943Z" transform="translate(-63.978 -65.391)" fill="#fff"/><path d="M253.942,273.993a2.836,2.836,0,0,1-2.834-2.767c-.129-5.274,4.237-8.854,4.736-9.244l.06-.045a3.167,3.167,0,0,0,1.3-2.56,3.264,3.264,0,0,0-6.527,0,2.837,2.837,0,0,1-5.673,0,8.937,8.937,0,1,1,14.323,7.082c-.732.6-2.6,2.57-2.55,4.629a2.837,2.837,0,0,1-2.766,2.905h-.071" transform="translate(-62.996 -64.41)" fill="#111"/><path d="M78.843,230.322v6.127c0,5.179-6.309,9.418-14.021,9.418s-14.02-4.239-14.02-9.418v-6.127Z" transform="translate(-13.062 -59.221)" fill="#fff"/><path d="M63.839,247.722c-9.452,0-16.856-5.384-16.856-12.255V229.34a2.837,2.837,0,0,1,5.673,0v6.127c0,3.113,4.592,6.582,11.183,6.582s11.185-3.469,11.185-6.582V229.34a2.836,2.836,0,0,1,5.673,0v6.127c0,6.872-7.4,12.255-16.857,12.255" transform="translate(-12.08 -58.239)" fill="#111"/><path d="M54.23,124.279h0c-17.6,0-32.174,13.225-33.758,29.966-.051,0-.1-.007-.15-.007a10.429,10.429,0,1,0,0,20.85c.051,0,.1-.007.15-.007,1.584,16.742,16.157,29.968,33.758,29.968S86.4,191.821,87.99,175.08c.051,0,.1.007.149.007a10.429,10.429,0,1,0,0-20.85c-.049,0-.1.007-.149.007Z" transform="translate(-2.47 -31.955)" fill="#fff"/><path d="M53.249,206.9c-17.964,0-33.443-13.068-36.273-30.163a13.216,13.216,0,0,1,0-26.118c2.83-17.094,18.309-30.161,36.273-30.161a2.836,2.836,0,0,1,0,5.673c-15.893,0-29.481,12.035-30.934,27.4a2.837,2.837,0,0,1-2.824,2.57c-.074,0-.146,0-.219-.007a7.591,7.591,0,1,0,0,15.176,2.834,2.834,0,0,1,3.042,2.562c1.453,15.363,15.041,27.4,30.934,27.4s29.48-12.035,30.936-27.4a2.836,2.836,0,0,1,2.824-2.569c.074,0,.146,0,.218.007a7.591,7.591,0,1,0,0-15.176,2.837,2.837,0,1,1-.308-5.664c.076,0,.184-.009.238-.009a13.242,13.242,0,0,1,2.367,26.319c-2.833,17.1-18.312,30.164-36.275,30.164" transform="translate(-1.488 -30.973)" fill="#111"/><path d="M78.232,141.082v20.1a6.734,6.734,0,0,0,7.646,6.614,6.867,6.867,0,0,0,5.834-6.863V132.264a8.026,8.026,0,0,0-8.068-7.985H58.01c-30.838,2.19-33.689,29.872-33.7,29.965v6.942a6.734,6.734,0,0,0,7.646,6.614,6.866,6.866,0,0,0,5.833-6.863V150.35S58.556,157,78.232,144.3Z" transform="translate(-6.251 -31.955)" fill="#fff"/><path d="M30.087,169.711a9.626,9.626,0,0,1-6.349-2.385,9.488,9.488,0,0,1-3.244-7.123v-6.939c0-.093.005-.188.014-.28.029-.3,3.337-30.175,36.32-32.517.066,0,.134-.007.2-.007H82.661a10.876,10.876,0,0,1,10.905,10.822v28.671a9.581,9.581,0,0,1-15.909,7.373,9.488,9.488,0,0,1-3.244-7.123V148.235a54.267,54.267,0,0,1-34.767,4.737v6.982a9.693,9.693,0,0,1-8.3,9.675,9.583,9.583,0,0,1-1.259.082m-3.92-16.289V160.2a3.814,3.814,0,0,0,1.313,2.859,3.913,3.913,0,0,0,3.13.942,4.057,4.057,0,0,0,3.364-4.051V149.368a2.837,2.837,0,0,1,3.7-2.7c.186.059,18.868,5.772,36.738-4.922V140.1a2.837,2.837,0,0,1,5.673,0v20.1a3.812,3.812,0,0,0,1.313,2.859,3.912,3.912,0,0,0,3.129.942,4.007,4.007,0,0,0,3.364-4.051V131.282a5.2,5.2,0,0,0-5.232-5.149H57.13c-27.222,1.987-30.7,25.113-30.963,27.289" transform="translate(-5.269 -30.973)" fill="#111"/><path d="M230.757,125.2v6.127c0,5.178-6.309,9.417-14.021,9.417s-14.02-4.239-14.02-9.417V125.2Z" transform="translate(-52.123 -32.192)" fill="#fff"/><path d="M215.753,142.6c-9.452,0-16.856-5.383-16.856-12.254v-6.127a2.837,2.837,0,0,1,5.673,0v6.127c0,3.113,4.592,6.58,11.183,6.58s11.185-3.468,11.185-6.58v-6.127a2.836,2.836,0,0,1,5.673,0v6.127c0,6.871-7.4,12.254-16.857,12.254" transform="translate(-51.141 -31.21)" fill="#111"/><path d="M206.144,19.156h0c-17.6,0-32.174,13.226-33.759,29.968-.051,0-.1-.009-.149-.009a10.429,10.429,0,1,0,0,20.85c.049,0,.1-.005.149-.007,1.585,16.741,16.158,29.968,33.759,29.968S238.318,86.7,239.9,69.957c.051,0,.1.007.15.007a10.429,10.429,0,1,0,0-20.85c-.051,0-.1.007-.15.009Z" transform="translate(-41.531 -4.925)" fill="#fff"/><path d="M205.162,101.78c-17.963,0-33.443-13.068-36.275-30.163a13.216,13.216,0,0,1,0-26.118C171.72,28.4,187.2,15.338,205.162,15.338a2.836,2.836,0,0,1,0,5.673c-15.892,0-29.481,12.035-30.936,27.4a2.831,2.831,0,0,1-2.925,2.567l-.123-.007a7.591,7.591,0,1,0,.022,15.176l.1-.005a2.838,2.838,0,0,1,2.925,2.567c1.455,15.363,15.044,27.4,30.936,27.4s29.48-12.035,30.933-27.4a2.853,2.853,0,0,1,2.925-2.567l.1.005a7.591,7.591,0,1,0,.016-15.176l-.121.007a2.836,2.836,0,0,1-.259-5.667c.106-.008.206-.013.308-.013a13.242,13.242,0,0,1,2.365,26.32c-2.83,17.1-18.309,30.163-36.272,30.163" transform="translate(-40.549 -3.944)" fill="#111"/><path d="M69.674,251.647v0Z" transform="translate(-17.915 -64.704)" fill="#fff"/><path d="M68.692,281.913a2.836,2.836,0,0,1-2.836-2.836V250.665a2.836,2.836,0,1,1,5.673,0v28.412a2.836,2.836,0,0,1-2.836,2.836" transform="translate(-16.933 -63.722)" fill="#111"/><path d="M241.881,43.351H177.107a1.51,1.51,0,0,1-1.506-1.506V11.194a7.4,7.4,0,0,1,7.376-7.375h53.034a7.4,7.4,0,0,1,7.376,7.375v30.65a1.51,1.51,0,0,1-1.506,1.506" transform="translate(-45.151 -0.982)" fill="#fff"/><path d="M240.9,45.206H176.124a4.347,4.347,0,0,1-4.342-4.342V10.212A10.224,10.224,0,0,1,181.994,0h53.034a10.224,10.224,0,0,1,10.212,10.212V40.863a4.347,4.347,0,0,1-4.342,4.342m-63.443-5.673h62.112V10.212a4.544,4.544,0,0,0-4.539-4.539H181.994a4.544,4.544,0,0,0-4.539,4.539Z" transform="translate(-44.169)" fill="#111"/><path d="M257.036,288.429v0Z" transform="translate(-66.09 -74.161)" fill="#fff"/><path d="M256.054,292.338a2.836,2.836,0,0,1-2.836-2.836v-2.056a2.836,2.836,0,0,1,5.673,0V289.5a2.836,2.836,0,0,1-2.836,2.836" transform="translate(-65.108 -73.179)" fill="#111"/><path d="M253.719,138.208c4.454,9.055,1.719,19.316,1.719,19.316Z" transform="translate(-65.237 -35.536)" fill="#fff"/><path d="M254.459,159.379a2.839,2.839,0,0,1-2.743-3.568c.023-.087,2.387-9.383-1.523-17.333a2.836,2.836,0,1,1,5.09-2.5c4.868,9.9,2.037,20.837,1.914,21.3a2.839,2.839,0,0,1-2.739,2.107" transform="translate(-64.255 -34.554)" fill="#111"/><path d="M258.088,170.735a6.85,6.85,0,1,1-6.851-6.851,6.851,6.851,0,0,1,6.851,6.851" transform="translate(-62.837 -42.138)" fill="#fff"/><path d="M250.255,179.44a9.688,9.688,0,1,1,9.687-9.687,9.7,9.7,0,0,1-9.687,9.687m0-13.7a4.014,4.014,0,1,0,4.014,4.015,4.019,4.019,0,0,0-4.014-4.015" transform="translate(-61.855 -41.156)" fill="#111"/><path d="M184.825,156.594a2.837,2.837,0,0,1-2.812-2.491,39.269,39.269,0,0,1,2.2-17.692,2.837,2.837,0,0,1,5.247,2.157,34.009,34.009,0,0,0-1.817,14.843,2.836,2.836,0,0,1-2.469,3.161,2.758,2.758,0,0,1-.348.022" transform="translate(-46.743 -34.622)" fill="#111"/><path d="M169.62,192.221a2.837,2.837,0,0,1-2.813-2.5,51.645,51.645,0,0,1,2.068-19.518c2.564-8.323,6.612-13.04,11.708-13.643s10.132,3.041,14.567,10.535a51.638,51.638,0,0,1,6.566,18.5,2.836,2.836,0,0,1-2.483,3.151l-5.247.62a2.836,2.836,0,0,1-.667-5.633l2.281-.27a48.775,48.775,0,0,0-5.331-13.476c-3.067-5.183-6.431-8.093-9.019-7.791s-5.179,3.924-6.953,9.68a48.787,48.787,0,0,0-2.039,14.348l2.956-.35a2.837,2.837,0,0,1,.666,5.634l-5.922.7a3.026,3.026,0,0,1-.337.019" transform="translate(-42.831 -40.237)" fill="#111"/></svg>