<svg xmlns="http://www.w3.org/2000/svg" width="112.931" height="130.56" viewBox="0 0 112.931 130.56"><g transform="translate(21.065 0)" opacity="0.2"><path d="M466.067,324.256v-5.843a7.332,7.332,0,1,0-14.664,0v5.843a14.294,14.294,0,0,0-7,12.281v13.045a5.492,5.492,0,0,0,5.033,5.5V373.2a5.479,5.479,0,0,0,5.527,5.414,5.562,5.562,0,0,0,3.775-1.482,5.557,5.557,0,0,0,3.774,1.482,5.479,5.479,0,0,0,5.527-5.414V355.08a5.492,5.492,0,0,0,5.033-5.5V336.537A14.3,14.3,0,0,0,466.067,324.256Z" transform="translate(-444.4 -311.08)" fill="#fff"/><rect width="12.948" height="8.89" transform="translate(7.861 37.819)" fill="#fff"/></g><g transform="translate(23.635 2.57)" opacity="0.2"><path d="M469.929,344.59a2.923,2.923,0,0,1-2.872,2.971H449.273a2.923,2.923,0,0,1-2.873-2.971V331.545a2.9,2.9,0,0,1,2.873-2.949h17.784a2.9,2.9,0,0,1,2.872,2.949Z" transform="translate(-446.4 -308.658)" fill="#335ba9"/><path d="M469.929,333.494a11.765,11.765,0,1,1-11.764-11.736A11.723,11.723,0,0,1,469.929,333.494Z" transform="translate(-446.4 -310.607)" fill="#335ba9"/><path d="M461.374,317.843a4.762,4.762,0,1,1-4.762-4.763A4.761,4.761,0,0,1,461.374,317.843Z" transform="translate(-444.847 -313.08)" fill="#335ba9"/><g transform="translate(5.033 34.808)"><path d="M453.274,340.168a2.9,2.9,0,0,0-2.957,2.844v21.9a2.959,2.959,0,0,0,5.914,0v-21.9A2.9,2.9,0,0,0,453.274,340.168Z" transform="translate(-450.317 -340.168)" fill="#335ba9"/><path d="M459.149,340.168a2.9,2.9,0,0,0-2.957,2.844v21.9a2.959,2.959,0,0,0,5.914,0v-21.9A2.9,2.9,0,0,0,459.149,340.168Z" transform="translate(-448.643 -340.168)" fill="#335ba9"/></g><rect width="7.808" height="3.75" transform="translate(7.861 37.819)" fill="#335ba9"/></g><path d="M498.875,324.272v-5.858a7.342,7.342,0,0,0-14.685,0v5.843a14.294,14.294,0,0,0-7,12.281v13.045a5.492,5.492,0,0,0,5.033,5.5V373.2a5.479,5.479,0,0,0,5.527,5.414,5.563,5.563,0,0,0,3.775-1.482,5.559,5.559,0,0,0,3.774,1.482,5.479,5.479,0,0,0,5.527-5.414V355.08a5.491,5.491,0,0,0,5.033-5.5V336.537A14.289,14.289,0,0,0,498.875,324.272Z" transform="translate(-413.991 -311.08)" fill="#fff" opacity="0.2"/><g transform="translate(65.766 2.57)" opacity="0.2"><path d="M502.716,344.59a2.923,2.923,0,0,1-2.872,2.971H482.06a2.923,2.923,0,0,1-2.873-2.971V331.545a2.9,2.9,0,0,1,2.873-2.949h17.784a2.9,2.9,0,0,1,2.872,2.949Z" transform="translate(-479.187 -308.658)" fill="#335ba9"/><path d="M502.716,333.494a11.765,11.765,0,1,1-11.764-11.736A11.723,11.723,0,0,1,502.716,333.494Z" transform="translate(-479.187 -310.607)" fill="#335ba9"/><path d="M494.161,317.843a4.762,4.762,0,1,1-4.762-4.763A4.761,4.761,0,0,1,494.161,317.843Z" transform="translate(-477.634 -313.08)" fill="#335ba9"/><g transform="translate(5.033 34.808)"><path d="M486.061,340.168a2.9,2.9,0,0,0-2.957,2.844v21.9a2.959,2.959,0,0,0,5.914,0v-21.9A2.9,2.9,0,0,0,486.061,340.168Z" transform="translate(-483.104 -340.168)" fill="#335ba9"/><path d="M491.936,340.168a2.9,2.9,0,0,0-2.957,2.844v21.9a2.959,2.959,0,0,0,5.913,0v-21.9A2.9,2.9,0,0,0,491.936,340.168Z" transform="translate(-481.43 -340.168)" fill="#335ba9"/></g><rect width="7.808" height="3.75" transform="translate(7.861 37.819)" fill="#335ba9"/></g><g transform="translate(42.131 12.624)" opacity="0.2"><path d="M482.46,334.083v-5.845a7.332,7.332,0,1,0-14.664,0v5.845a14.289,14.289,0,0,0-7,12.278v13.048a5.489,5.489,0,0,0,5.033,5.5v18.117a5.477,5.477,0,0,0,5.527,5.414,5.558,5.558,0,0,0,3.774-1.48,5.562,5.562,0,0,0,3.775,1.48,5.476,5.476,0,0,0,5.525-5.414V364.906a5.489,5.489,0,0,0,5.033-5.5V346.361A14.289,14.289,0,0,0,482.46,334.083Z" transform="translate(-460.794 -320.904)" fill="#fff"/><rect width="12.948" height="8.887" transform="translate(7.86 37.822)" fill="#fff"/></g><g transform="translate(44.701 15.194)" opacity="0.2"><path d="M486.322,354.417a2.923,2.923,0,0,1-2.872,2.97H465.666a2.923,2.923,0,0,1-2.872-2.97V341.369a2.9,2.9,0,0,1,2.872-2.949H483.45a2.9,2.9,0,0,1,2.872,2.949Z" transform="translate(-462.794 -318.482)" fill="#335ba9"/><path d="M486.322,343.317a11.764,11.764,0,1,1-11.764-11.733A11.721,11.721,0,0,1,486.322,343.317Z" transform="translate(-462.794 -320.43)" fill="#335ba9"/><path d="M477.767,327.667a4.762,4.762,0,1,1-4.762-4.763A4.761,4.761,0,0,1,477.767,327.667Z" transform="translate(-461.241 -322.904)" fill="#335ba9"/><g transform="translate(5.033 34.808)"><path d="M469.668,349.992a2.9,2.9,0,0,0-2.957,2.844v21.9a2.958,2.958,0,0,0,5.912,0v-21.9A2.9,2.9,0,0,0,469.668,349.992Z" transform="translate(-466.711 -349.992)" fill="#335ba9"/><path d="M475.543,349.992a2.9,2.9,0,0,0-2.957,2.844v21.9a2.958,2.958,0,0,0,5.912,0v-21.9A2.9,2.9,0,0,0,475.543,349.992Z" transform="translate(-465.037 -349.992)" fill="#335ba9"/></g><rect width="7.808" height="3.747" transform="translate(7.86 37.822)" fill="#335ba9"/></g><path d="M515.269,334.1v-5.858a7.343,7.343,0,0,0-14.686,0v5.845a14.289,14.289,0,0,0-7,12.278v13.048a5.489,5.489,0,0,0,5.033,5.5v18.117a5.477,5.477,0,0,0,5.527,5.414,5.558,5.558,0,0,0,3.774-1.48,5.562,5.562,0,0,0,3.775,1.48,5.477,5.477,0,0,0,5.527-5.414V364.906a5.49,5.49,0,0,0,5.033-5.5V346.361A14.3,14.3,0,0,0,515.269,334.1Z" transform="translate(-409.319 -308.28)" fill="#fff" opacity="0.2"/><g transform="translate(86.832 15.194)" opacity="0.2"><path d="M519.11,354.417a2.923,2.923,0,0,1-2.873,2.97H498.453a2.923,2.923,0,0,1-2.872-2.97V341.369a2.9,2.9,0,0,1,2.872-2.949h17.784a2.9,2.9,0,0,1,2.873,2.949Z" transform="translate(-495.581 -318.482)" fill="#335ba9"/><path d="M519.11,343.317a11.765,11.765,0,1,1-11.765-11.733A11.723,11.723,0,0,1,519.11,343.317Z" transform="translate(-495.581 -320.43)" fill="#335ba9"/><path d="M510.554,327.667a4.762,4.762,0,1,1-4.762-4.763A4.761,4.761,0,0,1,510.554,327.667Z" transform="translate(-494.028 -322.904)" fill="#335ba9"/><g transform="translate(5.033 34.808)"><path d="M502.455,349.992a2.9,2.9,0,0,0-2.957,2.844v21.9a2.959,2.959,0,0,0,5.914,0v-21.9A2.9,2.9,0,0,0,502.455,349.992Z" transform="translate(-499.498 -349.992)" fill="#335ba9"/><path d="M508.33,349.992a2.9,2.9,0,0,0-2.957,2.844v21.9a2.959,2.959,0,0,0,5.914,0v-21.9A2.9,2.9,0,0,0,508.33,349.992Z" transform="translate(-497.824 -349.992)" fill="#335ba9"/></g><rect width="7.808" height="3.747" transform="translate(7.86 37.822)" fill="#335ba9"/></g><path d="M449.673,334.083v-5.845a7.332,7.332,0,1,0-14.664,0v5.845a14.289,14.289,0,0,0-7,12.278v13.048a5.489,5.489,0,0,0,5.033,5.5v18.117a5.476,5.476,0,0,0,5.527,5.414,5.558,5.558,0,0,0,3.774-1.48,5.562,5.562,0,0,0,3.775,1.48,5.476,5.476,0,0,0,5.525-5.414V364.906a5.489,5.489,0,0,0,5.033-5.5V346.361A14.289,14.289,0,0,0,449.673,334.083Z" transform="translate(-428.007 -308.28)" fill="#fff" opacity="0.2"/><g transform="translate(2.57 15.194)" opacity="0.2"><path d="M453.535,354.417a2.923,2.923,0,0,1-2.872,2.97H432.879a2.923,2.923,0,0,1-2.872-2.97V341.369a2.9,2.9,0,0,1,2.872-2.949h17.784a2.9,2.9,0,0,1,2.872,2.949Z" transform="translate(-430.007 -318.482)" fill="#335ba9"/><path d="M453.535,343.317a11.764,11.764,0,1,1-11.764-11.733A11.721,11.721,0,0,1,453.535,343.317Z" transform="translate(-430.007 -320.43)" fill="#335ba9"/><path d="M444.98,327.667a4.762,4.762,0,1,1-4.762-4.763A4.761,4.761,0,0,1,444.98,327.667Z" transform="translate(-428.454 -322.904)" fill="#335ba9"/><g transform="translate(5.033 34.808)"><path d="M436.881,349.992a2.9,2.9,0,0,0-2.957,2.844v21.9a2.958,2.958,0,0,0,5.912,0v-21.9A2.9,2.9,0,0,0,436.881,349.992Z" transform="translate(-433.924 -349.992)" fill="#335ba9"/><path d="M442.756,349.992a2.9,2.9,0,0,0-2.957,2.844v21.9a2.958,2.958,0,0,0,5.912,0v-21.9A2.9,2.9,0,0,0,442.756,349.992Z" transform="translate(-432.25 -349.992)" fill="#335ba9"/></g><rect width="7.808" height="3.747" transform="translate(7.86 37.822)" fill="#335ba9"/></g><g transform="translate(21.065 25.218)" opacity="0.2"><path d="M466.067,343.881v-5.843a7.332,7.332,0,1,0-14.664,0v5.843a14.294,14.294,0,0,0-7,12.281v13.045a5.492,5.492,0,0,0,5.033,5.5v18.118a5.479,5.479,0,0,0,5.527,5.414,5.562,5.562,0,0,0,3.775-1.482,5.557,5.557,0,0,0,3.774,1.482,5.479,5.479,0,0,0,5.527-5.414V374.705a5.492,5.492,0,0,0,5.033-5.5V356.162A14.3,14.3,0,0,0,466.067,343.881Z" transform="translate(-444.4 -330.705)" fill="#fff"/><rect width="12.948" height="8.89" transform="translate(7.861 37.819)" fill="#fff"/></g><g transform="translate(23.635 27.788)" opacity="0.2"><path d="M469.929,364.215a2.923,2.923,0,0,1-2.872,2.971H449.273a2.923,2.923,0,0,1-2.873-2.971V351.17a2.9,2.9,0,0,1,2.873-2.949h17.784a2.9,2.9,0,0,1,2.872,2.949Z" transform="translate(-446.4 -328.283)" fill="#335ba9"/><path d="M469.929,353.119a11.765,11.765,0,1,1-11.764-11.736A11.723,11.723,0,0,1,469.929,353.119Z" transform="translate(-446.4 -330.232)" fill="#335ba9"/><path d="M461.374,337.468a4.762,4.762,0,1,1-4.762-4.763A4.761,4.761,0,0,1,461.374,337.468Z" transform="translate(-444.847 -332.705)" fill="#335ba9"/><g transform="translate(5.033 34.808)"><path d="M453.274,359.793a2.9,2.9,0,0,0-2.957,2.844v21.9a2.959,2.959,0,0,0,5.914,0v-21.9A2.9,2.9,0,0,0,453.274,359.793Z" transform="translate(-450.317 -359.793)" fill="#335ba9"/><path d="M459.149,359.793a2.9,2.9,0,0,0-2.957,2.844v21.9a2.959,2.959,0,0,0,5.914,0v-21.9A2.9,2.9,0,0,0,459.149,359.793Z" transform="translate(-448.643 -359.793)" fill="#335ba9"/></g><rect width="7.808" height="3.75" transform="translate(7.861 37.819)" fill="#335ba9"/></g><path d="M498.875,343.9v-5.858a7.342,7.342,0,0,0-14.685,0v5.843a14.294,14.294,0,0,0-7,12.281v13.045a5.492,5.492,0,0,0,5.033,5.5v18.118a5.479,5.479,0,0,0,5.527,5.414,5.563,5.563,0,0,0,3.775-1.482,5.559,5.559,0,0,0,3.774,1.482,5.479,5.479,0,0,0,5.527-5.414V374.705a5.491,5.491,0,0,0,5.033-5.5V356.162A14.289,14.289,0,0,0,498.875,343.9Z" transform="translate(-413.991 -305.487)" fill="#fff" opacity="0.2"/><g transform="translate(65.766 27.788)" opacity="0.2"><path d="M502.716,364.215a2.923,2.923,0,0,1-2.872,2.971H482.06a2.923,2.923,0,0,1-2.873-2.971V351.17a2.9,2.9,0,0,1,2.873-2.949h17.784a2.9,2.9,0,0,1,2.872,2.949Z" transform="translate(-479.187 -328.283)" fill="#335ba9"/><path d="M502.716,353.119a11.765,11.765,0,1,1-11.764-11.736A11.723,11.723,0,0,1,502.716,353.119Z" transform="translate(-479.187 -330.232)" fill="#335ba9"/><path d="M494.161,337.468a4.762,4.762,0,1,1-4.762-4.763A4.761,4.761,0,0,1,494.161,337.468Z" transform="translate(-477.634 -332.705)" fill="#335ba9"/><g transform="translate(5.033 34.808)"><path d="M486.061,359.793a2.9,2.9,0,0,0-2.957,2.844v21.9a2.959,2.959,0,0,0,5.914,0v-21.9A2.9,2.9,0,0,0,486.061,359.793Z" transform="translate(-483.104 -359.793)" fill="#335ba9"/><path d="M491.936,359.793a2.9,2.9,0,0,0-2.957,2.844v21.9a2.959,2.959,0,0,0,5.913,0v-21.9A2.9,2.9,0,0,0,491.936,359.793Z" transform="translate(-481.43 -359.793)" fill="#335ba9"/></g><rect width="7.808" height="3.75" transform="translate(7.861 37.819)" fill="#335ba9"/></g><g transform="translate(42.131 37.809)" opacity="0.2"><path d="M482.46,353.683v-5.845a7.332,7.332,0,1,0-14.664,0v5.845a14.289,14.289,0,0,0-7,12.278v13.048a5.488,5.488,0,0,0,5.033,5.5v18.118a5.477,5.477,0,0,0,5.527,5.414,5.559,5.559,0,0,0,3.774-1.482,5.563,5.563,0,0,0,3.775,1.482,5.476,5.476,0,0,0,5.525-5.414V384.5a5.488,5.488,0,0,0,5.033-5.5V365.961A14.289,14.289,0,0,0,482.46,353.683Z" transform="translate(-460.794 -340.504)" fill="#fff"/><rect width="12.948" height="8.887" transform="translate(7.86 37.822)" fill="#fff"/></g><g transform="translate(44.701 40.379)" opacity="0.2"><path d="M486.322,374.017a2.922,2.922,0,0,1-2.872,2.968H465.666a2.922,2.922,0,0,1-2.872-2.968V360.969a2.9,2.9,0,0,1,2.872-2.949H483.45a2.9,2.9,0,0,1,2.872,2.949Z" transform="translate(-462.794 -338.082)" fill="#335ba9"/><path d="M486.322,362.917a11.764,11.764,0,1,1-11.764-11.733A11.72,11.72,0,0,1,486.322,362.917Z" transform="translate(-462.794 -340.03)" fill="#335ba9"/><path d="M477.767,347.267a4.762,4.762,0,1,1-4.762-4.763A4.761,4.761,0,0,1,477.767,347.267Z" transform="translate(-461.241 -342.504)" fill="#335ba9"/><g transform="translate(5.033 34.808)"><path d="M469.668,369.592a2.9,2.9,0,0,0-2.957,2.844v21.9a2.958,2.958,0,0,0,5.912,0v-21.9A2.9,2.9,0,0,0,469.668,369.592Z" transform="translate(-466.711 -369.592)" fill="#335ba9"/><path d="M475.543,369.592a2.9,2.9,0,0,0-2.957,2.844v21.9a2.958,2.958,0,0,0,5.912,0v-21.9A2.9,2.9,0,0,0,475.543,369.592Z" transform="translate(-465.037 -369.592)" fill="#335ba9"/></g><rect width="7.808" height="3.747" transform="translate(7.86 37.822)" fill="#335ba9"/></g><path d="M515.269,353.7v-5.858a7.343,7.343,0,0,0-14.686,0v5.845a14.289,14.289,0,0,0-7,12.278v13.048a5.488,5.488,0,0,0,5.033,5.5v18.118a5.477,5.477,0,0,0,5.527,5.414,5.559,5.559,0,0,0,3.774-1.482,5.563,5.563,0,0,0,3.775,1.482,5.477,5.477,0,0,0,5.527-5.414V384.5a5.489,5.489,0,0,0,5.033-5.5V365.961A14.3,14.3,0,0,0,515.269,353.7Z" transform="translate(-409.319 -302.695)" fill="#fff" opacity="0.2"/><g transform="translate(86.832 40.379)" opacity="0.2"><path d="M519.11,374.017a2.923,2.923,0,0,1-2.873,2.968H498.453a2.922,2.922,0,0,1-2.872-2.968V360.969a2.9,2.9,0,0,1,2.872-2.949h17.784a2.9,2.9,0,0,1,2.873,2.949Z" transform="translate(-495.581 -338.082)" fill="#335ba9"/><path d="M519.11,362.917a11.765,11.765,0,1,1-11.765-11.733A11.721,11.721,0,0,1,519.11,362.917Z" transform="translate(-495.581 -340.03)" fill="#335ba9"/><path d="M510.554,347.267a4.762,4.762,0,1,1-4.762-4.763A4.761,4.761,0,0,1,510.554,347.267Z" transform="translate(-494.028 -342.504)" fill="#335ba9"/><g transform="translate(5.033 34.808)"><path d="M502.455,369.592a2.9,2.9,0,0,0-2.957,2.844v21.9a2.959,2.959,0,0,0,5.914,0v-21.9A2.9,2.9,0,0,0,502.455,369.592Z" transform="translate(-499.498 -369.592)" fill="#335ba9"/><path d="M508.33,369.592a2.9,2.9,0,0,0-2.957,2.844v21.9a2.959,2.959,0,0,0,5.914,0v-21.9A2.9,2.9,0,0,0,508.33,369.592Z" transform="translate(-497.824 -369.592)" fill="#335ba9"/></g><rect width="7.808" height="3.747" transform="translate(7.86 37.822)" fill="#335ba9"/></g><path d="M449.673,353.683v-5.845a7.332,7.332,0,1,0-14.664,0v5.845a14.289,14.289,0,0,0-7,12.278v13.048a5.488,5.488,0,0,0,5.033,5.5v18.118a5.476,5.476,0,0,0,5.527,5.414,5.559,5.559,0,0,0,3.774-1.482,5.563,5.563,0,0,0,3.775,1.482,5.476,5.476,0,0,0,5.525-5.414V384.5a5.488,5.488,0,0,0,5.033-5.5V365.961A14.289,14.289,0,0,0,449.673,353.683Z" transform="translate(-428.007 -302.695)" fill="#fff" opacity="0.2"/><g transform="translate(2.57 40.379)" opacity="0.2"><path d="M453.535,374.017a2.922,2.922,0,0,1-2.872,2.968H432.879a2.922,2.922,0,0,1-2.872-2.968V360.969a2.9,2.9,0,0,1,2.872-2.949h17.784a2.9,2.9,0,0,1,2.872,2.949Z" transform="translate(-430.007 -338.082)" fill="#335ba9"/><path d="M453.535,362.917a11.764,11.764,0,1,1-11.764-11.733A11.72,11.72,0,0,1,453.535,362.917Z" transform="translate(-430.007 -340.03)" fill="#335ba9"/><path d="M444.98,347.267a4.762,4.762,0,1,1-4.762-4.763A4.761,4.761,0,0,1,444.98,347.267Z" transform="translate(-428.454 -342.504)" fill="#335ba9"/><g transform="translate(5.033 34.808)"><path d="M436.881,369.592a2.9,2.9,0,0,0-2.957,2.844v21.9a2.958,2.958,0,0,0,5.912,0v-21.9A2.9,2.9,0,0,0,436.881,369.592Z" transform="translate(-433.924 -369.592)" fill="#335ba9"/><path d="M442.756,369.592a2.9,2.9,0,0,0-2.957,2.844v21.9a2.958,2.958,0,0,0,5.912,0v-21.9A2.9,2.9,0,0,0,442.756,369.592Z" transform="translate(-432.25 -369.592)" fill="#335ba9"/></g><rect width="7.808" height="3.747" transform="translate(7.86 37.822)" fill="#335ba9"/></g><g transform="translate(21.065 50.401)" opacity="0.2"><path d="M466.067,363.482v-5.845a7.332,7.332,0,1,0-14.664,0v5.845a14.289,14.289,0,0,0-7,12.277v13.049a5.489,5.489,0,0,0,5.033,5.5v18.118a5.476,5.476,0,0,0,5.527,5.412,5.561,5.561,0,0,0,3.775-1.48,5.556,5.556,0,0,0,3.774,1.48,5.476,5.476,0,0,0,5.527-5.412V394.3a5.489,5.489,0,0,0,5.033-5.5V375.759A14.291,14.291,0,0,0,466.067,363.482Z" transform="translate(-444.4 -350.303)" fill="#fff"/><rect width="12.948" height="8.887" transform="translate(7.861 37.821)" fill="#fff"/></g><g transform="translate(23.635 52.971)" opacity="0.2"><path d="M469.929,383.816a2.922,2.922,0,0,1-2.872,2.968H449.273a2.923,2.923,0,0,1-2.873-2.968V370.767a2.9,2.9,0,0,1,2.873-2.949h17.784a2.9,2.9,0,0,1,2.872,2.949Z" transform="translate(-446.4 -347.882)" fill="#335ba9"/><path d="M469.929,372.715a11.765,11.765,0,1,1-11.764-11.733A11.722,11.722,0,0,1,469.929,372.715Z" transform="translate(-446.4 -349.83)" fill="#335ba9"/><path d="M461.374,357.066a4.762,4.762,0,1,1-4.762-4.763A4.761,4.761,0,0,1,461.374,357.066Z" transform="translate(-444.847 -352.303)" fill="#335ba9"/><g transform="translate(5.033 34.808)"><path d="M453.274,379.391a2.9,2.9,0,0,0-2.957,2.842v21.9a2.959,2.959,0,0,0,5.914,0v-21.9A2.9,2.9,0,0,0,453.274,379.391Z" transform="translate(-450.317 -379.391)" fill="#335ba9"/><path d="M459.149,379.391a2.9,2.9,0,0,0-2.957,2.842v21.9a2.959,2.959,0,0,0,5.914,0v-21.9A2.9,2.9,0,0,0,459.149,379.391Z" transform="translate(-448.643 -379.391)" fill="#335ba9"/></g><rect width="7.808" height="3.747" transform="translate(7.861 37.821)" fill="#335ba9"/></g><path d="M498.875,363.493v-5.857a7.342,7.342,0,0,0-14.685,0v5.845a14.289,14.289,0,0,0-7,12.277v13.049a5.489,5.489,0,0,0,5.033,5.5v18.118a5.476,5.476,0,0,0,5.527,5.412,5.561,5.561,0,0,0,3.775-1.48,5.558,5.558,0,0,0,3.774,1.48,5.476,5.476,0,0,0,5.527-5.412V394.3a5.488,5.488,0,0,0,5.033-5.5V375.759A14.3,14.3,0,0,0,498.875,363.493Z" transform="translate(-413.991 -299.902)" fill="#fff" opacity="0.2"/><g transform="translate(65.766 52.971)" opacity="0.2"><path d="M502.716,383.816a2.922,2.922,0,0,1-2.872,2.968H482.06a2.922,2.922,0,0,1-2.873-2.968V370.767a2.9,2.9,0,0,1,2.873-2.949h17.784a2.9,2.9,0,0,1,2.872,2.949Z" transform="translate(-479.187 -347.882)" fill="#335ba9"/><path d="M502.716,372.715a11.765,11.765,0,1,1-11.764-11.733A11.722,11.722,0,0,1,502.716,372.715Z" transform="translate(-479.187 -349.83)" fill="#335ba9"/><path d="M494.161,357.066A4.762,4.762,0,1,1,489.4,352.3,4.761,4.761,0,0,1,494.161,357.066Z" transform="translate(-477.634 -352.303)" fill="#335ba9"/><g transform="translate(5.033 34.808)"><path d="M486.061,379.391a2.9,2.9,0,0,0-2.957,2.842v21.9a2.959,2.959,0,0,0,5.914,0v-21.9A2.9,2.9,0,0,0,486.061,379.391Z" transform="translate(-483.104 -379.391)" fill="#335ba9"/><path d="M491.936,379.391a2.9,2.9,0,0,0-2.957,2.842v21.9a2.959,2.959,0,0,0,5.913,0v-21.9A2.9,2.9,0,0,0,491.936,379.391Z" transform="translate(-481.43 -379.391)" fill="#335ba9"/></g><rect width="7.808" height="3.747" transform="translate(7.861 37.821)" fill="#335ba9"/></g><g transform="translate(42.131 63.027)"><path d="M482.46,373.308v-5.845a7.332,7.332,0,1,0-14.664,0v5.845a14.289,14.289,0,0,0-7,12.278v13.048a5.488,5.488,0,0,0,5.033,5.5v18.118a5.477,5.477,0,0,0,5.527,5.414,5.559,5.559,0,0,0,3.774-1.482,5.563,5.563,0,0,0,3.775,1.482,5.476,5.476,0,0,0,5.525-5.414V404.129a5.488,5.488,0,0,0,5.033-5.5V385.586A14.289,14.289,0,0,0,482.46,373.308Z" transform="translate(-460.794 -360.129)" fill="#fff"/><rect width="12.948" height="8.887" transform="translate(7.86 37.822)" fill="#fff"/></g><g transform="translate(44.701 65.597)"><path d="M486.322,393.642a2.922,2.922,0,0,1-2.872,2.968H465.666a2.922,2.922,0,0,1-2.872-2.968V380.594a2.9,2.9,0,0,1,2.872-2.949H483.45a2.9,2.9,0,0,1,2.872,2.949Z" transform="translate(-462.794 -357.707)" fill="#335ba9"/><path d="M486.322,382.542a11.764,11.764,0,1,1-11.764-11.733A11.72,11.72,0,0,1,486.322,382.542Z" transform="translate(-462.794 -359.655)" fill="#335ba9"/><path d="M477.767,366.892a4.762,4.762,0,1,1-4.762-4.763A4.761,4.761,0,0,1,477.767,366.892Z" transform="translate(-461.241 -362.129)" fill="#335ba9"/><g transform="translate(5.033 34.808)"><path d="M469.668,389.217a2.9,2.9,0,0,0-2.957,2.844v21.9a2.958,2.958,0,0,0,5.912,0v-21.9A2.9,2.9,0,0,0,469.668,389.217Z" transform="translate(-466.711 -389.217)" fill="#335ba9"/><path d="M475.543,389.217a2.9,2.9,0,0,0-2.957,2.844v21.9a2.958,2.958,0,0,0,5.912,0v-21.9A2.9,2.9,0,0,0,475.543,389.217Z" transform="translate(-465.037 -389.217)" fill="#335ba9"/></g><rect width="7.808" height="3.747" transform="translate(7.86 37.822)" fill="#335ba9"/></g></svg>