<svg xmlns="http://www.w3.org/2000/svg" width="191.418" height="197.912" viewBox="0 0 191.418 197.912"><g transform="translate(0 0.001)"><path d="M47.867,147.457a87.757,87.757,0,1,1,78.257,96.324,87.757,87.757,0,0,1-78.257-96.324" transform="translate(-39.738 -49.385)" fill="#c2b1fb"/><g transform="translate(79.901 -0.001)"><path d="M105.478,149.27H9.174a5.372,5.372,0,0,1-5.356-5.356V9.174A5.372,5.372,0,0,1,9.174,3.818h96.3a5.371,5.371,0,0,1,5.356,5.356v134.74a5.371,5.371,0,0,1-5.356,5.356" transform="translate(-1.567 -1.567)" fill="#fff"/><path d="M103.911,149.954H7.607A7.616,7.616,0,0,1,0,142.347V7.607A7.615,7.615,0,0,1,7.607,0h96.3a7.615,7.615,0,0,1,7.607,7.607v134.74a7.616,7.616,0,0,1-7.607,7.607M7.607,4.5a3.108,3.108,0,0,0-3.1,3.1v134.74a3.109,3.109,0,0,0,3.1,3.1h96.3a3.109,3.109,0,0,0,3.1-3.1V7.607a3.108,3.108,0,0,0-3.1-3.1Z" transform="translate(0)" fill="#111"/><path d="M36.538,157.4a2.245,2.245,0,0,1-1.578-.645l-4.9-4.817a2.251,2.251,0,0,1,3.155-3.211l3.355,3.3,9.937-9.378a2.251,2.251,0,1,1,3.089,3.274L38.083,156.786a2.246,2.246,0,0,1-1.544.614" transform="translate(-12.063 -58.306)" fill="#111"/><path d="M124.725,152.343h0Z" transform="translate(-35.354 -62.538)" fill="#fff"/><path d="M123.158,153.026h-38.6a2.251,2.251,0,0,1,0-4.5h38.6a2.251,2.251,0,0,1,0,4.5" transform="translate(-33.787 -60.971)" fill="#111"/><path d="M36.538,127.757a2.245,2.245,0,0,1-1.578-.645l-4.9-4.817a2.251,2.251,0,0,1,3.155-3.211l3.355,3.3L46.507,113a2.25,2.25,0,1,1,3.089,3.273L38.083,127.143a2.244,2.244,0,0,1-1.544.614" transform="translate(-12.063 -46.137)" fill="#111"/><path d="M114.656,122.7h0Z" transform="translate(-35.354 -50.37)" fill="#fff"/><path d="M113.088,123.385H84.556a2.251,2.251,0,0,1,0-4.5h28.533a2.251,2.251,0,0,1,0,4.5" transform="translate(-33.787 -48.803)" fill="#111"/><path d="M35.128,53.891a16.775,16.775,0,0,1,33.549,0Z" transform="translate(-14.42 -15.236)" fill="#fff"/><path d="M67.11,54.574a2.251,2.251,0,0,1-2.251-2.251,14.524,14.524,0,1,0-29.047,0,2.251,2.251,0,0,1-4.5,0,19.025,19.025,0,1,1,38.05,0,2.251,2.251,0,0,1-2.251,2.251" transform="translate(-12.853 -13.669)" fill="#111"/><path d="M68.677,65.572a16.775,16.775,0,1,1-33.549,0Z" transform="translate(-14.42 -26.918)" fill="#fff"/><path d="M50.335,83.03A19.047,19.047,0,0,1,31.31,64.005a2.251,2.251,0,1,1,4.5,0,14.524,14.524,0,0,0,29.047,0,2.251,2.251,0,1,1,4.5,0A19.047,19.047,0,0,1,50.335,83.03" transform="translate(-12.853 -25.351)" fill="#111"/><path d="M36.75,65.572h0Z" transform="translate(-15.086 -26.918)" fill="#fff"/><path d="M66.82,66.256H35.183a2.251,2.251,0,0,1,0-4.5H66.82a2.251,2.251,0,0,1,0,4.5" transform="translate(-13.519 -25.351)" fill="#111"/><path d="M96.07,45.889l-7.123-6.971a10.7,10.7,0,0,1,14.961-15.289l6.539,6.4Z" transform="translate(-35.199 -8.453)" fill="#fff"/><path d="M94.5,46.568a2.241,2.241,0,0,1-1.574-.643L85.8,38.955A12.946,12.946,0,1,1,103.91,20.449l6.539,6.4a2.251,2.251,0,0,1-3.148,3.218l-6.539-6.4A8.445,8.445,0,0,0,88.949,35.738l7.124,6.971A2.25,2.25,0,0,1,94.5,46.568" transform="translate(-33.627 -6.881)" fill="#111"/><path d="M117.637,36.6l6.539,6.4a10.7,10.7,0,1,1-14.961,15.288l-5.953-5.825Z" transform="translate(-42.39 -15.024)" fill="#fff"/><path d="M115.127,62.014a12.9,12.9,0,0,1-9.053-3.688L100.12,52.5a2.251,2.251,0,1,1,3.148-3.217l5.953,5.825a8.445,8.445,0,1,0,11.813-12.072l-6.538-6.4a2.25,2.25,0,1,1,3.148-3.217l6.539,6.4a12.94,12.94,0,0,1-9.056,22.193" transform="translate(-40.822 -13.457)" fill="#111"/><path d="M117.24,37,102.864,51.7Z" transform="translate(-42.227 -15.19)" fill="#fff"/><path d="M101.3,52.379a2.251,2.251,0,0,1-1.608-3.825l14.376-14.691a2.251,2.251,0,0,1,3.217,3.149L102.905,51.7a2.249,2.249,0,0,1-1.609.676" transform="translate(-40.659 -13.623)" fill="#111"/><path d="M125.7,57.74h9.148a10.7,10.7,0,0,1,0,21.391H125.7Z" transform="translate(-51.602 -23.703)" fill="#fff"/><path d="M133.283,79.815h-9.148a2.251,2.251,0,0,1,0-4.5h9.148a8.445,8.445,0,1,0,0-16.889h-9.148a2.251,2.251,0,0,1,0-4.5h9.148a12.947,12.947,0,0,1,0,25.893" transform="translate(-50.035 -22.136)" fill="#111"/><path d="M111.883,79.132h-9.148a10.7,10.7,0,0,1,0-21.391h9.148Z" transform="translate(-37.783 -23.703)" fill="#fff"/><path d="M110.316,79.815h-9.148a12.947,12.947,0,0,1,0-25.893h9.148a2.251,2.251,0,0,1,0,4.5h-9.148a8.445,8.445,0,1,0,0,16.889h9.148a2.251,2.251,0,0,1,0,4.5" transform="translate(-36.216 -22.136)" fill="#111"/><path d="M125.7,58.307v0Z" transform="translate(-51.602 -23.936)" fill="#fff"/><path d="M124.135,79.546a2.251,2.251,0,0,1-2.251-2.251V56.74a2.251,2.251,0,1,1,4.5,0V77.3a2.251,2.251,0,0,1-2.251,2.251" transform="translate(-50.035 -22.368)" fill="#111"/><path d="M36.538,187.041a2.245,2.245,0,0,1-1.578-.646l-4.9-4.817a2.251,2.251,0,0,1,3.155-3.211l3.355,3.3,9.937-9.378a2.251,2.251,0,1,1,3.089,3.274L38.083,186.427a2.246,2.246,0,0,1-1.544.614" transform="translate(-12.063 -70.474)" fill="#111"/><path d="M110.782,181.985h0Z" transform="translate(-35.354 -74.707)" fill="#fff"/><path d="M109.215,182.668H84.556a2.251,2.251,0,0,1,0-4.5h24.659a2.251,2.251,0,0,1,0,4.5" transform="translate(-33.787 -73.139)" fill="#111"/><path d="M118.73,211.626h0Z" transform="translate(-35.354 -86.875)" fill="#fff"/></g><rect width="18.492" height="19.359" transform="translate(45.694 163.614)" fill="#fff"/><path d="M79.02,241.458H60.528a2.837,2.837,0,0,1-2.837-2.836v-19.36a2.837,2.837,0,0,1,2.837-2.836H79.02a2.837,2.837,0,0,1,2.837,2.836v19.36a2.837,2.837,0,0,1-2.837,2.836m-15.655-5.673H76.183V222.1H63.364Z" transform="translate(-14.834 -55.648)" fill="#111"/><path d="M120.168,113.11l1.768,3.913a5.081,5.081,0,0,1-2.539,6.721l-6.061,2.738a5.08,5.08,0,0,1-6.721-2.538l-1.734-3.838Z" transform="translate(-26.967 -29.083)" fill="#fff"/><path d="M110.265,128.791a7.936,7.936,0,0,1-7.218-4.662l-1.734-3.838a2.836,2.836,0,1,1,5.17-2.336l1.734,3.838a2.244,2.244,0,0,0,2.968,1.121l6.063-2.738a2.247,2.247,0,0,0,1.121-2.969l-1.768-3.913a2.836,2.836,0,1,1,5.17-2.335l1.768,3.913a7.925,7.925,0,0,1-3.955,10.473l-6.063,2.738a7.891,7.891,0,0,1-3.255.706" transform="translate(-25.985 -28.101)" fill="#111"/><path d="M73.472,49.9l-2.885-6.387A5.08,5.08,0,0,1,73.126,36.8l6.062-2.738A5.08,5.08,0,0,1,85.909,36.6l2.952,6.537Z" transform="translate(-18.033 -8.641)" fill="#fff"/><path d="M72.491,51.76A2.838,2.838,0,0,1,69.9,50.09L67.02,43.7a7.915,7.915,0,0,1,3.956-10.473l6.061-2.738a7.925,7.925,0,0,1,10.473,3.956l2.952,6.536a2.836,2.836,0,0,1-5.17,2.336l-2.952-6.537a2.248,2.248,0,0,0-2.969-1.121L73.311,38.4a2.241,2.241,0,0,0-1.121,2.968l2.884,6.387a2.837,2.837,0,0,1-2.583,4" transform="translate(-17.051 -7.66)" fill="#111"/><path d="M105.079,144.723a51.033,51.033,0,1,1-50.23-60.066q2.119,0,4.2.171l5.849,13.517A38.668,38.668,0,1,0,92.426,144.82Z" transform="translate(-0.982 -21.767)" fill="#fff"/><path d="M53.868,188.573a53.867,53.867,0,1,1,0-107.734c1.472,0,2.962.061,4.428.181a2.836,2.836,0,0,1,2.371,1.7l5.849,13.517a2.836,2.836,0,0,1-3.34,3.865,35.831,35.831,0,1,0,25.513,43.066,2.836,2.836,0,1,1,5.512,1.34A41.494,41.494,0,1,1,59.169,93.542L56.15,86.566c-.761-.036-1.524-.053-2.283-.053a48.194,48.194,0,1,0,47.438,56.728,2.836,2.836,0,1,1,5.583,1,53.808,53.808,0,0,1-53.021,44.331" transform="translate(0 -20.785)" fill="#111"/><path d="M39.667,258.521v-4.276a7.492,7.492,0,0,1,7.492-7.492H82.608a7.492,7.492,0,0,1,7.492,7.492v4.276Z" transform="translate(-10.199 -63.446)" fill="#fff"/><path d="M89.119,260.375a2.837,2.837,0,0,1-2.836-2.836v-4.276a4.661,4.661,0,0,0-4.656-4.656H46.177a4.66,4.66,0,0,0-4.655,4.656v4.276a2.837,2.837,0,0,1-5.673,0v-4.276a10.341,10.341,0,0,1,10.328-10.329H81.627a10.341,10.341,0,0,1,10.328,10.329v4.276a2.837,2.837,0,0,1-2.836,2.836" transform="translate(-9.218 -62.464)" fill="#111"/><path d="M17.037,262.594h0Z" transform="translate(-4.381 -67.519)" fill="#fff"/><path d="M100.111,264.448H16.055a2.837,2.837,0,1,1,0-5.673h84.056a2.837,2.837,0,0,1,0,5.673" transform="translate(-3.399 -66.537)" fill="#111"/><path d="M147.256,165.286h0Z" transform="translate(-25.328 -42.499)" fill="#fff"/><path d="M146.274,167.14H97.522a2.837,2.837,0,0,1,0-5.673h48.752a2.837,2.837,0,0,1,0,5.673" transform="translate(-24.346 -41.517)" fill="#111"/><path d="M111.807,94.934l-17.321,7.823a5.627,5.627,0,0,1-7.444-2.812L69.53,61.175a5.627,5.627,0,0,1,2.813-7.444l17.32-7.823a5.627,5.627,0,0,1,7.445,2.812l17.511,38.77a5.627,5.627,0,0,1-2.812,7.444" transform="translate(-17.749 -11.675)" fill="#fff"/><path d="M91.2,105.11a8.477,8.477,0,0,1-7.726-4.98L65.964,61.36a8.473,8.473,0,0,1,4.228-11.2l17.322-7.823a8.464,8.464,0,0,1,11.2,4.229l17.512,38.77a8.474,8.474,0,0,1-4.23,11.2l-17.321,7.823a8.412,8.412,0,0,1-3.471.75M91,47.26a2.782,2.782,0,0,0-1.147.249L72.528,55.332a2.8,2.8,0,0,0-1.394,3.693L88.645,97.795a2.8,2.8,0,0,0,3.692,1.4l17.321-7.823h0a2.794,2.794,0,0,0,1.4-3.692L93.541,48.9A2.8,2.8,0,0,0,91,47.26" transform="translate(-16.768 -10.692)" fill="#111"/><path d="M172.389,68.522h0Z" transform="translate(-34.438 -17.619)" fill="#fff"/><path d="M172.389,141.852h0Z" transform="translate(-34.438 -36.473)" fill="#fff"/></g></svg>