<svg xmlns="http://www.w3.org/2000/svg" xmlns:xlink="http://www.w3.org/1999/xlink" width="144" height="144" viewBox="0 0 144 144"><defs><linearGradient id="a" x1="0.5" x2="0.5" y2="1" gradientUnits="objectBoundingBox"><stop offset="0" stop-color="#8906ce"/><stop offset="1" stop-color="#335ba9"/></linearGradient></defs><g transform="translate(-3643 -3061)"><path d="M72,0A72,72,0,1,1,0,72,72,72,0,0,1,72,0Z" transform="translate(3643 3061)" fill="url(#a)"/><g transform="translate(-1274 -53.869)"><path d="M0,43.5A1.5,1.5,0,0,1-1.5,42V0A1.5,1.5,0,0,1,0-1.5,1.5,1.5,0,0,1,1.5,0V42A1.5,1.5,0,0,1,0,43.5Z" transform="translate(4971.3 3165.869)" fill="#fff"/><path d="M122.827,228.722H115a1.5,1.5,0,0,1,0-3h7.827a3.366,3.366,0,0,0,3.431-3.289V173a1.5,1.5,0,0,1,3,0v49.433A6.368,6.368,0,0,1,122.827,228.722Z" transform="translate(4885.464 2993.137)" fill="#fff"/><path d="M2-1.5H52A3.5,3.5,0,0,1,55.5,2v9A3.5,3.5,0,0,1,52,14.5H2A3.5,3.5,0,0,1-1.5,11V2A3.5,3.5,0,0,1,2-1.5Zm50,13a.5.5,0,0,0,.5-.5V2a.5.5,0,0,0-.5-.5H2a.5.5,0,0,0-.5.5v9a.5.5,0,0,0,.5.5Z" transform="translate(4965.3 3146.869)" fill="#fff"/><path d="M132.285,203.891H103.58a1.5,1.5,0,0,1-1.5-1.5V176.875a1.5,1.5,0,0,1,1.5-1.5h28.706a1.5,1.5,0,0,1,0,3H105.08v22.516h27.206a1.5,1.5,0,0,1,0,3Z" transform="translate(4878.671 2995.442)" fill="#fff"/><path d="M97.959,197.5H121.5a10.109,10.109,0,0,1,7.43,3.277,11.535,11.535,0,0,1,0,15.583,10.109,10.109,0,0,1-7.43,3.277H97.959a10.109,10.109,0,0,1-7.43-3.277,11.535,11.535,0,0,1,0-15.583A10.109,10.109,0,0,1,97.959,197.5ZM121.5,216.637c4.113,0,7.459-3.62,7.459-8.069s-3.346-8.069-7.459-8.069H97.959c-4.113,0-7.459,3.62-7.459,8.069s3.346,8.069,7.459,8.069Z" transform="translate(4870 3008.601)" fill="#fff"/><path d="M0,15.594a1.5,1.5,0,0,1-1.5-1.5V0A1.5,1.5,0,0,1,0-1.5,1.5,1.5,0,0,1,1.5,0V14.094A1.5,1.5,0,0,1,0,15.594Z" transform="translate(4979.732 3210.122)" fill="#fff"/><path d="M94,207.392a1.5,1.5,0,0,1-1.5-1.5A3.9,3.9,0,0,1,96.392,202h2.392a1.5,1.5,0,1,1,0,3H96.392a.893.893,0,0,0-.892.892A1.5,1.5,0,0,1,94,207.392Z" transform="translate(4872.974 3011.277)" fill="#fff"/></g></g></svg>