<svg xmlns="http://www.w3.org/2000/svg" xmlns:xlink="http://www.w3.org/1999/xlink" width="144" height="144" viewBox="0 0 144 144"><defs><linearGradient id="a" x1="0.5" x2="0.5" y2="1" gradientUnits="objectBoundingBox"><stop offset="0" stop-color="#8906ce"/><stop offset="1" stop-color="#335ba9"/></linearGradient></defs><g transform="translate(-2927 -3442)"><path d="M72,0A72,72,0,1,1,0,72,72,72,0,0,1,72,0Z" transform="translate(2927 3442)" fill="url(#a)"/><g transform="translate(-1919.202 246.999)"><path d="M2.416-1.5H83.585A3.919,3.919,0,0,1,87.5,2.415V69.584A3.92,3.92,0,0,1,83.584,73.5H2.416A3.92,3.92,0,0,1-1.5,69.584V2.416A3.92,3.92,0,0,1,2.416-1.5Zm81.168,72a.917.917,0,0,0,.916-.916V2.415a.916.916,0,0,0-.915-.915H2.416a.917.917,0,0,0-.916.916V69.584a.917.917,0,0,0,.916.916Z" transform="translate(4875.202 3231.001)" fill="#fff"/><path d="M86,1.5H0A1.5,1.5,0,0,1-1.5,0,1.5,1.5,0,0,1,0-1.5H86A1.5,1.5,0,0,1,87.5,0,1.5,1.5,0,0,1,86,1.5Z" transform="translate(4875.202 3249.001)" fill="#fff"/><path d="M4,1.5H0A1.5,1.5,0,0,1-1.5,0,1.5,1.5,0,0,1,0-1.5H4A1.5,1.5,0,0,1,5.5,0,1.5,1.5,0,0,1,4,1.5Z" transform="translate(4936.202 3240.001)" fill="#fff"/><path d="M3,1.5H0A1.5,1.5,0,0,1-1.5,0,1.5,1.5,0,0,1,0-1.5H3A1.5,1.5,0,0,1,4.5,0,1.5,1.5,0,0,1,3,1.5Z" transform="translate(4947.202 3240.001)" fill="#fff"/><path d="M29,1.5H0A1.5,1.5,0,0,1-1.5,0,1.5,1.5,0,0,1,0-1.5H29A1.5,1.5,0,0,1,30.5,0,1.5,1.5,0,0,1,29,1.5Z" transform="translate(4887.202 3280.001)" fill="#fff"/><path d="M18,1.5H0A1.5,1.5,0,0,1-1.5,0,1.5,1.5,0,0,1,0-1.5H18A1.5,1.5,0,0,1,19.5,0,1.5,1.5,0,0,1,18,1.5Z" transform="translate(4887.202 3289.001)" fill="#fff"/><path d="M9,1.5H0A1.5,1.5,0,0,1-1.5,0,1.5,1.5,0,0,1,0-1.5H9A1.5,1.5,0,0,1,10.5,0,1.5,1.5,0,0,1,9,1.5Z" transform="translate(4907.202 3262.001)" fill="#fff"/><path d="M9,1.5H0A1.5,1.5,0,0,1-1.5,0,1.5,1.5,0,0,1,0-1.5H9A1.5,1.5,0,0,1,10.5,0,1.5,1.5,0,0,1,9,1.5Z" transform="translate(4907.202 3271.001)" fill="#fff"/><path d="M42.2,261.5h7.2a1.5,1.5,0,0,1,1.5,1.5v5.7h5.7a1.5,1.5,0,0,1,1.5,1.5v7.2a1.5,1.5,0,0,1-1.5,1.5H50.9v5.7a1.5,1.5,0,0,1-1.5,1.5H42.2a1.5,1.5,0,0,1-1.5-1.5v-5.7H35a1.5,1.5,0,0,1-1.5-1.5v-7.2a1.5,1.5,0,0,1,1.5-1.5h5.7V263A1.5,1.5,0,0,1,42.2,261.5Zm5.7,3H43.7v5.7a1.5,1.5,0,0,1-1.5,1.5H36.5v4.2h5.7a1.5,1.5,0,0,1,1.5,1.5v5.7h4.2v-5.7a1.5,1.5,0,0,1,1.5-1.5h5.7v-4.2H49.4a1.5,1.5,0,0,1-1.5-1.5Z" transform="translate(4894.002 3000.401)" fill="#fff"/><path d="M27.686,189.869a1.5,1.5,0,0,1-1.5-1.5v-2.435a1.027,1.027,0,0,0-1.1-.935H18.6a1.027,1.027,0,0,0-1.1.935v2.435a1.5,1.5,0,0,1-3,0v-2.435A4.023,4.023,0,0,1,18.6,182h6.492a4.023,4.023,0,0,1,4.1,3.935v2.435A1.5,1.5,0,0,1,27.686,189.869Z" transform="translate(4871.601 3085.036)" fill="#fff"/><path d="M21.933,181.2a3.8,3.8,0,0,1-2.806-1.051c-1.186-1.193-1.176-2.963-1.17-4.021,0-.07,0-.138,0-.2a3.977,3.977,0,0,1,7.954,0c0,.065,0,.133,0,.2.006,1.058.016,2.828-1.171,4.021A3.8,3.8,0,0,1,21.933,181.2Zm0-6.2a.951.951,0,0,0-.976.922c0,.071,0,.144,0,.22,0,.553-.009,1.581.3,1.889a1.467,1.467,0,0,0,1.36,0c.307-.308.3-1.336.3-1.889,0-.076,0-.149,0-.22A.953.953,0,0,0,21.933,175Z" transform="translate(4871.51 3083.703)" fill="#fff"/></g></g></svg>