<svg xmlns="http://www.w3.org/2000/svg" xmlns:xlink="http://www.w3.org/1999/xlink" width="74" height="74" viewBox="0 0 74 74"><defs><linearGradient id="a" x1="0.5" x2="0.5" y2="1" gradientUnits="objectBoundingBox"><stop offset="0" stop-color="#be6a82"/><stop offset="1" stop-color="#f3cf39"/></linearGradient></defs><circle cx="37" cy="37" r="37" fill="url(#a)"/><g transform="translate(71.945 109.192) rotate(180)"><path d="M17.081,61.548a2.552,2.552,0,0,1,3.609,0L33.325,74.183,45.96,61.548a2.552,2.552,0,1,1,3.61,3.61L35.13,79.6a2.553,2.553,0,0,1-3.609,0l-14.44-14.44A2.552,2.552,0,0,1,17.081,61.548Z" transform="translate(1.618 1.62)" fill="#fff"/><path d="M49.383,60.3a4.673,4.673,0,0,1,3.3,7.977l-14.44,14.44a4.673,4.673,0,0,1-6.607,0L17.2,68.276a4.672,4.672,0,0,1,6.607-6.608L34.944,72.805,46.08,61.669A4.641,4.641,0,0,1,49.383,60.3ZM34.944,79.844a.424.424,0,0,0,.306-.127l14.44-14.439a.432.432,0,1,0-.611-.612L34.944,78.8,20.809,64.667a.432.432,0,0,0-.611,0,.433.433,0,0,0,0,.611l14.44,14.44A.424.424,0,0,0,34.944,79.844Z" transform="translate(0 0)" fill="#fff"/></g></svg>