<svg xmlns="http://www.w3.org/2000/svg" xmlns:xlink="http://www.w3.org/1999/xlink" width="144" height="144" viewBox="0 0 144 144"><defs><linearGradient id="a" x1="0.5" x2="0.5" y2="1" gradientUnits="objectBoundingBox"><stop offset="0" stop-color="#8906ce"/><stop offset="1" stop-color="#335ba9"/></linearGradient></defs><g transform="translate(-3257 -3061)"><path d="M72,0A72,72,0,1,1,0,72,72,72,0,0,1,72,0Z" transform="translate(3257 3061)" fill="url(#a)"/><g transform="translate(-1743 111)"><path d="M205.54,12.7a1.5,1.5,0,0,1-1.5-1.5V3.535a.219.219,0,0,0-.127-.035H182.627a.219.219,0,0,0-.127.035V11.2a1.5,1.5,0,0,1-3,0V3.494A3.066,3.066,0,0,1,182.627.5h21.285a3.066,3.066,0,0,1,3.127,2.994V11.2A1.5,1.5,0,0,1,205.54,12.7Z" transform="translate(4879.074 2986)" fill="#fff"/><path d="M230.417,57.107H172.135A7.63,7.63,0,0,1,164.5,49.5V28a1.5,1.5,0,0,1,3,0V49.5a4.626,4.626,0,0,0,4.635,4.607h58.282a4.626,4.626,0,0,0,4.635-4.607V28a1.5,1.5,0,0,1,3,0V49.5A7.63,7.63,0,0,1,230.417,57.107Z" transform="translate(4871.067 2999.877)" fill="#fff"/><path d="M189.135,20.5h6.135a1.5,1.5,0,0,1,1.5,1.5v4.635H201.4a1.5,1.5,0,0,1,1.5,1.5V34.27a1.5,1.5,0,0,1-1.5,1.5H196.77V40.4a1.5,1.5,0,0,1-1.5,1.5h-6.135a1.5,1.5,0,0,1-1.5-1.5V35.77H183a1.5,1.5,0,0,1-1.5-1.5V28.135a1.5,1.5,0,0,1,1.5-1.5h4.635V22A1.5,1.5,0,0,1,189.135,20.5Zm4.635,3h-3.135v4.635a1.5,1.5,0,0,1-1.5,1.5H184.5V32.77h4.635a1.5,1.5,0,0,1,1.5,1.5V38.9h3.135V34.27a1.5,1.5,0,0,1,1.5-1.5H199.9V29.635H195.27a1.5,1.5,0,0,1-1.5-1.5Z" transform="translate(4880.141 2996.675)" fill="#fff"/><path d="M17-1.5A18.495,18.495,0,0,1,30.081,30.081,18.5,18.5,0,1,1,9.8-.046,18.385,18.385,0,0,1,17-1.5Zm0,34A15.5,15.5,0,1,0,1.5,17,15.518,15.518,0,0,0,17,32.5Z" transform="translate(5055.343 3010.742)" fill="#fff"/><path d="M237.619,34.04h-13.8a1.5,1.5,0,1,1,0-3h13.8a1.671,1.671,0,0,0,1.567-1.755V14.509A4.838,4.838,0,0,0,234.552,9.5H170.135a4.838,4.838,0,0,0-4.635,5.009V29.285a1.671,1.671,0,0,0,1.567,1.755h13.8a1.5,1.5,0,0,1,0,3h-13.8a4.669,4.669,0,0,1-4.567-4.755V14.509A7.838,7.838,0,0,1,170.135,6.5h64.417a7.838,7.838,0,0,1,7.635,8.009V29.285A4.669,4.669,0,0,1,237.619,34.04Z" transform="translate(4870 2989.202)" fill="#fff"/></g></g></svg>