<svg xmlns="http://www.w3.org/2000/svg" xmlns:xlink="http://www.w3.org/1999/xlink" width="75.459" height="79.85" viewBox="0 0 75.459 79.85"><defs><clipPath id="a"><rect width="75.459" height="79.849" fill="#fff"/></clipPath></defs><g clip-path="url(#a)"><path d="M75.459,209.815a6.817,6.817,0,0,0-2.06-4.928,7.037,7.037,0,0,0-9.884.064l-8.923,8.923a7.028,7.028,0,0,0-11.786-3.252l-.02.02A7.028,7.028,0,0,0,31,207.39l-.02.02a7.028,7.028,0,0,0-11.786-3.252l-.412.412L8.147,215.2A27.84,27.84,0,0,0,4.8,250.519c.041.069.084.136.134.2a28.17,28.17,0,0,0,7.97,7.669l.138.087a24.5,24.5,0,0,0,19.2,2.787l27.4-7.228A7.319,7.319,0,0,0,62.932,241.8a7.345,7.345,0,0,0-7.074-1.9l-10.111,2.711,27.585-27.585a7.351,7.351,0,0,0,2.126-5.217M70.9,212.6,38.78,244.723a1.718,1.718,0,0,0,1.66,2.875l16.307-4.373a3.9,3.9,0,0,1,3.754,1.008,3.881,3.881,0,0,1-1.745,6.482l-27.394,7.226a21.061,21.061,0,0,1-16.507-2.383l-.09-.057a24.812,24.812,0,0,1-7.024-6.761l0,0c-.022-.037-.048-.079-.066-.107a24.4,24.4,0,0,1,2.905-31L21.213,207l.412-.412a3.6,3.6,0,0,1,5.088,5.089l-1.7,1.7a1.719,1.719,0,1,0,2.43,2.431l1.7-1.7,4.287-4.287a3.6,3.6,0,0,1,5.088,5.088l-5.984,5.984a1.719,1.719,0,0,0,2.43,2.431l5.984-5.984,4.287-4.287a3.6,3.6,0,0,1,5.088,5.088L40.054,228.412a1.719,1.719,0,1,0,2.431,2.431l10.271-10.271,13.19-13.19A3.6,3.6,0,0,1,71,207.347a3.508,3.508,0,0,1,1.022,2.49A3.892,3.892,0,0,1,70.9,212.6" transform="translate(0 -182.248)" fill="#fff"/><path d="M337.681,10.6h21.2l-3.378,3.378a1.949,1.949,0,0,0,2.756,2.756l6.858-6.858a1.949,1.949,0,0,0,0-2.756L358.57.571a1.949,1.949,0,1,0-2.756,2.756L359.191,6.7h-21.51a1.949,1.949,0,1,0,0,3.9" transform="translate(-302.757 0)" fill="#fff"/></g></svg>