<svg xmlns="http://www.w3.org/2000/svg" xmlns:xlink="http://www.w3.org/1999/xlink" width="144" height="144" viewBox="0 0 144 144"><defs><linearGradient id="a" x1="0.5" x2="0.5" y2="1" gradientUnits="objectBoundingBox"><stop offset="0" stop-color="#8906ce"/><stop offset="1" stop-color="#335ba9"/></linearGradient></defs><g transform="translate(-2547 -3442)"><path d="M72,0A72,72,0,1,1,0,72,72,72,0,0,1,72,0Z" transform="translate(2547 3442)" fill="url(#a)"/><g transform="translate(-2293 333)"><path d="M1,207.1a1.5,1.5,0,0,1-1.148-2.464l9.728-11.6a1.5,1.5,0,0,1,1.149-.536H72.45a1.5,1.5,0,0,1,1.149.536l9.727,11.6a1.5,1.5,0,0,1-2.3,1.928L71.75,195.5H11.428L2.149,206.561A1.5,1.5,0,0,1,1,207.1Z" transform="translate(4870 3000.386)" fill="#fff"/><path d="M78.5,212.2H4.67a5.176,5.176,0,0,1-5.17-5.17V202a1.5,1.5,0,0,1,3,0v5.027a2.173,2.173,0,0,0,2.17,2.17H78.5a2.174,2.174,0,0,0,2.172-2.172V202a1.5,1.5,0,1,1,3,0v5.026A5.178,5.178,0,0,1,78.5,212.2Z" transform="translate(4870 3003.983)" fill="#fff"/><path d="M0,13.5A1.5,1.5,0,0,1-1.5,12V0A1.5,1.5,0,0,1,0-1.5,1.5,1.5,0,0,1,1.5,0V12A1.5,1.5,0,0,1,0,13.5Z" transform="translate(4941.588 3182.34)" fill="#fff"/><path d="M8,208.088a1.5,1.5,0,0,1-1.5-1.5V169.936a5.442,5.442,0,0,1,5.436-5.436H39.891a1.5,1.5,0,0,1,0,3H11.936A2.438,2.438,0,0,0,9.5,169.936v36.653A1.5,1.5,0,0,1,8,208.088Z" transform="translate(4873.147 2987.798)" fill="#fff"/><path d="M8,1.5H0A1.5,1.5,0,0,1-1.5,0,1.5,1.5,0,0,1,0-1.5H8A1.5,1.5,0,0,1,9.5,0,1.5,1.5,0,0,1,8,1.5Z" transform="translate(4907.588 3207.34)" fill="#fff"/><path d="M39.8,160.5H57.193a7.307,7.307,0,0,1,7.3,7.3v17.395a7.307,7.307,0,0,1-7.3,7.3H47.668l-5.359,5.359a1.5,1.5,0,0,1-2.561-1.061v-4.3a7.306,7.306,0,0,1-7.248-7.3V167.8A7.307,7.307,0,0,1,39.8,160.5Zm17.395,28.992a4.3,4.3,0,0,0,4.3-4.3V167.8a4.3,4.3,0,0,0-4.3-4.3H39.8a4.3,4.3,0,0,0-4.3,4.3v17.395a4.3,4.3,0,0,0,4.3,4.3h1.45a1.5,1.5,0,0,1,1.5,1.5v2.177l3.238-3.238a1.5,1.5,0,0,1,1.061-.439Z" transform="translate(4884.836 2986)" fill="#fff"/><path d="M43.349,165.5h5.8a1.5,1.5,0,0,1,1.5,1.5v2.849H53.5a1.5,1.5,0,0,1,1.5,1.5v5.8a1.5,1.5,0,0,1-1.5,1.5H50.647V181.5a1.5,1.5,0,0,1-1.5,1.5h-5.8a1.5,1.5,0,0,1-1.5-1.5v-2.849H39a1.5,1.5,0,0,1-1.5-1.5v-5.8a1.5,1.5,0,0,1,1.5-1.5h2.849V167A1.5,1.5,0,0,1,43.349,165.5Zm4.3,3h-2.8v2.849a1.5,1.5,0,0,1-1.5,1.5H40.5v2.8h2.849a1.5,1.5,0,0,1,1.5,1.5V180h2.8v-2.849a1.5,1.5,0,0,1,1.5-1.5H52v-2.8H49.147a1.5,1.5,0,0,1-1.5-1.5Z" transform="translate(4887.084 2988.248)" fill="#fff"/><path d="M33.395,192.248a1.5,1.5,0,0,1-1.5-1.5v-3.624A2.257,2.257,0,0,0,29.529,185H19.866a2.257,2.257,0,0,0-2.366,2.124v3.624a1.5,1.5,0,0,1-3,0v-3.624A5.255,5.255,0,0,1,19.866,182h9.663a5.255,5.255,0,0,1,5.366,5.124v3.624A1.5,1.5,0,0,1,33.395,192.248Z" transform="translate(4876.744 2995.666)" fill="#fff"/><path d="M23.143,184.225a4.947,4.947,0,0,1-3.657-1.349c-1.551-1.559-1.538-3.91-1.529-5.465,0-.106,0-.208,0-.306a5.188,5.188,0,0,1,10.374,0c0,.1,0,.2,0,.306.009,1.555.022,3.9-1.529,5.464A4.953,4.953,0,0,1,23.143,184.225Zm0-9.225a2.149,2.149,0,0,0-2.185,2.105c0,.1,0,.212,0,.323-.006,1.058-.015,2.658.656,3.333a1.928,1.928,0,0,0,1.53.464,1.933,1.933,0,0,0,1.534-.465c.671-.675.662-2.274.656-3.332,0-.111,0-.219,0-.323A2.151,2.151,0,0,0,23.143,175Z" transform="translate(4878.297 2991.17)" fill="#fff"/></g></g></svg>