<svg xmlns="http://www.w3.org/2000/svg" width="206.064" height="212.011" viewBox="0 0 206.064 212.011"><path d="M47.867,147.457a87.757,87.757,0,1,1,78.257,96.324,87.757,87.757,0,0,1-78.257-96.324" transform="translate(-23.833 -42.385)" fill="#c2b1fb"/><path d="M74.742,83.682A11.631,11.631,0,1,1,86.373,72.051,11.631,11.631,0,0,1,74.742,83.682" transform="translate(-16.227 -15.535)" fill="#fff"/><path d="M73.76,85.538A14.468,14.468,0,1,1,88.228,71.07,14.484,14.484,0,0,1,73.76,85.538m0-23.262a8.795,8.795,0,1,0,8.794,8.795,8.806,8.806,0,0,0-8.794-8.795" transform="translate(-15.245 -14.554)" fill="#111"/><path d="M38.182,15.342A5.762,5.762,0,1,1,43.944,9.58a5.762,5.762,0,0,1-5.762,5.762" transform="translate(-8.336 -0.982)" fill="#fff"/><path d="M37.2,17.2a8.6,8.6,0,1,1,8.6-8.6,8.608,8.608,0,0,1-8.6,8.6m0-11.524A2.925,2.925,0,1,0,40.127,8.6,2.929,2.929,0,0,0,37.2,5.673" transform="translate(-7.354)" fill="#111"/><path d="M9.581,68.119a5.761,5.761,0,1,1,5.762-5.762,5.762,5.762,0,0,1-5.762,5.762" transform="translate(-0.982 -14.552)" fill="#fff"/><path d="M8.6,69.973a8.6,8.6,0,1,1,8.6-8.6,8.608,8.608,0,0,1-8.6,8.6m0-11.523a2.925,2.925,0,1,0,2.925,2.925A2.929,2.929,0,0,0,8.6,58.45" transform="translate(0 -13.57)" fill="#111"/><path d="M120.591,32.413a6.016,6.016,0,1,1,6.016-6.017,6.017,6.017,0,0,1-6.016,6.017" transform="translate(-29.46 -5.24)" fill="#fff"/><path d="M119.609,34.268a8.853,8.853,0,1,1,8.853-8.853,8.863,8.863,0,0,1-8.853,8.853m0-12.032a3.18,3.18,0,1,0,3.18,3.18,3.183,3.183,0,0,0-3.18-3.18" transform="translate(-28.478 -4.258)" fill="#111"/><path d="M102.935,79a2.836,2.836,0,0,1-2.715-2.023A125.764,125.764,0,0,0,87.893,49.6C78.012,32.955,65.535,19.54,55.33,14.6A2.836,2.836,0,1,1,57.8,9.492C69.124,14.975,82.2,28.888,92.771,46.71a131.421,131.421,0,0,1,12.882,28.641A2.839,2.839,0,0,1,102.935,79" transform="translate(-13.815 -2.367)" fill="#111"/><path d="M92.692,116.478a2.859,2.859,0,0,1-.662-.078,84.128,84.128,0,0,1-9.537-3.174c-11.622-4.582-25.834-19.2-37.076-38.147C35.138,57.758,29.178,39.945,29.473,27.43a2.837,2.837,0,0,1,2.835-2.769h.068a2.837,2.837,0,0,1,2.769,2.9c-.267,11.323,5.537,28.42,15.15,44.62,10.47,17.643,23.931,31.684,34.293,35.77a80.183,80.183,0,0,0,8.761,2.928,2.837,2.837,0,0,1-.657,5.6" transform="translate(-7.576 -6.341)" fill="#111"/><path d="M43.585,110.349A11.629,11.629,0,0,1,37.8,108.9c-6.008-3.373-8.292-12.036-6.43-24.392,1.723-11.438,6.768-25.031,14.205-38.275C61.891,17.177,83.156.3,95.036,6.971A11.206,11.206,0,0,1,97.8,9.17a2.836,2.836,0,1,1-4.174,3.841,5.577,5.577,0,0,0-1.369-1.093C84.739,7.694,65.75,21.89,50.522,49.009,43.413,61.67,38.6,74.577,36.979,85.352c-1.441,9.572-.1,16.526,3.6,18.6s10.333-.4,17.756-6.611c8.355-6.995,16.872-17.82,23.982-30.481C88.653,55.574,93.26,43.811,95.288,33.739a2.836,2.836,0,1,1,5.561,1.12C98.708,45.5,93.882,57.848,87.261,69.64c-7.437,13.244-16.418,24.627-25.286,32.053-6.826,5.714-13.146,8.657-18.389,8.657" transform="translate(-7.904 -1.419)" fill="#111"/><path d="M57,99.238c-14.51,0-28.148-2.074-38.577-5.884C6.684,89.068.176,82.913.093,76.023a2.837,2.837,0,0,1,2.8-2.87h.035a2.836,2.836,0,0,1,2.836,2.8c.051,4.237,5.508,8.75,14.6,12.07,10.237,3.738,23.882,5.7,38.388,5.529a125.914,125.914,0,0,0,29.671-3.694,2.836,2.836,0,0,1,1.429,5.49,131.661,131.661,0,0,1-31.032,3.876c-.609.007-1.219.011-1.825.011" transform="translate(-0.024 -18.809)" fill="#111"/><path d="M116.242,63a2.828,2.828,0,0,1-2.053-.878C106.881,54.462,86.107,49.3,63.657,49.571c-14.882.178-28.7,2.56-38.907,6.708a2.836,2.836,0,1,1-2.136-5.255c10.849-4.409,25.4-6.94,40.975-7.126,24.648-.294,46.13,5.319,54.7,14.3a2.837,2.837,0,0,1-2.051,4.8" transform="translate(-5.359 -11.284)" fill="#111"/><path d="M141.716,135.084l-7.085,6.273a3.647,3.647,0,0,1-5.154-.2l-10.311-11.141a3.647,3.647,0,0,1,.2-5.154l6.886-6.373Z" transform="translate(-30.391 -30.466)" fill="#fff"/><path d="M131.191,144.186a6.5,6.5,0,0,1-4.777-2.082L116.1,130.962a6.493,6.493,0,0,1,.354-9.163l6.886-6.373a2.837,2.837,0,1,1,3.854,4.164l-6.886,6.372a.813.813,0,0,0-.043,1.146l10.31,11.141a.81.81,0,0,0,1.146.044l7.131-6.315a2.837,2.837,0,0,1,3.761,4.248l-7.085,6.273a6.366,6.366,0,0,1-4.34,1.686" transform="translate(-29.41 -29.485)" fill="#111"/><path d="M231.589,21.846l3.533-3.27a10.4,10.4,0,0,1,14.132,15.269l-3.171,2.935Z" transform="translate(-59.547 -4.065)" fill="#fff"/><path d="M245.1,38.637a2.837,2.837,0,0,1-1.928-4.919l3.171-2.935a7.565,7.565,0,1,0-10.278-11.1l-3.533,3.269a2.837,2.837,0,0,1-3.853-4.164l3.532-3.269A13.239,13.239,0,0,1,250.2,34.947l-3.171,2.935a2.827,2.827,0,0,1-1.926.755" transform="translate(-58.565 -3.085)" fill="#111"/><path d="M202.111,63.17,151.817,109.72a6.079,6.079,0,0,1-8.591-.333l-14.865-16.06a6.079,6.079,0,0,1,.333-8.591l67.126-62.127a6.078,6.078,0,0,1,8.59.332L219.275,39a6.079,6.079,0,0,1-.333,8.591l-7.009,6.487Z" transform="translate(-32.589 -5.397)" fill="#fff"/><path d="M146.708,113.187a8.893,8.893,0,0,1-6.546-2.855L125.3,94.271a8.913,8.913,0,0,1,.487-12.6l67.126-62.128a8.916,8.916,0,0,1,12.6.488l14.864,16.06a8.925,8.925,0,0,1-.487,12.6l-7.01,6.487a2.836,2.836,0,0,1-3.853-4.163l7.009-6.487a3.247,3.247,0,0,0,.178-4.582L201.347,23.886a3.243,3.243,0,0,0-4.582-.177L129.639,85.836a3.242,3.242,0,0,0-.178,4.582l14.864,16.061a3.247,3.247,0,0,0,4.583.177L199.2,60.107a2.837,2.837,0,0,1,3.854,4.163l-50.3,46.549a8.884,8.884,0,0,1-6.053,2.368" transform="translate(-31.607 -4.416)" fill="#111"/><path d="M149.331,188.311H120.348a5.775,5.775,0,0,1,0-11.55h28.739Z" transform="translate(-29.46 -45.449)" fill="#fff"/><path d="M148.349,190.165H119.367a8.611,8.611,0,0,1,0-17.223h28.739a2.837,2.837,0,0,1,0,5.673H119.367a2.938,2.938,0,1,0,0,5.876h28.983a2.837,2.837,0,0,1,0,5.673" transform="translate(-28.478 -44.467)" fill="#111"/><path d="M200.652,158.241h.865a42.789,42.789,0,0,0,42.79-42.79V93.883A42.8,42.8,0,0,0,219.4,55l-.086-.039-4.345,13.134A31.61,31.61,0,0,1,233.124,96.7v15.932a31.606,31.606,0,0,1-31.606,31.607h-.239Z" transform="translate(-51.592 -14.131)" fill="#fff"/><path d="M200.535,160.1h-.865a2.837,2.837,0,0,1,0-5.673h.865a40,40,0,0,0,39.953-39.953V92.9a40.107,40.107,0,0,0-20.5-34.9l-2.55,7.708A34.624,34.624,0,0,1,234.978,95.72v15.932a34.483,34.483,0,0,1-34.444,34.443H200.3a2.836,2.836,0,1,1,0-5.673h.238a28.8,28.8,0,0,0,28.771-28.77V95.72A28.908,28.908,0,0,0,212.78,69.677,2.837,2.837,0,0,1,211.3,66.22l4.345-13.133a2.836,2.836,0,0,1,3.856-1.7l.105.048A45.784,45.784,0,0,1,246.162,92.9v21.568A45.679,45.679,0,0,1,200.535,160.1" transform="translate(-50.61 -13.149)" fill="#111"/><path d="M219.865,56.938a10.325,10.325,0,1,1-.836-4.081,10.334,10.334,0,0,1,.836,4.081" transform="translate(-51.218 -11.983)" fill="#fff"/><path d="M208.549,69.128a13.175,13.175,0,1,1,13.171-13.171,13.186,13.186,0,0,1-13.171,13.171m0-20.668A7.492,7.492,0,1,0,215.44,53a7.506,7.506,0,0,0-6.891-4.538" transform="translate(-50.236 -11.001)" fill="#111"/><path d="M186.467,190.075H165.9a4.863,4.863,0,0,1-4.863-4.863v-9.727a4.863,4.863,0,0,1,4.863-4.863h20.571a4.863,4.863,0,0,1,4.863,4.863v9.727a4.863,4.863,0,0,1-4.863,4.863" transform="translate(-41.405 -43.871)" fill="#fff"/><path d="M185.485,191.931H164.914a7.708,7.708,0,0,1-7.7-7.7V174.5a7.708,7.708,0,0,1,7.7-7.7h20.571a7.709,7.709,0,0,1,7.7,7.7v9.726a7.709,7.709,0,0,1-7.7,7.7m-20.571-19.452a2.029,2.029,0,0,0-2.027,2.027v9.726a2.029,2.029,0,0,0,2.027,2.027h20.571a2.029,2.029,0,0,0,2.027-2.027V174.5a2.029,2.029,0,0,0-2.027-2.027Z" transform="translate(-40.423 -42.889)" fill="#111"/><path d="M58.912,266.01a9.017,9.017,0,1,1-.731-3.563,9.024,9.024,0,0,1,.731,3.563" transform="translate(-10.507 -66.077)" fill="#fff"/><path d="M48.906,276.888a11.865,11.865,0,1,1,11.86-11.86,11.874,11.874,0,0,1-11.86,11.86m0-18.047a6.18,6.18,0,1,0,5.687,3.745,6.194,6.194,0,0,0-5.687-3.745" transform="translate(-9.525 -65.095)" fill="#111"/><path d="M21.987,215.583a9.017,9.017,0,1,1-.731-3.563,9.024,9.024,0,0,1,.731,3.563" transform="translate(-1.013 -53.111)" fill="#fff"/><path d="M11.981,226.461A11.866,11.866,0,1,1,23.841,214.6a11.874,11.874,0,0,1-11.86,11.861m0-18.047a6.18,6.18,0,1,0,5.687,3.745,6.194,6.194,0,0,0-5.687-3.745" transform="translate(-0.031 -52.129)" fill="#111"/><path d="M58.912,166.549a9.017,9.017,0,1,1-.731-3.563,9.024,9.024,0,0,1,.731,3.563" transform="translate(-10.507 -40.503)" fill="#fff"/><path d="M48.906,177.426a11.865,11.865,0,1,1,11.86-11.859,11.873,11.873,0,0,1-11.86,11.859m0-18.047a6.18,6.18,0,1,0,5.687,3.745,6.194,6.194,0,0,0-5.687-3.745" transform="translate(-9.525 -39.521)" fill="#111"/><path d="M39.88,179.283l-16.536,20.79Z" transform="translate(-6.002 -46.098)" fill="#fff"/><path d="M22.361,201.929a2.836,2.836,0,0,1-2.217-4.6l16.536-20.79a2.837,2.837,0,0,1,4.44,3.532l-16.536,20.79a2.833,2.833,0,0,1-2.222,1.07" transform="translate(-5.021 -45.116)" fill="#111"/><path d="M21.107,230.852l16.526,22.979Z" transform="translate(-5.427 -59.357)" fill="#fff"/><path d="M36.652,255.686a2.834,2.834,0,0,1-2.305-1.18L17.821,231.527a2.837,2.837,0,1,1,4.606-3.312l16.526,22.979a2.837,2.837,0,0,1-2.3,4.493" transform="translate(-4.445 -58.375)" fill="#111"/><path d="M119.878,235.786,98.329,214.532a12,12,0,0,0-16.879,0,11.731,11.731,0,0,0,0,16.7l27.273,27a14.222,14.222,0,0,0,10.249,4.234h104.3V223.981l-16.854-.343c-7.456-10.431-21.468-16.369-35.335-16.369-12.019,0-21.912,5.517-29.411,13.453H127.256c-5.352,0-9.692,3.769-9.692,9.069s4.34,9.07,9.692,9.07h38Z" transform="translate(-20.045 -53.293)" fill="#fff"/><path d="M177.981,240.715h-38c-7.025,0-12.529-5.229-12.529-11.905s5.5-11.906,12.529-11.906h13.212c8.707-8.806,19.267-13.453,30.614-13.453,14.92,0,28.859,6.249,36.778,16.4l15.47.316a2.836,2.836,0,1,1-.116,5.671l-16.855-.343a2.838,2.838,0,0,1-2.249-1.186c-6.592-9.223-19.556-15.181-33.028-15.181-12.79,0-21.933,6.832-27.35,12.564a2.837,2.837,0,0,1-2.061.888H139.982c-3.908,0-6.856,2.68-6.856,6.233s2.948,6.232,6.856,6.232h38a2.837,2.837,0,0,1,0,5.673" transform="translate(-32.771 -52.312)" fill="#111"/><path d="M222.29,265.635H117.99a17.078,17.078,0,0,1-12.245-5.056l-27.274-27a14.57,14.57,0,0,1,0-20.729,14.835,14.835,0,0,1,20.878.007L120.888,234.1a2.837,2.837,0,0,1-3.984,4.039L95.355,216.882a9.164,9.164,0,0,0-12.886-.01,8.9,8.9,0,0,0-.006,12.672l27.274,27a11.366,11.366,0,0,0,8.253,3.414h104.3a2.837,2.837,0,0,1,0,5.673" transform="translate(-19.064 -53.625)" fill="#111"/><path d="M246.546,224.151S253,229.975,253,241.311Z" transform="translate(-63.392 -57.634)" fill="#fff"/><path d="M252.021,243.167a2.837,2.837,0,0,1-2.836-2.836c0-9.96-5.466-15-5.521-15.054a2.837,2.837,0,0,1,3.8-4.213c.3.273,7.394,6.813,7.394,19.267a2.837,2.837,0,0,1-2.836,2.836" transform="translate(-62.411 -56.653)" fill="#111"/></svg>