<svg xmlns="http://www.w3.org/2000/svg" width="260.389" height="212.141" viewBox="0 0 260.389 212.141"><g transform="translate(0 56.397)"><g transform="translate(56.465 -56.397)" opacity="0.1"><g transform="translate(42.131 0)"><path d="M466.067,191.769v-5.845a7.332,7.332,0,1,0-14.664,0v5.845a14.291,14.291,0,0,0-7,12.278v13.048a5.489,5.489,0,0,0,5.033,5.5v18.117a5.477,5.477,0,0,0,5.527,5.414,5.563,5.563,0,0,0,3.775-1.482,5.557,5.557,0,0,0,3.774,1.482,5.477,5.477,0,0,0,5.527-5.414V222.592a5.489,5.489,0,0,0,5.033-5.5V204.047A14.293,14.293,0,0,0,466.067,191.769Z" transform="translate(-444.4 -178.59)" fill="#fff"/><rect width="12.948" height="8.887" transform="translate(7.861 37.822)" fill="#fff"/></g><g transform="translate(44.701 2.57)"><path d="M469.929,212.1a2.923,2.923,0,0,1-2.872,2.97H449.273a2.923,2.923,0,0,1-2.873-2.97V199.055a2.9,2.9,0,0,1,2.873-2.949h17.784a2.9,2.9,0,0,1,2.872,2.949Z" transform="translate(-446.4 -176.168)" fill="#335ba9"/><path d="M469.929,201a11.765,11.765,0,1,1-11.764-11.733A11.722,11.722,0,0,1,469.929,201Z" transform="translate(-446.4 -178.116)" fill="#335ba9"/><path d="M461.374,185.353a4.762,4.762,0,1,1-4.762-4.763A4.761,4.761,0,0,1,461.374,185.353Z" transform="translate(-444.847 -180.59)" fill="#335ba9"/><g transform="translate(5.033 34.808)"><path d="M453.274,207.678a2.9,2.9,0,0,0-2.957,2.844v21.9a2.959,2.959,0,0,0,5.914,0v-21.9A2.9,2.9,0,0,0,453.274,207.678Z" transform="translate(-450.317 -207.678)" fill="#335ba9"/><path d="M459.149,207.678a2.9,2.9,0,0,0-2.957,2.844v21.9a2.959,2.959,0,0,0,5.914,0v-21.9A2.9,2.9,0,0,0,459.149,207.678Z" transform="translate(-448.643 -207.678)" fill="#335ba9"/></g><rect width="7.808" height="3.747" transform="translate(7.861 37.822)" fill="#335ba9"/></g><path d="M498.875,191.782v-5.858a7.342,7.342,0,0,0-14.685,0v5.845a14.292,14.292,0,0,0-7,12.278v13.048a5.489,5.489,0,0,0,5.033,5.5v18.117a5.477,5.477,0,0,0,5.527,5.414,5.563,5.563,0,0,0,3.775-1.482,5.559,5.559,0,0,0,3.774,1.482,5.477,5.477,0,0,0,5.527-5.414V222.592a5.488,5.488,0,0,0,5.033-5.5V204.047A14.3,14.3,0,0,0,498.875,191.782Z" transform="translate(-392.925 -178.59)" fill="#fff"/><g transform="translate(86.832 2.57)"><path d="M502.716,212.1a2.923,2.923,0,0,1-2.872,2.97H482.06a2.923,2.923,0,0,1-2.873-2.97V199.055a2.9,2.9,0,0,1,2.873-2.949h17.784a2.9,2.9,0,0,1,2.872,2.949Z" transform="translate(-479.187 -176.168)" fill="#335ba9"/><path d="M502.716,201a11.765,11.765,0,1,1-11.764-11.733A11.722,11.722,0,0,1,502.716,201Z" transform="translate(-479.187 -178.116)" fill="#335ba9"/><path d="M494.161,185.353a4.762,4.762,0,1,1-4.762-4.763A4.761,4.761,0,0,1,494.161,185.353Z" transform="translate(-477.634 -180.59)" fill="#335ba9"/><g transform="translate(5.033 34.808)"><path d="M486.061,207.678a2.9,2.9,0,0,0-2.957,2.844v21.9a2.959,2.959,0,0,0,5.914,0v-21.9A2.9,2.9,0,0,0,486.061,207.678Z" transform="translate(-483.104 -207.678)" fill="#335ba9"/><path d="M491.936,207.678a2.9,2.9,0,0,0-2.957,2.844v21.9a2.959,2.959,0,0,0,5.913,0v-21.9A2.9,2.9,0,0,0,491.936,207.678Z" transform="translate(-481.43 -207.678)" fill="#335ba9"/></g><rect width="7.808" height="3.747" transform="translate(7.861 37.822)" fill="#335ba9"/></g><g transform="translate(63.197 12.592)"><path d="M482.46,201.568v-5.845a7.332,7.332,0,1,0-14.664,0v5.845a14.289,14.289,0,0,0-7,12.278v13.048a5.487,5.487,0,0,0,5.033,5.5v18.117a5.476,5.476,0,0,0,5.527,5.414,5.558,5.558,0,0,0,3.774-1.48,5.562,5.562,0,0,0,3.775,1.48,5.475,5.475,0,0,0,5.525-5.414V232.389a5.487,5.487,0,0,0,5.033-5.5V213.846A14.289,14.289,0,0,0,482.46,201.568Z" transform="translate(-460.794 -188.389)" fill="#fff"/><rect width="12.948" height="8.886" transform="translate(7.86 37.822)" fill="#fff"/></g><g transform="translate(65.767 15.162)"><path d="M486.322,221.9a2.923,2.923,0,0,1-2.872,2.97H465.666a2.923,2.923,0,0,1-2.872-2.97V208.854a2.9,2.9,0,0,1,2.872-2.949H483.45a2.9,2.9,0,0,1,2.872,2.949Z" transform="translate(-462.794 -185.967)" fill="#335ba9"/><path d="M486.322,210.8a11.764,11.764,0,1,1-11.764-11.733A11.72,11.72,0,0,1,486.322,210.8Z" transform="translate(-462.794 -187.915)" fill="#335ba9"/><path d="M477.767,195.152a4.762,4.762,0,1,1-4.762-4.763A4.761,4.761,0,0,1,477.767,195.152Z" transform="translate(-461.241 -190.389)" fill="#335ba9"/><g transform="translate(5.033 34.808)"><path d="M469.668,217.477a2.9,2.9,0,0,0-2.957,2.844v21.9a2.958,2.958,0,0,0,5.912,0v-21.9A2.9,2.9,0,0,0,469.668,217.477Z" transform="translate(-466.711 -217.477)" fill="#335ba9"/><path d="M475.543,217.477a2.9,2.9,0,0,0-2.957,2.844v21.9a2.958,2.958,0,0,0,5.912,0v-21.9A2.9,2.9,0,0,0,475.543,217.477Z" transform="translate(-465.037 -217.477)" fill="#335ba9"/></g><rect width="7.808" height="3.746" transform="translate(7.86 37.822)" fill="#335ba9"/></g><path d="M515.269,201.581v-5.858a7.343,7.343,0,0,0-14.686,0v5.845a14.289,14.289,0,0,0-7,12.278v13.048a5.487,5.487,0,0,0,5.033,5.5v18.117a5.476,5.476,0,0,0,5.527,5.414,5.558,5.558,0,0,0,3.774-1.48,5.561,5.561,0,0,0,3.775,1.48,5.476,5.476,0,0,0,5.527-5.414V232.389a5.488,5.488,0,0,0,5.033-5.5V213.846A14.3,14.3,0,0,0,515.269,201.581Z" transform="translate(-388.253 -175.797)" fill="#fff"/><g transform="translate(107.898 15.162)"><path d="M519.11,221.9a2.924,2.924,0,0,1-2.873,2.97H498.453a2.923,2.923,0,0,1-2.872-2.97V208.854a2.9,2.9,0,0,1,2.872-2.949h17.784a2.9,2.9,0,0,1,2.873,2.949Z" transform="translate(-495.581 -185.967)" fill="#335ba9"/><path d="M519.11,210.8a11.765,11.765,0,1,1-11.765-11.733A11.721,11.721,0,0,1,519.11,210.8Z" transform="translate(-495.581 -187.915)" fill="#335ba9"/><path d="M510.554,195.152a4.762,4.762,0,1,1-4.762-4.763A4.761,4.761,0,0,1,510.554,195.152Z" transform="translate(-494.028 -190.389)" fill="#335ba9"/><g transform="translate(5.033 34.808)"><path d="M502.455,217.477a2.9,2.9,0,0,0-2.957,2.844v21.9a2.959,2.959,0,0,0,5.914,0v-21.9A2.9,2.9,0,0,0,502.455,217.477Z" transform="translate(-499.498 -217.477)" fill="#335ba9"/><path d="M508.33,217.477a2.9,2.9,0,0,0-2.957,2.844v21.9a2.959,2.959,0,0,0,5.914,0v-21.9A2.9,2.9,0,0,0,508.33,217.477Z" transform="translate(-497.824 -217.477)" fill="#335ba9"/></g><rect width="7.808" height="3.746" transform="translate(7.86 37.822)" fill="#335ba9"/></g><path d="M449.673,201.568v-5.845a7.332,7.332,0,1,0-14.664,0v5.845a14.289,14.289,0,0,0-7,12.278v13.048a5.487,5.487,0,0,0,5.033,5.5v18.117a5.475,5.475,0,0,0,5.527,5.414,5.558,5.558,0,0,0,3.774-1.48,5.562,5.562,0,0,0,3.775,1.48,5.475,5.475,0,0,0,5.525-5.414V232.389a5.487,5.487,0,0,0,5.033-5.5V213.846A14.289,14.289,0,0,0,449.673,201.568Z" transform="translate(-406.941 -175.797)" fill="#fff"/><g transform="translate(23.636 15.162)"><path d="M453.535,221.9a2.923,2.923,0,0,1-2.872,2.97H432.879a2.923,2.923,0,0,1-2.872-2.97V208.854a2.9,2.9,0,0,1,2.872-2.949h17.784a2.9,2.9,0,0,1,2.872,2.949Z" transform="translate(-430.007 -185.967)" fill="#335ba9"/><path d="M453.535,210.8a11.764,11.764,0,1,1-11.764-11.733A11.72,11.72,0,0,1,453.535,210.8Z" transform="translate(-430.007 -187.915)" fill="#335ba9"/><path d="M444.98,195.152a4.762,4.762,0,1,1-4.762-4.763A4.761,4.761,0,0,1,444.98,195.152Z" transform="translate(-428.454 -190.389)" fill="#335ba9"/><g transform="translate(5.033 34.808)"><path d="M436.881,217.477a2.9,2.9,0,0,0-2.957,2.844v21.9a2.958,2.958,0,0,0,5.912,0v-21.9A2.9,2.9,0,0,0,436.881,217.477Z" transform="translate(-433.924 -217.477)" fill="#335ba9"/><path d="M442.756,217.477a2.9,2.9,0,0,0-2.957,2.844v21.9a2.958,2.958,0,0,0,5.912,0v-21.9A2.9,2.9,0,0,0,442.756,217.477Z" transform="translate(-432.25 -217.477)" fill="#335ba9"/></g><rect width="7.808" height="3.746" transform="translate(7.86 37.822)" fill="#335ba9"/></g><g transform="translate(42.131 25.186)"><path d="M466.067,211.366v-5.843a7.332,7.332,0,1,0-14.664,0v5.843a14.294,14.294,0,0,0-7,12.281v13.044a5.493,5.493,0,0,0,5.033,5.5v18.117a5.479,5.479,0,0,0,5.527,5.414,5.561,5.561,0,0,0,3.775-1.48,5.556,5.556,0,0,0,3.774,1.48,5.479,5.479,0,0,0,5.527-5.414V242.19a5.493,5.493,0,0,0,5.033-5.5V223.647A14.3,14.3,0,0,0,466.067,211.366Z" transform="translate(-444.4 -198.19)" fill="#fff"/><rect width="12.948" height="8.89" transform="translate(7.861 37.818)" fill="#fff"/></g><g transform="translate(44.701 27.756)"><path d="M469.929,231.7a2.923,2.923,0,0,1-2.872,2.972H449.273A2.923,2.923,0,0,1,446.4,231.7V218.655a2.9,2.9,0,0,1,2.873-2.949h17.784a2.9,2.9,0,0,1,2.872,2.949Z" transform="translate(-446.4 -195.768)" fill="#335ba9"/><path d="M469.929,220.6a11.765,11.765,0,1,1-11.764-11.736A11.724,11.724,0,0,1,469.929,220.6Z" transform="translate(-446.4 -197.717)" fill="#335ba9"/><path d="M461.374,204.953a4.762,4.762,0,1,1-4.762-4.763A4.762,4.762,0,0,1,461.374,204.953Z" transform="translate(-444.847 -200.19)" fill="#335ba9"/><g transform="translate(5.033 34.806)"><path d="M453.274,227.277a2.9,2.9,0,0,0-2.957,2.844v21.9a2.959,2.959,0,0,0,5.914,0v-21.9A2.9,2.9,0,0,0,453.274,227.277Z" transform="translate(-450.317 -227.277)" fill="#335ba9"/><path d="M459.149,227.277a2.9,2.9,0,0,0-2.957,2.844v21.9a2.959,2.959,0,0,0,5.914,0v-21.9A2.9,2.9,0,0,0,459.149,227.277Z" transform="translate(-448.643 -227.277)" fill="#335ba9"/></g><rect width="7.808" height="3.75" transform="translate(7.861 37.818)" fill="#335ba9"/></g><path d="M498.875,211.382v-5.858a7.342,7.342,0,0,0-14.685,0v5.843a14.294,14.294,0,0,0-7,12.281v13.044a5.493,5.493,0,0,0,5.033,5.5v18.117a5.479,5.479,0,0,0,5.527,5.414,5.561,5.561,0,0,0,3.775-1.48,5.558,5.558,0,0,0,3.774,1.48,5.479,5.479,0,0,0,5.527-5.414V242.19a5.492,5.492,0,0,0,5.033-5.5V223.647A14.289,14.289,0,0,0,498.875,211.382Z" transform="translate(-392.925 -173.004)" fill="#fff"/><g transform="translate(86.832 27.756)"><path d="M502.716,231.7a2.923,2.923,0,0,1-2.872,2.972H482.06a2.923,2.923,0,0,1-2.873-2.972V218.655a2.9,2.9,0,0,1,2.873-2.949h17.784a2.9,2.9,0,0,1,2.872,2.949Z" transform="translate(-479.187 -195.768)" fill="#335ba9"/><path d="M502.716,220.6a11.765,11.765,0,1,1-11.764-11.736A11.724,11.724,0,0,1,502.716,220.6Z" transform="translate(-479.187 -197.717)" fill="#335ba9"/><path d="M494.161,204.953a4.762,4.762,0,1,1-4.762-4.763A4.761,4.761,0,0,1,494.161,204.953Z" transform="translate(-477.634 -200.19)" fill="#335ba9"/><g transform="translate(5.033 34.806)"><path d="M486.061,227.277a2.9,2.9,0,0,0-2.957,2.844v21.9a2.959,2.959,0,0,0,5.914,0v-21.9A2.9,2.9,0,0,0,486.061,227.277Z" transform="translate(-483.104 -227.277)" fill="#335ba9"/><path d="M491.936,227.277a2.9,2.9,0,0,0-2.957,2.844v21.9a2.959,2.959,0,0,0,5.913,0v-21.9A2.9,2.9,0,0,0,491.936,227.277Z" transform="translate(-481.43 -227.277)" fill="#335ba9"/></g><rect width="7.808" height="3.75" transform="translate(7.861 37.818)" fill="#335ba9"/></g><path d="M433.28,211.366v-5.843a7.333,7.333,0,1,0-14.666,0v5.843a14.3,14.3,0,0,0-7,12.281v13.044a5.493,5.493,0,0,0,5.033,5.5v18.117a5.479,5.479,0,0,0,5.527,5.414,5.562,5.562,0,0,0,3.775-1.48,5.556,5.556,0,0,0,3.774,1.48,5.479,5.479,0,0,0,5.527-5.414V242.19a5.493,5.493,0,0,0,5.033-5.5V223.647A14.3,14.3,0,0,0,433.28,211.366Z" transform="translate(-411.613 -173.004)" fill="#fff"/><g transform="translate(2.57 27.756)"><path d="M437.142,231.7a2.923,2.923,0,0,1-2.873,2.972H416.486a2.923,2.923,0,0,1-2.873-2.972V218.655a2.9,2.9,0,0,1,2.873-2.949h17.783a2.9,2.9,0,0,1,2.873,2.949Z" transform="translate(-413.613 -195.768)" fill="#335ba9"/><path d="M437.142,220.6a11.765,11.765,0,1,1-11.764-11.736A11.724,11.724,0,0,1,437.142,220.6Z" transform="translate(-413.613 -197.717)" fill="#335ba9"/><path d="M428.588,204.953a4.763,4.763,0,1,1-4.762-4.763A4.762,4.762,0,0,1,428.588,204.953Z" transform="translate(-412.06 -200.19)" fill="#335ba9"/><g transform="translate(5.033 34.806)"><path d="M420.487,227.277a2.9,2.9,0,0,0-2.957,2.844v21.9a2.959,2.959,0,0,0,5.913,0v-21.9A2.9,2.9,0,0,0,420.487,227.277Z" transform="translate(-417.53 -227.277)" fill="#335ba9"/><path d="M426.362,227.277a2.9,2.9,0,0,0-2.957,2.844v21.9a2.959,2.959,0,0,0,5.914,0v-21.9A2.9,2.9,0,0,0,426.362,227.277Z" transform="translate(-415.856 -227.277)" fill="#335ba9"/></g><rect width="7.808" height="3.75" transform="translate(7.861 37.818)" fill="#335ba9"/></g><g transform="translate(126.394 25.218)"><path d="M531.662,211.407v-5.858a7.342,7.342,0,0,0-14.685,0v5.845a14.29,14.29,0,0,0-7,12.278V236.72a5.488,5.488,0,0,0,5.033,5.5v18.118a5.476,5.476,0,0,0,5.525,5.414,5.563,5.563,0,0,0,3.775-1.482,5.559,5.559,0,0,0,3.774,1.482,5.477,5.477,0,0,0,5.527-5.414V242.215a5.488,5.488,0,0,0,5.033-5.5V223.672A14.3,14.3,0,0,0,531.662,211.407Z" transform="translate(-509.975 -198.215)" fill="#fff"/><g transform="translate(2.57 2.57)"><path d="M535.5,231.728a2.922,2.922,0,0,1-2.872,2.968H514.847a2.922,2.922,0,0,1-2.872-2.968V218.68a2.9,2.9,0,0,1,2.872-2.949h17.784a2.9,2.9,0,0,1,2.872,2.949Z" transform="translate(-511.975 -195.793)" fill="#335ba9"/><path d="M535.5,220.628A11.764,11.764,0,1,1,523.739,208.9,11.722,11.722,0,0,1,535.5,220.628Z" transform="translate(-511.975 -197.741)" fill="#335ba9"/><path d="M526.948,204.978a4.762,4.762,0,1,1-4.762-4.763A4.761,4.761,0,0,1,526.948,204.978Z" transform="translate(-510.422 -200.215)" fill="#335ba9"/><g transform="translate(5.033 34.808)"><path d="M518.847,227.3a2.9,2.9,0,0,0-2.955,2.844v21.9a2.958,2.958,0,0,0,5.912,0v-21.9A2.9,2.9,0,0,0,518.847,227.3Z" transform="translate(-515.892 -227.303)" fill="#335ba9"/><path d="M524.722,227.3a2.9,2.9,0,0,0-2.955,2.844v21.9a2.958,2.958,0,0,0,5.912,0v-21.9A2.9,2.9,0,0,0,524.722,227.3Z" transform="translate(-514.218 -227.303)" fill="#335ba9"/></g><rect width="7.808" height="3.747" transform="translate(7.86 37.821)" fill="#335ba9"/></g></g><g transform="translate(63.197 37.809)"><path d="M482.46,221.193v-5.845a7.332,7.332,0,1,0-14.664,0v5.845a14.288,14.288,0,0,0-7,12.277v13.048a5.488,5.488,0,0,0,5.033,5.5v18.117a5.476,5.476,0,0,0,5.527,5.414,5.558,5.558,0,0,0,3.774-1.48,5.561,5.561,0,0,0,3.775,1.48,5.475,5.475,0,0,0,5.525-5.414V252.014a5.488,5.488,0,0,0,5.033-5.5V233.47A14.288,14.288,0,0,0,482.46,221.193Z" transform="translate(-460.794 -208.014)" fill="#fff"/><rect width="12.948" height="8.887" transform="translate(7.86 37.821)" fill="#fff"/></g><g transform="translate(65.767 40.379)"><path d="M486.322,241.526a2.923,2.923,0,0,1-2.872,2.97H465.666a2.923,2.923,0,0,1-2.872-2.97V228.478a2.9,2.9,0,0,1,2.872-2.949H483.45a2.9,2.9,0,0,1,2.872,2.949Z" transform="translate(-462.794 -205.592)" fill="#335ba9"/><path d="M486.322,230.426a11.764,11.764,0,1,1-11.764-11.732A11.721,11.721,0,0,1,486.322,230.426Z" transform="translate(-462.794 -207.54)" fill="#335ba9"/><path d="M477.767,214.777a4.762,4.762,0,1,1-4.762-4.763A4.761,4.761,0,0,1,477.767,214.777Z" transform="translate(-461.241 -210.014)" fill="#335ba9"/><g transform="translate(5.033 34.808)"><path d="M469.668,237.1a2.9,2.9,0,0,0-2.957,2.844v21.9a2.958,2.958,0,0,0,5.912,0v-21.9A2.9,2.9,0,0,0,469.668,237.1Z" transform="translate(-466.711 -237.102)" fill="#335ba9"/><path d="M475.543,237.1a2.9,2.9,0,0,0-2.957,2.844v21.9a2.958,2.958,0,0,0,5.912,0v-21.9A2.9,2.9,0,0,0,475.543,237.1Z" transform="translate(-465.037 -237.102)" fill="#335ba9"/></g><rect width="7.808" height="3.747" transform="translate(7.86 37.821)" fill="#335ba9"/></g><path d="M515.269,221.206v-5.858a7.343,7.343,0,0,0-14.686,0v5.845a14.288,14.288,0,0,0-7,12.277v13.048a5.488,5.488,0,0,0,5.033,5.5v18.117a5.476,5.476,0,0,0,5.527,5.414,5.558,5.558,0,0,0,3.774-1.48,5.561,5.561,0,0,0,3.775,1.48,5.476,5.476,0,0,0,5.527-5.414V252.014a5.489,5.489,0,0,0,5.033-5.5V233.47A14.294,14.294,0,0,0,515.269,221.206Z" transform="translate(-388.253 -170.205)" fill="#fff"/><g transform="translate(107.898 40.379)"><path d="M519.11,241.526a2.923,2.923,0,0,1-2.873,2.97H498.453a2.923,2.923,0,0,1-2.872-2.97V228.478a2.9,2.9,0,0,1,2.872-2.949h17.784a2.9,2.9,0,0,1,2.873,2.949Z" transform="translate(-495.581 -205.592)" fill="#335ba9"/><path d="M519.11,230.426a11.765,11.765,0,1,1-11.765-11.732A11.723,11.723,0,0,1,519.11,230.426Z" transform="translate(-495.581 -207.54)" fill="#335ba9"/><path d="M510.554,214.777a4.762,4.762,0,1,1-4.762-4.763A4.761,4.761,0,0,1,510.554,214.777Z" transform="translate(-494.028 -210.014)" fill="#335ba9"/><g transform="translate(5.033 34.808)"><path d="M502.455,237.1a2.9,2.9,0,0,0-2.957,2.844v21.9a2.959,2.959,0,0,0,5.914,0v-21.9A2.9,2.9,0,0,0,502.455,237.1Z" transform="translate(-499.498 -237.102)" fill="#335ba9"/><path d="M508.33,237.1a2.9,2.9,0,0,0-2.957,2.844v21.9a2.959,2.959,0,0,0,5.914,0v-21.9A2.9,2.9,0,0,0,508.33,237.1Z" transform="translate(-497.824 -237.102)" fill="#335ba9"/></g><rect width="7.808" height="3.747" transform="translate(7.86 37.821)" fill="#335ba9"/></g><path d="M449.673,221.193v-5.845a7.332,7.332,0,1,0-14.664,0v5.845a14.288,14.288,0,0,0-7,12.277v13.048a5.488,5.488,0,0,0,5.033,5.5v18.117a5.475,5.475,0,0,0,5.527,5.414,5.558,5.558,0,0,0,3.774-1.48,5.562,5.562,0,0,0,3.775,1.48,5.475,5.475,0,0,0,5.525-5.414V252.014a5.488,5.488,0,0,0,5.033-5.5V233.47A14.288,14.288,0,0,0,449.673,221.193Z" transform="translate(-406.941 -170.205)" fill="#fff"/><g transform="translate(23.636 40.379)"><path d="M453.535,241.526a2.923,2.923,0,0,1-2.872,2.97H432.879a2.923,2.923,0,0,1-2.872-2.97V228.478a2.9,2.9,0,0,1,2.872-2.949h17.784a2.9,2.9,0,0,1,2.872,2.949Z" transform="translate(-430.007 -205.592)" fill="#335ba9"/><path d="M453.535,230.426a11.764,11.764,0,1,1-11.764-11.732A11.721,11.721,0,0,1,453.535,230.426Z" transform="translate(-430.007 -207.54)" fill="#335ba9"/><path d="M444.98,214.777a4.762,4.762,0,1,1-4.762-4.763A4.761,4.761,0,0,1,444.98,214.777Z" transform="translate(-428.454 -210.014)" fill="#335ba9"/><g transform="translate(5.033 34.808)"><path d="M436.881,237.1a2.9,2.9,0,0,0-2.957,2.844v21.9a2.958,2.958,0,0,0,5.912,0v-21.9A2.9,2.9,0,0,0,436.881,237.1Z" transform="translate(-433.924 -237.102)" fill="#335ba9"/><path d="M442.756,237.1a2.9,2.9,0,0,0-2.957,2.844v21.9a2.958,2.958,0,0,0,5.912,0v-21.9A2.9,2.9,0,0,0,442.756,237.1Z" transform="translate(-432.25 -237.102)" fill="#335ba9"/></g><rect width="7.808" height="3.747" transform="translate(7.86 37.821)" fill="#335ba9"/></g><g transform="translate(42.131 50.404)"><path d="M466.067,230.99v-5.843a7.332,7.332,0,0,0-14.664,0v5.843a14.3,14.3,0,0,0-7,12.281v13.045a5.493,5.493,0,0,0,5.033,5.5v18.117a5.479,5.479,0,0,0,5.527,5.414,5.562,5.562,0,0,0,3.775-1.48,5.556,5.556,0,0,0,3.774,1.48,5.479,5.479,0,0,0,5.527-5.414V261.815a5.493,5.493,0,0,0,5.033-5.5V243.271A14.3,14.3,0,0,0,466.067,230.99Z" transform="translate(-444.4 -217.815)" fill="#fff"/><rect width="12.948" height="8.89" transform="translate(7.861 37.818)" fill="#fff"/></g><g transform="translate(44.701 52.973)"><path d="M469.929,251.324a2.923,2.923,0,0,1-2.872,2.972H449.273a2.923,2.923,0,0,1-2.873-2.972V238.279a2.9,2.9,0,0,1,2.873-2.949h17.784a2.9,2.9,0,0,1,2.872,2.949Z" transform="translate(-446.4 -215.393)" fill="#335ba9"/><path d="M469.929,240.228a11.765,11.765,0,1,1-11.764-11.736A11.724,11.724,0,0,1,469.929,240.228Z" transform="translate(-446.4 -217.342)" fill="#335ba9"/><path d="M461.374,224.577a4.762,4.762,0,1,1-4.762-4.762A4.763,4.763,0,0,1,461.374,224.577Z" transform="translate(-444.847 -219.815)" fill="#335ba9"/><g transform="translate(5.033 34.806)"><path d="M453.274,246.9a2.9,2.9,0,0,0-2.957,2.844v21.9a2.959,2.959,0,0,0,5.914,0v-21.9A2.9,2.9,0,0,0,453.274,246.9Z" transform="translate(-450.317 -246.902)" fill="#335ba9"/><path d="M459.149,246.9a2.9,2.9,0,0,0-2.957,2.844v21.9a2.959,2.959,0,0,0,5.914,0v-21.9A2.9,2.9,0,0,0,459.149,246.9Z" transform="translate(-448.643 -246.902)" fill="#335ba9"/></g><rect width="7.808" height="3.75" transform="translate(7.861 37.818)" fill="#335ba9"/></g><path d="M498.875,231.005v-5.858a7.342,7.342,0,0,0-14.685,0v5.843a14.3,14.3,0,0,0-7,12.281v13.045a5.493,5.493,0,0,0,5.033,5.5v18.117a5.479,5.479,0,0,0,5.527,5.414,5.562,5.562,0,0,0,3.775-1.48,5.558,5.558,0,0,0,3.774,1.48,5.479,5.479,0,0,0,5.527-5.414V261.815a5.492,5.492,0,0,0,5.033-5.5V243.271A14.289,14.289,0,0,0,498.875,231.005Z" transform="translate(-392.925 -167.412)" fill="#fff"/><g transform="translate(86.832 52.973)"><path d="M502.716,251.324a2.923,2.923,0,0,1-2.872,2.972H482.06a2.923,2.923,0,0,1-2.873-2.972V238.279a2.9,2.9,0,0,1,2.873-2.949h17.784a2.9,2.9,0,0,1,2.872,2.949Z" transform="translate(-479.187 -215.393)" fill="#335ba9"/><path d="M502.716,240.228a11.765,11.765,0,1,1-11.764-11.736A11.724,11.724,0,0,1,502.716,240.228Z" transform="translate(-479.187 -217.342)" fill="#335ba9"/><path d="M494.161,224.577a4.762,4.762,0,1,1-4.762-4.762A4.762,4.762,0,0,1,494.161,224.577Z" transform="translate(-477.634 -219.815)" fill="#335ba9"/><g transform="translate(5.033 34.806)"><path d="M486.061,246.9a2.9,2.9,0,0,0-2.957,2.844v21.9a2.959,2.959,0,0,0,5.914,0v-21.9A2.9,2.9,0,0,0,486.061,246.9Z" transform="translate(-483.104 -246.902)" fill="#335ba9"/><path d="M491.936,246.9a2.9,2.9,0,0,0-2.957,2.844v21.9a2.959,2.959,0,0,0,5.913,0v-21.9A2.9,2.9,0,0,0,491.936,246.9Z" transform="translate(-481.43 -246.902)" fill="#335ba9"/></g><rect width="7.808" height="3.75" transform="translate(7.861 37.818)" fill="#335ba9"/></g></g><g transform="translate(63.197 12.593)" opacity="0.2"><path d="M632.348,58.948V53.1a7.332,7.332,0,1,0-14.664,0v5.844a14.291,14.291,0,0,0-7,12.279V84.273a5.49,5.49,0,0,0,5.033,5.5v18.118a5.477,5.477,0,0,0,5.525,5.414,5.563,5.563,0,0,0,3.775-1.482,5.559,5.559,0,0,0,3.774,1.482,5.478,5.478,0,0,0,5.527-5.414V89.77a5.49,5.49,0,0,0,5.033-5.5V71.227A14.291,14.291,0,0,0,632.348,58.948Z" transform="translate(-610.682 -45.77)" fill="#fff"/><rect width="12.948" height="8.888" transform="translate(7.86 37.82)" fill="#fff"/></g><g transform="translate(65.767 15.163)" opacity="0.2"><path d="M636.21,79.281a2.922,2.922,0,0,1-2.872,2.97H615.554a2.922,2.922,0,0,1-2.872-2.97V66.235a2.9,2.9,0,0,1,2.872-2.949h17.784a2.9,2.9,0,0,1,2.872,2.949Z" transform="translate(-612.682 -43.348)" fill="#335ba9"/><path d="M636.21,68.183a11.764,11.764,0,1,1-11.764-11.734A11.721,11.721,0,0,1,636.21,68.183Z" transform="translate(-612.682 -45.297)" fill="#335ba9"/><path d="M627.655,52.533a4.762,4.762,0,1,1-4.762-4.763A4.761,4.761,0,0,1,627.655,52.533Z" transform="translate(-611.129 -47.77)" fill="#335ba9"/><g transform="translate(5.033 34.808)"><path d="M619.554,74.858A2.9,2.9,0,0,0,616.6,77.7V99.6a2.958,2.958,0,0,0,5.912,0V77.7A2.9,2.9,0,0,0,619.554,74.858Z" transform="translate(-616.599 -74.858)" fill="#335ba9"/><path d="M625.429,74.858a2.9,2.9,0,0,0-2.955,2.844V99.6a2.958,2.958,0,0,0,5.912,0V77.7A2.9,2.9,0,0,0,625.429,74.858Z" transform="translate(-614.925 -74.858)" fill="#335ba9"/></g><rect width="7.808" height="3.748" transform="translate(7.86 37.82)" fill="#335ba9"/></g><path d="M681.529,49.149V43.3a7.333,7.333,0,1,0-14.666,0v5.845a14.291,14.291,0,0,0-7,12.278V74.475a5.488,5.488,0,0,0,5.033,5.5V98.089a5.477,5.477,0,0,0,5.527,5.414,5.562,5.562,0,0,0,3.775-1.48,5.556,5.556,0,0,0,3.774,1.48,5.477,5.477,0,0,0,5.527-5.414V79.97a5.488,5.488,0,0,0,5.033-5.5V61.427A14.291,14.291,0,0,0,681.529,49.149Z" transform="translate(-533.47 -35.97)" fill="#fff" opacity="0.2"/><g transform="translate(128.962 2.57)" opacity="0.2"><path d="M685.391,69.483a2.924,2.924,0,0,1-2.873,2.97H664.735a2.924,2.924,0,0,1-2.873-2.97V56.435a2.9,2.9,0,0,1,2.873-2.949h17.783a2.9,2.9,0,0,1,2.873,2.949Z" transform="translate(-661.862 -33.548)" fill="#335ba9"/><path d="M685.391,58.383A11.765,11.765,0,1,1,673.627,46.65,11.721,11.721,0,0,1,685.391,58.383Z" transform="translate(-661.862 -35.496)" fill="#335ba9"/><path d="M676.837,42.733a4.763,4.763,0,1,1-4.762-4.763A4.761,4.761,0,0,1,676.837,42.733Z" transform="translate(-660.309 -37.97)" fill="#335ba9"/><g transform="translate(5.033 34.808)"><path d="M668.736,65.058a2.9,2.9,0,0,0-2.957,2.844V89.8a2.959,2.959,0,0,0,5.914,0V67.9A2.9,2.9,0,0,0,668.736,65.058Z" transform="translate(-665.779 -65.058)" fill="#335ba9"/><path d="M674.611,65.058a2.9,2.9,0,0,0-2.957,2.844V89.8a2.959,2.959,0,0,0,5.914,0V67.9A2.9,2.9,0,0,0,674.611,65.058Z" transform="translate(-664.105 -65.058)" fill="#335ba9"/></g><rect width="7.808" height="3.747" transform="translate(7.861 37.822)" fill="#335ba9"/></g><g transform="translate(147.458 12.593)" opacity="0.2"><path d="M697.922,58.948V53.1a7.332,7.332,0,1,0-14.664,0v5.844a14.291,14.291,0,0,0-7,12.279V84.273a5.49,5.49,0,0,0,5.033,5.5v18.118a5.477,5.477,0,0,0,5.527,5.414,5.559,5.559,0,0,0,3.774-1.482,5.562,5.562,0,0,0,3.775,1.482,5.477,5.477,0,0,0,5.525-5.414V89.77a5.49,5.49,0,0,0,5.033-5.5V71.227A14.291,14.291,0,0,0,697.922,58.948Z" transform="translate(-676.256 -45.77)" fill="#fff"/><rect width="12.948" height="8.888" transform="translate(7.86 37.82)" fill="#fff"/></g><g transform="translate(150.028 15.163)" opacity="0.2"><path d="M701.784,79.281a2.923,2.923,0,0,1-2.872,2.97H681.128a2.923,2.923,0,0,1-2.872-2.97V66.235a2.9,2.9,0,0,1,2.872-2.949h17.784a2.9,2.9,0,0,1,2.872,2.949Z" transform="translate(-678.256 -43.348)" fill="#335ba9"/><path d="M701.784,68.183A11.764,11.764,0,1,1,690.02,56.449,11.721,11.721,0,0,1,701.784,68.183Z" transform="translate(-678.256 -45.297)" fill="#335ba9"/><path d="M693.229,52.533a4.762,4.762,0,1,1-4.762-4.763A4.761,4.761,0,0,1,693.229,52.533Z" transform="translate(-676.703 -47.77)" fill="#335ba9"/><g transform="translate(5.033 34.808)"><path d="M685.13,74.858a2.9,2.9,0,0,0-2.957,2.844V99.6a2.958,2.958,0,0,0,5.912,0V77.7A2.9,2.9,0,0,0,685.13,74.858Z" transform="translate(-682.173 -74.858)" fill="#335ba9"/><path d="M691,74.858a2.9,2.9,0,0,0-2.957,2.844V99.6a2.958,2.958,0,0,0,5.912,0V77.7A2.9,2.9,0,0,0,691,74.858Z" transform="translate(-680.499 -74.858)" fill="#335ba9"/></g><rect width="7.808" height="3.748" transform="translate(7.86 37.82)" fill="#335ba9"/></g><path d="M665.135,58.948V53.1a7.332,7.332,0,1,0-14.664,0v5.844a14.291,14.291,0,0,0-7,12.279V84.273a5.49,5.49,0,0,0,5.033,5.5v18.118a5.477,5.477,0,0,0,5.525,5.414,5.563,5.563,0,0,0,3.775-1.482,5.559,5.559,0,0,0,3.774,1.482,5.477,5.477,0,0,0,5.527-5.414V89.77a5.49,5.49,0,0,0,5.033-5.5V71.227A14.291,14.291,0,0,0,665.135,58.948Z" transform="translate(-538.141 -33.177)" fill="#fff" opacity="0.2"/><g transform="translate(107.898 15.163)" opacity="0.2"><path d="M669,79.281a2.923,2.923,0,0,1-2.872,2.97H648.341a2.923,2.923,0,0,1-2.872-2.97V66.235a2.9,2.9,0,0,1,2.872-2.949h17.784A2.9,2.9,0,0,1,669,66.235Z" transform="translate(-645.469 -43.348)" fill="#335ba9"/><path d="M669,68.183a11.764,11.764,0,1,1-11.764-11.734A11.721,11.721,0,0,1,669,68.183Z" transform="translate(-645.469 -45.297)" fill="#335ba9"/><path d="M660.442,52.533a4.762,4.762,0,1,1-4.762-4.763A4.761,4.761,0,0,1,660.442,52.533Z" transform="translate(-643.916 -47.77)" fill="#335ba9"/><g transform="translate(5.033 34.808)"><path d="M652.341,74.858a2.9,2.9,0,0,0-2.955,2.844V99.6a2.958,2.958,0,0,0,5.912,0V77.7A2.9,2.9,0,0,0,652.341,74.858Z" transform="translate(-649.386 -74.858)" fill="#335ba9"/><path d="M658.216,74.858a2.9,2.9,0,0,0-2.955,2.844V99.6a2.958,2.958,0,0,0,5.912,0V77.7A2.9,2.9,0,0,0,658.216,74.858Z" transform="translate(-647.712 -74.858)" fill="#335ba9"/></g><rect width="7.808" height="3.748" transform="translate(7.86 37.82)" fill="#335ba9"/></g><g transform="translate(84.262 25.218)" opacity="0.2"><path d="M648.741,68.774V62.928a7.332,7.332,0,1,0-14.664,0v5.845a14.292,14.292,0,0,0-7,12.278V94.1a5.488,5.488,0,0,0,5.033,5.5v18.118a5.477,5.477,0,0,0,5.527,5.414,5.556,5.556,0,0,0,3.774-1.48,5.562,5.562,0,0,0,3.775,1.48,5.477,5.477,0,0,0,5.527-5.414V99.6a5.488,5.488,0,0,0,5.033-5.5V81.052A14.29,14.29,0,0,0,648.741,68.774Z" transform="translate(-627.075 -55.595)" fill="#fff"/><rect width="12.948" height="8.887" transform="translate(7.861 37.822)" fill="#fff"/></g><g transform="translate(86.832 27.788)" opacity="0.2"><path d="M652.6,89.108a2.924,2.924,0,0,1-2.873,2.97H631.947a2.923,2.923,0,0,1-2.872-2.97V76.06a2.9,2.9,0,0,1,2.872-2.949h17.784A2.9,2.9,0,0,1,652.6,76.06Z" transform="translate(-629.075 -53.173)" fill="#335ba9"/><path d="M652.6,78.008a11.765,11.765,0,1,1-11.765-11.733A11.721,11.721,0,0,1,652.6,78.008Z" transform="translate(-629.075 -55.121)" fill="#335ba9"/><path d="M644.048,62.358a4.762,4.762,0,1,1-4.762-4.763A4.761,4.761,0,0,1,644.048,62.358Z" transform="translate(-627.522 -57.595)" fill="#335ba9"/><g transform="translate(5.033 34.808)"><path d="M635.949,84.683a2.9,2.9,0,0,0-2.957,2.844v21.9a2.959,2.959,0,0,0,5.913,0v-21.9A2.9,2.9,0,0,0,635.949,84.683Z" transform="translate(-632.992 -84.683)" fill="#335ba9"/><path d="M641.824,84.683a2.9,2.9,0,0,0-2.957,2.844v21.9a2.959,2.959,0,0,0,5.914,0v-21.9A2.9,2.9,0,0,0,641.824,84.683Z" transform="translate(-631.318 -84.683)" fill="#335ba9"/></g><rect width="7.808" height="3.747" transform="translate(7.861 37.822)" fill="#335ba9"/></g><g transform="translate(168.523 25.218)" opacity="0.2"><path d="M714.316,68.774V62.928a7.332,7.332,0,1,0-14.664,0v5.845a14.29,14.29,0,0,0-7,12.278V94.1a5.488,5.488,0,0,0,5.033,5.5v18.118a5.477,5.477,0,0,0,5.527,5.414,5.561,5.561,0,0,0,3.775-1.48,5.556,5.556,0,0,0,3.774,1.48,5.477,5.477,0,0,0,5.527-5.414V99.6a5.488,5.488,0,0,0,5.033-5.5V81.052A14.292,14.292,0,0,0,714.316,68.774Z" transform="translate(-692.649 -55.595)" fill="#fff"/><rect width="12.948" height="8.887" transform="translate(7.861 37.822)" fill="#fff"/></g><g transform="translate(171.093 27.788)" opacity="0.2"><path d="M718.178,89.108a2.923,2.923,0,0,1-2.872,2.97H697.522a2.924,2.924,0,0,1-2.873-2.97V76.06a2.9,2.9,0,0,1,2.873-2.949h17.784a2.9,2.9,0,0,1,2.872,2.949Z" transform="translate(-694.649 -53.173)" fill="#335ba9"/><path d="M718.178,78.008a11.765,11.765,0,1,1-11.764-11.733A11.721,11.721,0,0,1,718.178,78.008Z" transform="translate(-694.649 -55.121)" fill="#335ba9"/><path d="M709.623,62.358a4.762,4.762,0,1,1-4.762-4.763A4.761,4.761,0,0,1,709.623,62.358Z" transform="translate(-693.096 -57.595)" fill="#335ba9"/><g transform="translate(5.033 34.808)"><path d="M701.523,84.683a2.9,2.9,0,0,0-2.957,2.844v21.9a2.959,2.959,0,0,0,5.914,0v-21.9A2.9,2.9,0,0,0,701.523,84.683Z" transform="translate(-698.566 -84.683)" fill="#335ba9"/><path d="M707.4,84.683a2.9,2.9,0,0,0-2.957,2.844v21.9a2.959,2.959,0,0,0,5.914,0v-21.9A2.9,2.9,0,0,0,707.4,84.683Z" transform="translate(-696.892 -84.683)" fill="#335ba9"/></g><rect width="7.808" height="3.747" transform="translate(7.861 37.822)" fill="#335ba9"/></g><path d="M747.124,68.787V62.928a7.342,7.342,0,0,0-14.685,0v5.845a14.29,14.29,0,0,0-7,12.278V94.1a5.488,5.488,0,0,0,5.033,5.5v18.118A5.477,5.477,0,0,0,736,123.127a5.562,5.562,0,0,0,3.775-1.48,5.559,5.559,0,0,0,3.774,1.48,5.477,5.477,0,0,0,5.527-5.414V99.6a5.487,5.487,0,0,0,5.033-5.5V81.052A14.3,14.3,0,0,0,747.124,68.787Z" transform="translate(-514.782 -30.377)" fill="#fff" opacity="0.2"/><g transform="translate(213.224 27.788)" opacity="0.2"><path d="M750.965,89.108a2.923,2.923,0,0,1-2.872,2.97H730.309a2.924,2.924,0,0,1-2.873-2.97V76.06a2.9,2.9,0,0,1,2.873-2.949h17.784a2.9,2.9,0,0,1,2.872,2.949Z" transform="translate(-727.436 -53.173)" fill="#335ba9"/><path d="M750.965,78.008A11.765,11.765,0,1,1,739.2,66.275,11.721,11.721,0,0,1,750.965,78.008Z" transform="translate(-727.436 -55.121)" fill="#335ba9"/><path d="M742.41,62.358a4.762,4.762,0,1,1-4.762-4.763A4.761,4.761,0,0,1,742.41,62.358Z" transform="translate(-725.883 -57.595)" fill="#335ba9"/><g transform="translate(5.033 34.808)"><path d="M734.31,84.683a2.9,2.9,0,0,0-2.957,2.844v21.9a2.959,2.959,0,0,0,5.914,0v-21.9A2.9,2.9,0,0,0,734.31,84.683Z" transform="translate(-731.353 -84.683)" fill="#335ba9"/><path d="M740.185,84.683a2.9,2.9,0,0,0-2.957,2.844v21.9a2.959,2.959,0,0,0,5.913,0v-21.9A2.9,2.9,0,0,0,740.185,84.683Z" transform="translate(-729.679 -84.683)" fill="#335ba9"/></g><rect width="7.808" height="3.747" transform="translate(7.861 37.822)" fill="#335ba9"/></g><path d="M681.529,68.774V62.928a7.333,7.333,0,1,0-14.666,0v5.845a14.292,14.292,0,0,0-7,12.278V94.1a5.488,5.488,0,0,0,5.033,5.5v18.118a5.477,5.477,0,0,0,5.527,5.414,5.562,5.562,0,0,0,3.775-1.48,5.556,5.556,0,0,0,3.774,1.48,5.477,5.477,0,0,0,5.527-5.414V99.6a5.488,5.488,0,0,0,5.033-5.5V81.052A14.291,14.291,0,0,0,681.529,68.774Z" transform="translate(-533.47 -30.377)" fill="#fff" opacity="0.2"/><g transform="translate(128.962 27.788)" opacity="0.2"><path d="M685.391,89.108a2.924,2.924,0,0,1-2.873,2.97H664.735a2.924,2.924,0,0,1-2.873-2.97V76.06a2.9,2.9,0,0,1,2.873-2.949h17.783a2.9,2.9,0,0,1,2.873,2.949Z" transform="translate(-661.862 -53.173)" fill="#335ba9"/><path d="M685.391,78.008a11.765,11.765,0,1,1-11.764-11.733A11.721,11.721,0,0,1,685.391,78.008Z" transform="translate(-661.862 -55.121)" fill="#335ba9"/><path d="M676.837,62.358a4.763,4.763,0,1,1-4.762-4.763A4.761,4.761,0,0,1,676.837,62.358Z" transform="translate(-660.309 -57.595)" fill="#335ba9"/><g transform="translate(5.033 34.808)"><path d="M668.736,84.683a2.9,2.9,0,0,0-2.957,2.844v21.9a2.959,2.959,0,0,0,5.914,0v-21.9A2.9,2.9,0,0,0,668.736,84.683Z" transform="translate(-665.779 -84.683)" fill="#335ba9"/><path d="M674.611,84.683a2.9,2.9,0,0,0-2.957,2.844v21.9a2.959,2.959,0,0,0,5.914,0v-21.9A2.9,2.9,0,0,0,674.611,84.683Z" transform="translate(-664.105 -84.683)" fill="#335ba9"/></g><rect width="7.808" height="3.747" transform="translate(7.861 37.822)" fill="#335ba9"/></g><g transform="translate(147.458 37.811)" opacity="0.2"><path d="M697.922,78.573V72.728a7.332,7.332,0,1,0-14.664,0v5.844a14.291,14.291,0,0,0-7,12.279V103.9a5.49,5.49,0,0,0,5.033,5.5v18.118a5.477,5.477,0,0,0,5.527,5.414,5.559,5.559,0,0,0,3.774-1.482,5.563,5.563,0,0,0,3.775,1.482,5.477,5.477,0,0,0,5.525-5.414V109.4a5.49,5.49,0,0,0,5.033-5.5V90.852A14.291,14.291,0,0,0,697.922,78.573Z" transform="translate(-676.256 -65.395)" fill="#fff"/><rect width="12.948" height="8.888" transform="translate(7.86 37.82)" fill="#fff"/></g><g transform="translate(150.028 40.381)" opacity="0.2"><path d="M701.784,98.906a2.923,2.923,0,0,1-2.872,2.97H681.128a2.923,2.923,0,0,1-2.872-2.97V85.86a2.9,2.9,0,0,1,2.872-2.949h17.784a2.9,2.9,0,0,1,2.872,2.949Z" transform="translate(-678.256 -62.973)" fill="#335ba9"/><path d="M701.784,87.808A11.764,11.764,0,1,1,690.02,76.074,11.721,11.721,0,0,1,701.784,87.808Z" transform="translate(-678.256 -64.922)" fill="#335ba9"/><path d="M693.229,72.158a4.762,4.762,0,1,1-4.762-4.763A4.761,4.761,0,0,1,693.229,72.158Z" transform="translate(-676.703 -67.395)" fill="#335ba9"/><g transform="translate(5.033 34.808)"><path d="M685.13,94.483a2.9,2.9,0,0,0-2.957,2.844v21.9a2.958,2.958,0,0,0,5.912,0v-21.9A2.9,2.9,0,0,0,685.13,94.483Z" transform="translate(-682.173 -94.483)" fill="#335ba9"/><path d="M691,94.483a2.9,2.9,0,0,0-2.957,2.844v21.9a2.958,2.958,0,0,0,5.912,0v-21.9A2.9,2.9,0,0,0,691,94.483Z" transform="translate(-680.499 -94.483)" fill="#335ba9"/></g><rect width="7.808" height="3.748" transform="translate(7.86 37.82)" fill="#335ba9"/></g><path d="M730.731,78.587V72.728a7.343,7.343,0,0,0-14.686,0v5.844a14.291,14.291,0,0,0-7,12.279V103.9a5.49,5.49,0,0,0,5.033,5.5v18.118a5.478,5.478,0,0,0,5.527,5.414,5.559,5.559,0,0,0,3.774-1.482,5.563,5.563,0,0,0,3.775,1.482,5.477,5.477,0,0,0,5.525-5.414V109.4a5.49,5.49,0,0,0,5.033-5.5V90.852A14.292,14.292,0,0,0,730.731,78.587Z" transform="translate(-519.454 -27.584)" fill="#fff" opacity="0.2"/><g transform="translate(192.159 40.381)" opacity="0.2"><path d="M734.571,98.906a2.923,2.923,0,0,1-2.872,2.97H713.915a2.923,2.923,0,0,1-2.872-2.97V85.86a2.9,2.9,0,0,1,2.872-2.949H731.7a2.9,2.9,0,0,1,2.872,2.949Z" transform="translate(-711.043 -62.973)" fill="#335ba9"/><path d="M734.571,87.808a11.764,11.764,0,1,1-11.764-11.734A11.721,11.721,0,0,1,734.571,87.808Z" transform="translate(-711.043 -64.922)" fill="#335ba9"/><path d="M726.016,72.158a4.762,4.762,0,1,1-4.762-4.763A4.761,4.761,0,0,1,726.016,72.158Z" transform="translate(-709.49 -67.395)" fill="#335ba9"/><g transform="translate(5.033 34.808)"><path d="M717.917,94.483a2.9,2.9,0,0,0-2.957,2.844v21.9a2.958,2.958,0,0,0,5.912,0v-21.9A2.9,2.9,0,0,0,717.917,94.483Z" transform="translate(-714.96 -94.483)" fill="#335ba9"/><path d="M723.792,94.483a2.9,2.9,0,0,0-2.957,2.844v21.9a2.958,2.958,0,0,0,5.912,0v-21.9A2.9,2.9,0,0,0,723.792,94.483Z" transform="translate(-713.286 -94.483)" fill="#335ba9"/></g><rect width="7.808" height="3.748" transform="translate(7.86 37.82)" fill="#335ba9"/></g><path d="M665.135,78.573V72.728a7.332,7.332,0,1,0-14.664,0v5.844a14.291,14.291,0,0,0-7,12.279V103.9a5.49,5.49,0,0,0,5.033,5.5v18.118a5.477,5.477,0,0,0,5.525,5.414,5.563,5.563,0,0,0,3.775-1.482,5.559,5.559,0,0,0,3.774,1.482,5.477,5.477,0,0,0,5.527-5.414V109.4a5.49,5.49,0,0,0,5.033-5.5V90.852A14.291,14.291,0,0,0,665.135,78.573Z" transform="translate(-538.141 -27.584)" fill="#fff" opacity="0.2"/><g transform="translate(107.898 40.381)" opacity="0.2"><path d="M669,98.906a2.923,2.923,0,0,1-2.872,2.97H648.341a2.923,2.923,0,0,1-2.872-2.97V85.86a2.9,2.9,0,0,1,2.872-2.949h17.784A2.9,2.9,0,0,1,669,85.86Z" transform="translate(-645.469 -62.973)" fill="#335ba9"/><path d="M669,87.808a11.764,11.764,0,1,1-11.764-11.734A11.721,11.721,0,0,1,669,87.808Z" transform="translate(-645.469 -64.922)" fill="#335ba9"/><path d="M660.442,72.158A4.762,4.762,0,1,1,655.68,67.4,4.761,4.761,0,0,1,660.442,72.158Z" transform="translate(-643.916 -67.395)" fill="#335ba9"/><g transform="translate(5.033 34.808)"><path d="M652.341,94.483a2.9,2.9,0,0,0-2.955,2.844v21.9a2.958,2.958,0,0,0,5.912,0v-21.9A2.9,2.9,0,0,0,652.341,94.483Z" transform="translate(-649.386 -94.483)" fill="#335ba9"/><path d="M658.216,94.483a2.9,2.9,0,0,0-2.955,2.844v21.9a2.958,2.958,0,0,0,5.912,0v-21.9A2.9,2.9,0,0,0,658.216,94.483Z" transform="translate(-647.712 -94.483)" fill="#335ba9"/></g><rect width="7.808" height="3.748" transform="translate(7.86 37.82)" fill="#335ba9"/></g><g transform="translate(231.72 37.811)" opacity="0.2"><path d="M763.518,78.587V72.728a7.343,7.343,0,0,0-14.686,0v5.844a14.294,14.294,0,0,0-7,12.279V103.9a5.49,5.49,0,0,0,5.033,5.5v18.118a5.478,5.478,0,0,0,5.527,5.414,5.549,5.549,0,0,1,7.549,0,5.478,5.478,0,0,0,5.527-5.414V109.4a5.491,5.491,0,0,0,5.033-5.5V90.852A14.293,14.293,0,0,0,763.518,78.587Z" transform="translate(-741.83 -65.395)" fill="#fff"/><g transform="translate(2.57 2.57)"><path d="M767.359,98.906a2.923,2.923,0,0,1-2.873,2.97H746.7a2.923,2.923,0,0,1-2.872-2.97V85.86a2.9,2.9,0,0,1,2.872-2.949h17.784a2.9,2.9,0,0,1,2.873,2.949Z" transform="translate(-743.83 -62.973)" fill="#335ba9"/><path d="M767.359,87.808a11.765,11.765,0,1,1-11.765-11.734A11.722,11.722,0,0,1,767.359,87.808Z" transform="translate(-743.83 -64.922)" fill="#335ba9"/><path d="M758.8,72.158a4.762,4.762,0,1,1-4.762-4.763A4.761,4.761,0,0,1,758.8,72.158Z" transform="translate(-742.277 -67.395)" fill="#335ba9"/><g transform="translate(5.033 34.808)"><path d="M750.7,94.483a2.9,2.9,0,0,0-2.957,2.844v21.9a2.959,2.959,0,0,0,5.913,0v-21.9A2.9,2.9,0,0,0,750.7,94.483Z" transform="translate(-747.747 -94.483)" fill="#335ba9"/><path d="M756.579,94.483a2.9,2.9,0,0,0-2.957,2.844v21.9a2.959,2.959,0,0,0,5.914,0v-21.9A2.9,2.9,0,0,0,756.579,94.483Z" transform="translate(-746.073 -94.483)" fill="#335ba9"/></g><rect width="7.808" height="3.748" transform="translate(7.861 37.82)" fill="#335ba9"/></g></g><g transform="translate(168.523 50.402)" opacity="0.5"><path d="M714.316,88.373V82.527a7.332,7.332,0,1,0-14.664,0v5.845a14.289,14.289,0,0,0-7,12.277V113.7a5.489,5.489,0,0,0,5.033,5.5v18.118a5.476,5.476,0,0,0,5.527,5.412,5.561,5.561,0,0,0,3.775-1.48,5.556,5.556,0,0,0,3.774,1.48,5.476,5.476,0,0,0,5.527-5.412V119.194a5.489,5.489,0,0,0,5.033-5.5V100.65A14.291,14.291,0,0,0,714.316,88.373Z" transform="translate(-692.649 -75.194)" fill="#fff"/><rect width="12.948" height="8.887" transform="translate(7.861 37.821)" fill="#fff"/></g><g transform="translate(171.093 52.972)" opacity="0.5"><path d="M718.178,108.707a2.922,2.922,0,0,1-2.872,2.968H697.522a2.923,2.923,0,0,1-2.873-2.968V95.658a2.9,2.9,0,0,1,2.873-2.949h17.784a2.9,2.9,0,0,1,2.872,2.949Z" transform="translate(-694.649 -72.772)" fill="#335ba9"/><path d="M718.178,97.606a11.765,11.765,0,1,1-11.764-11.733A11.721,11.721,0,0,1,718.178,97.606Z" transform="translate(-694.649 -74.721)" fill="#335ba9"/><path d="M709.623,81.957a4.762,4.762,0,1,1-4.762-4.763A4.761,4.761,0,0,1,709.623,81.957Z" transform="translate(-693.096 -77.194)" fill="#335ba9"/><g transform="translate(5.033 34.808)"><path d="M701.523,104.282a2.9,2.9,0,0,0-2.957,2.844v21.9a2.959,2.959,0,0,0,5.914,0v-21.9A2.9,2.9,0,0,0,701.523,104.282Z" transform="translate(-698.566 -104.282)" fill="#335ba9"/><path d="M707.4,104.282a2.9,2.9,0,0,0-2.957,2.844v21.9a2.959,2.959,0,0,0,5.914,0v-21.9A2.9,2.9,0,0,0,707.4,104.282Z" transform="translate(-696.892 -104.282)" fill="#335ba9"/></g><rect width="7.808" height="3.747" transform="translate(7.861 37.821)" fill="#335ba9"/></g><path d="M747.124,88.384V82.527a7.342,7.342,0,0,0-14.685,0v5.845a14.289,14.289,0,0,0-7,12.277V113.7a5.489,5.489,0,0,0,5.033,5.5v18.118A5.476,5.476,0,0,0,736,142.725a5.562,5.562,0,0,0,3.775-1.48,5.559,5.559,0,0,0,3.774,1.48,5.476,5.476,0,0,0,5.527-5.412V119.194a5.488,5.488,0,0,0,5.033-5.5V100.65A14.3,14.3,0,0,0,747.124,88.384Z" transform="translate(-514.782 -24.792)" fill="#fff" opacity="0.5"/><g transform="translate(213.224 52.972)" opacity="0.5"><path d="M750.965,108.707a2.922,2.922,0,0,1-2.872,2.968H730.309a2.923,2.923,0,0,1-2.873-2.968V95.658a2.9,2.9,0,0,1,2.873-2.949h17.784a2.9,2.9,0,0,1,2.872,2.949Z" transform="translate(-727.436 -72.772)" fill="#335ba9"/><path d="M750.965,97.606A11.765,11.765,0,1,1,739.2,85.873,11.721,11.721,0,0,1,750.965,97.606Z" transform="translate(-727.436 -74.721)" fill="#335ba9"/><path d="M742.41,81.957a4.762,4.762,0,1,1-4.762-4.763A4.761,4.761,0,0,1,742.41,81.957Z" transform="translate(-725.883 -77.194)" fill="#335ba9"/><g transform="translate(5.033 34.808)"><path d="M734.31,104.282a2.9,2.9,0,0,0-2.957,2.844v21.9a2.959,2.959,0,0,0,5.914,0v-21.9A2.9,2.9,0,0,0,734.31,104.282Z" transform="translate(-731.353 -104.282)" fill="#335ba9"/><path d="M740.185,104.282a2.9,2.9,0,0,0-2.957,2.844v21.9a2.959,2.959,0,0,0,5.913,0v-21.9A2.9,2.9,0,0,0,740.185,104.282Z" transform="translate(-729.679 -104.282)" fill="#335ba9"/></g><rect width="7.808" height="3.747" transform="translate(7.861 37.821)" fill="#335ba9"/></g><path d="M681.529,88.373V82.527a7.333,7.333,0,1,0-14.666,0v5.845a14.291,14.291,0,0,0-7,12.277V113.7a5.489,5.489,0,0,0,5.033,5.5v18.118a5.476,5.476,0,0,0,5.527,5.412,5.562,5.562,0,0,0,3.775-1.48,5.556,5.556,0,0,0,3.774,1.48,5.476,5.476,0,0,0,5.527-5.412V119.194a5.489,5.489,0,0,0,5.033-5.5V100.65A14.291,14.291,0,0,0,681.529,88.373Z" transform="translate(-533.47 -24.792)" fill="#fff" opacity="0.5"/><g transform="translate(128.962 52.972)" opacity="0.5"><path d="M685.391,108.707a2.922,2.922,0,0,1-2.873,2.968H664.735a2.922,2.922,0,0,1-2.873-2.968V95.658a2.9,2.9,0,0,1,2.873-2.949h17.783a2.9,2.9,0,0,1,2.873,2.949Z" transform="translate(-661.862 -72.772)" fill="#335ba9"/><path d="M685.391,97.606a11.765,11.765,0,1,1-11.764-11.733A11.721,11.721,0,0,1,685.391,97.606Z" transform="translate(-661.862 -74.721)" fill="#335ba9"/><path d="M676.837,81.957a4.763,4.763,0,1,1-4.762-4.763A4.761,4.761,0,0,1,676.837,81.957Z" transform="translate(-660.309 -77.194)" fill="#335ba9"/><g transform="translate(5.033 34.808)"><path d="M668.736,104.282a2.9,2.9,0,0,0-2.957,2.844v21.9a2.959,2.959,0,0,0,5.914,0v-21.9A2.9,2.9,0,0,0,668.736,104.282Z" transform="translate(-665.779 -104.282)" fill="#335ba9"/><path d="M674.611,104.282a2.9,2.9,0,0,0-2.957,2.844v21.9a2.959,2.959,0,0,0,5.914,0v-21.9A2.9,2.9,0,0,0,674.611,104.282Z" transform="translate(-664.105 -104.282)" fill="#335ba9"/></g><rect width="7.808" height="3.747" transform="translate(7.861 37.821)" fill="#335ba9"/></g><g transform="translate(231.72 63.028)"><path d="M763.518,98.212V92.353a7.343,7.343,0,0,0-14.686,0V98.2a14.294,14.294,0,0,0-7,12.279v13.046a5.49,5.49,0,0,0,5.033,5.5v18.118a5.478,5.478,0,0,0,5.527,5.414,5.549,5.549,0,0,1,7.549,0,5.478,5.478,0,0,0,5.527-5.414V129.02a5.491,5.491,0,0,0,5.033-5.5V110.477A14.293,14.293,0,0,0,763.518,98.212Z" transform="translate(-741.83 -85.02)" fill="#fff"/><g transform="translate(2.57 2.57)"><path d="M767.359,118.531a2.923,2.923,0,0,1-2.873,2.97H746.7a2.923,2.923,0,0,1-2.872-2.97V105.485a2.9,2.9,0,0,1,2.872-2.949h17.784a2.9,2.9,0,0,1,2.873,2.949Z" transform="translate(-743.83 -82.598)" fill="#335ba9"/><path d="M767.359,107.433A11.765,11.765,0,1,1,755.594,95.7,11.722,11.722,0,0,1,767.359,107.433Z" transform="translate(-743.83 -84.547)" fill="#335ba9"/><path d="M758.8,91.783a4.762,4.762,0,1,1-4.762-4.763A4.761,4.761,0,0,1,758.8,91.783Z" transform="translate(-742.277 -87.02)" fill="#335ba9"/><g transform="translate(5.033 34.808)"><path d="M750.7,114.108a2.9,2.9,0,0,0-2.957,2.844v21.9a2.959,2.959,0,0,0,5.913,0v-21.9A2.9,2.9,0,0,0,750.7,114.108Z" transform="translate(-747.747 -114.108)" fill="#335ba9"/><path d="M756.579,114.108a2.9,2.9,0,0,0-2.957,2.844v21.9a2.959,2.959,0,0,0,5.914,0v-21.9A2.9,2.9,0,0,0,756.579,114.108Z" transform="translate(-746.073 -114.108)" fill="#335ba9"/></g><rect width="7.808" height="3.748" transform="translate(7.861 37.82)" fill="#335ba9"/></g></g><g transform="translate(21.065 12.714)" opacity="0.2"><path d="M599.582,59.054V53.2a7.342,7.342,0,0,0-14.685,0v5.844a14.292,14.292,0,0,0-7,12.278V84.367a5.491,5.491,0,0,0,5.033,5.5v18.118a5.477,5.477,0,0,0,5.527,5.412,5.561,5.561,0,0,0,3.775-1.48A5.558,5.558,0,0,0,596,113.4a5.477,5.477,0,0,0,5.527-5.412V89.864a5.49,5.49,0,0,0,5.033-5.5V71.32A14.294,14.294,0,0,0,599.582,59.054Z" transform="translate(-577.894 -45.864)" fill="#fff"/><g transform="translate(2.57 2.57)"><path d="M603.423,79.376a2.923,2.923,0,0,1-2.872,2.97H582.767a2.923,2.923,0,0,1-2.873-2.97V66.328a2.9,2.9,0,0,1,2.873-2.949h17.784a2.9,2.9,0,0,1,2.872,2.949Z" transform="translate(-579.894 -43.442)" fill="#335ba9"/><path d="M603.423,68.276a11.765,11.765,0,1,1-11.764-11.734A11.723,11.723,0,0,1,603.423,68.276Z" transform="translate(-579.894 -45.391)" fill="#335ba9"/><path d="M594.868,52.627a4.762,4.762,0,1,1-4.762-4.763A4.761,4.761,0,0,1,594.868,52.627Z" transform="translate(-578.341 -47.864)" fill="#335ba9"/><g transform="translate(5.033 34.808)"><path d="M586.768,74.952a2.9,2.9,0,0,0-2.957,2.844v21.9a2.959,2.959,0,0,0,5.914,0V77.8A2.9,2.9,0,0,0,586.768,74.952Z" transform="translate(-583.811 -74.952)" fill="#335ba9"/><path d="M592.643,74.952a2.9,2.9,0,0,0-2.957,2.844v21.9a2.959,2.959,0,0,0,5.914,0V77.8A2.9,2.9,0,0,0,592.643,74.952Z" transform="translate(-582.137 -74.952)" fill="#335ba9"/></g><rect width="7.808" height="3.748" transform="translate(7.861 37.82)" fill="#335ba9"/></g></g><path d="M615.954,68.774V62.928a7.332,7.332,0,1,0-14.664,0v5.845a14.291,14.291,0,0,0-7,12.278V94.1a5.487,5.487,0,0,0,5.033,5.5v18.118a5.477,5.477,0,0,0,5.527,5.414,5.556,5.556,0,0,0,3.774-1.48,5.562,5.562,0,0,0,3.775,1.48,5.477,5.477,0,0,0,5.527-5.414V99.6a5.488,5.488,0,0,0,5.033-5.5V81.052A14.29,14.29,0,0,0,615.954,68.774Z" transform="translate(-552.157 -30.377)" fill="#fff" opacity="0.2"/><g transform="translate(44.701 27.788)" opacity="0.2"><path d="M619.817,89.108a2.924,2.924,0,0,1-2.873,2.97H599.16a2.923,2.923,0,0,1-2.872-2.97V76.06a2.9,2.9,0,0,1,2.872-2.949h17.784a2.9,2.9,0,0,1,2.873,2.949Z" transform="translate(-596.288 -53.173)" fill="#335ba9"/><path d="M619.817,78.008a11.765,11.765,0,1,1-11.765-11.733A11.721,11.721,0,0,1,619.817,78.008Z" transform="translate(-596.288 -55.121)" fill="#335ba9"/><path d="M611.261,62.358A4.762,4.762,0,1,1,606.5,57.6,4.761,4.761,0,0,1,611.261,62.358Z" transform="translate(-594.735 -57.595)" fill="#335ba9"/><g transform="translate(5.033 34.808)"><path d="M603.162,84.683a2.9,2.9,0,0,0-2.957,2.844v21.9a2.959,2.959,0,0,0,5.914,0v-21.9A2.9,2.9,0,0,0,603.162,84.683Z" transform="translate(-600.205 -84.683)" fill="#335ba9"/><path d="M609.037,84.683a2.9,2.9,0,0,0-2.957,2.844v21.9a2.959,2.959,0,0,0,5.913,0v-21.9A2.9,2.9,0,0,0,609.037,84.683Z" transform="translate(-598.531 -84.683)" fill="#335ba9"/></g><rect width="7.808" height="3.747" transform="translate(7.861 37.822)" fill="#335ba9"/></g><g transform="translate(63.197 37.811)" opacity="0.2"><path d="M632.348,78.573V72.728a7.332,7.332,0,1,0-14.664,0v5.844a14.291,14.291,0,0,0-7,12.279V103.9a5.49,5.49,0,0,0,5.033,5.5v18.118a5.477,5.477,0,0,0,5.525,5.414,5.563,5.563,0,0,0,3.775-1.482,5.56,5.56,0,0,0,3.774,1.482,5.478,5.478,0,0,0,5.527-5.414V109.4a5.49,5.49,0,0,0,5.033-5.5V90.852A14.291,14.291,0,0,0,632.348,78.573Z" transform="translate(-610.682 -65.395)" fill="#fff"/><rect width="12.948" height="8.888" transform="translate(7.86 37.82)" fill="#fff"/><g transform="translate(2.57 2.57)"><path d="M636.21,98.906a2.923,2.923,0,0,1-2.872,2.97H615.554a2.923,2.923,0,0,1-2.872-2.97V85.86a2.9,2.9,0,0,1,2.872-2.949h17.784a2.9,2.9,0,0,1,2.872,2.949Z" transform="translate(-612.682 -62.973)" fill="#335ba9"/><path d="M636.21,87.808a11.764,11.764,0,1,1-11.764-11.734A11.721,11.721,0,0,1,636.21,87.808Z" transform="translate(-612.682 -64.922)" fill="#335ba9"/><path d="M627.655,72.158a4.762,4.762,0,1,1-4.762-4.763A4.761,4.761,0,0,1,627.655,72.158Z" transform="translate(-611.129 -67.395)" fill="#335ba9"/><g transform="translate(5.033 34.808)"><path d="M619.554,94.483a2.9,2.9,0,0,0-2.955,2.844v21.9a2.958,2.958,0,0,0,5.912,0v-21.9A2.9,2.9,0,0,0,619.554,94.483Z" transform="translate(-616.599 -94.483)" fill="#335ba9"/><path d="M625.429,94.483a2.9,2.9,0,0,0-2.955,2.844v21.9a2.958,2.958,0,0,0,5.912,0v-21.9A2.9,2.9,0,0,0,625.429,94.483Z" transform="translate(-614.925 -94.483)" fill="#335ba9"/></g><rect width="7.808" height="3.748" transform="translate(7.86 37.82)" fill="#335ba9"/></g></g><g transform="translate(84.262 50.402)" opacity="0.5"><path d="M648.741,88.373V82.527a7.332,7.332,0,1,0-14.664,0v5.845a14.291,14.291,0,0,0-7,12.277V113.7a5.489,5.489,0,0,0,5.033,5.5v18.118a5.476,5.476,0,0,0,5.527,5.412,5.556,5.556,0,0,0,3.774-1.48,5.562,5.562,0,0,0,3.775,1.48,5.476,5.476,0,0,0,5.527-5.412V119.194a5.489,5.489,0,0,0,5.033-5.5V100.65A14.289,14.289,0,0,0,648.741,88.373Z" transform="translate(-627.075 -75.194)" fill="#fff"/><rect width="12.948" height="8.887" transform="translate(7.861 37.821)" fill="#fff"/></g><g transform="translate(86.832 52.972)" opacity="0.5"><path d="M652.6,108.707a2.922,2.922,0,0,1-2.873,2.968H631.947a2.922,2.922,0,0,1-2.872-2.968V95.658a2.9,2.9,0,0,1,2.872-2.949h17.784a2.9,2.9,0,0,1,2.873,2.949Z" transform="translate(-629.075 -72.772)" fill="#335ba9"/><path d="M652.6,97.606a11.765,11.765,0,1,1-11.765-11.733A11.722,11.722,0,0,1,652.6,97.606Z" transform="translate(-629.075 -74.721)" fill="#335ba9"/><path d="M644.048,81.957a4.762,4.762,0,1,1-4.762-4.763A4.761,4.761,0,0,1,644.048,81.957Z" transform="translate(-627.522 -77.194)" fill="#335ba9"/><g transform="translate(5.033 34.808)"><path d="M635.949,104.282a2.9,2.9,0,0,0-2.957,2.844v21.9a2.959,2.959,0,0,0,5.913,0v-21.9A2.9,2.9,0,0,0,635.949,104.282Z" transform="translate(-632.992 -104.282)" fill="#335ba9"/><path d="M641.824,104.282a2.9,2.9,0,0,0-2.957,2.844v21.9a2.959,2.959,0,0,0,5.914,0v-21.9A2.9,2.9,0,0,0,641.824,104.282Z" transform="translate(-631.318 -104.282)" fill="#335ba9"/></g><rect width="7.808" height="3.747" transform="translate(7.861 37.821)" fill="#335ba9"/></g><g transform="translate(21.065 37.897)" opacity="0.2"><path d="M599.582,78.654V72.8a7.342,7.342,0,0,0-14.685,0V78.64a14.294,14.294,0,0,0-7,12.279v13.046a5.491,5.491,0,0,0,5.033,5.5v18.117a5.478,5.478,0,0,0,5.527,5.414,5.561,5.561,0,0,0,3.775-1.48,5.558,5.558,0,0,0,3.774,1.48,5.478,5.478,0,0,0,5.527-5.414V109.464a5.49,5.49,0,0,0,5.033-5.5V90.919A14.293,14.293,0,0,0,599.582,78.654Z" transform="translate(-577.894 -65.462)" fill="#fff"/><g transform="translate(2.57 2.57)"><path d="M603.423,98.973a2.923,2.923,0,0,1-2.872,2.971H582.767a2.923,2.923,0,0,1-2.873-2.971V85.927a2.9,2.9,0,0,1,2.873-2.949h17.784a2.9,2.9,0,0,1,2.872,2.949Z" transform="translate(-579.894 -63.04)" fill="#335ba9"/><path d="M603.423,87.875a11.765,11.765,0,1,1-11.764-11.734A11.723,11.723,0,0,1,603.423,87.875Z" transform="translate(-579.894 -64.989)" fill="#335ba9"/><path d="M594.868,72.225a4.762,4.762,0,1,1-4.762-4.763A4.761,4.761,0,0,1,594.868,72.225Z" transform="translate(-578.341 -67.462)" fill="#335ba9"/><g transform="translate(5.033 34.808)"><path d="M586.768,94.55a2.9,2.9,0,0,0-2.957,2.844v21.9a2.959,2.959,0,0,0,5.914,0v-21.9A2.9,2.9,0,0,0,586.768,94.55Z" transform="translate(-583.811 -94.55)" fill="#335ba9"/><path d="M592.643,94.55a2.9,2.9,0,0,0-2.957,2.844v21.9a2.959,2.959,0,0,0,5.914,0v-21.9A2.9,2.9,0,0,0,592.643,94.55Z" transform="translate(-582.137 -94.55)" fill="#335ba9"/></g><rect width="7.808" height="3.748" transform="translate(7.861 37.821)" fill="#335ba9"/></g></g><path d="M615.954,88.373V82.527a7.332,7.332,0,1,0-14.664,0v5.845a14.291,14.291,0,0,0-7,12.277V113.7a5.488,5.488,0,0,0,5.033,5.5v18.118a5.476,5.476,0,0,0,5.527,5.412,5.556,5.556,0,0,0,3.774-1.48,5.562,5.562,0,0,0,3.775,1.48,5.476,5.476,0,0,0,5.527-5.412V119.194a5.489,5.489,0,0,0,5.033-5.5V100.65A14.289,14.289,0,0,0,615.954,88.373Z" transform="translate(-552.157 -24.792)" fill="#fff" opacity="0.5"/><g transform="translate(44.701 52.972)" opacity="0.5"><path d="M619.817,108.707a2.922,2.922,0,0,1-2.873,2.968H599.16a2.922,2.922,0,0,1-2.872-2.968V95.658a2.9,2.9,0,0,1,2.872-2.949h17.784a2.9,2.9,0,0,1,2.873,2.949Z" transform="translate(-596.288 -72.772)" fill="#335ba9"/><path d="M619.817,97.606a11.765,11.765,0,1,1-11.765-11.733A11.722,11.722,0,0,1,619.817,97.606Z" transform="translate(-596.288 -74.721)" fill="#335ba9"/><path d="M611.261,81.957a4.762,4.762,0,1,1-4.762-4.763A4.761,4.761,0,0,1,611.261,81.957Z" transform="translate(-594.735 -77.194)" fill="#335ba9"/><g transform="translate(5.033 34.808)"><path d="M603.162,104.282a2.9,2.9,0,0,0-2.957,2.844v21.9a2.959,2.959,0,0,0,5.914,0v-21.9A2.9,2.9,0,0,0,603.162,104.282Z" transform="translate(-600.205 -104.282)" fill="#335ba9"/><path d="M609.037,104.282a2.9,2.9,0,0,0-2.957,2.844v21.9a2.959,2.959,0,0,0,5.913,0v-21.9A2.9,2.9,0,0,0,609.037,104.282Z" transform="translate(-598.531 -104.282)" fill="#335ba9"/></g><rect width="7.808" height="3.747" transform="translate(7.861 37.821)" fill="#335ba9"/></g><g transform="translate(63.197 62.995)" opacity="0.5"><path d="M632.348,98.17V92.327a7.332,7.332,0,1,0-14.664,0V98.17a14.294,14.294,0,0,0-7,12.279V123.5a5.49,5.49,0,0,0,5.033,5.5v18.117a5.476,5.476,0,0,0,5.525,5.414,5.562,5.562,0,0,0,3.775-1.48,5.558,5.558,0,0,0,3.774,1.48,5.477,5.477,0,0,0,5.527-5.414V128.994a5.49,5.49,0,0,0,5.033-5.5V110.45A14.294,14.294,0,0,0,632.348,98.17Z" transform="translate(-610.682 -84.994)" fill="#fff"/><rect width="12.948" height="8.888" transform="translate(7.86 37.82)" fill="#fff"/></g><g transform="translate(65.767 65.565)" opacity="0.5"><path d="M636.21,118.506a2.922,2.922,0,0,1-2.872,2.97H615.554a2.922,2.922,0,0,1-2.872-2.97V105.458a2.9,2.9,0,0,1,2.872-2.949h17.784a2.9,2.9,0,0,1,2.872,2.949Z" transform="translate(-612.682 -82.572)" fill="#335ba9"/><path d="M636.21,107.406a11.764,11.764,0,1,1-11.764-11.734A11.722,11.722,0,0,1,636.21,107.406Z" transform="translate(-612.682 -84.521)" fill="#335ba9"/><path d="M627.655,91.757a4.762,4.762,0,1,1-4.762-4.763A4.761,4.761,0,0,1,627.655,91.757Z" transform="translate(-611.129 -86.994)" fill="#335ba9"/><g transform="translate(5.033 34.808)"><path d="M619.554,114.082a2.9,2.9,0,0,0-2.955,2.842v21.9a2.958,2.958,0,0,0,5.912,0v-21.9A2.9,2.9,0,0,0,619.554,114.082Z" transform="translate(-616.599 -114.082)" fill="#335ba9"/><path d="M625.429,114.082a2.9,2.9,0,0,0-2.955,2.842v21.9a2.958,2.958,0,0,0,5.912,0v-21.9A2.9,2.9,0,0,0,625.429,114.082Z" transform="translate(-614.925 -114.082)" fill="#335ba9"/></g><rect width="7.808" height="3.748" transform="translate(7.86 37.82)" fill="#335ba9"/></g><g transform="translate(147.458 62.995)" opacity="0.5"><path d="M697.922,98.17V92.327a7.332,7.332,0,1,0-14.664,0V98.17a14.294,14.294,0,0,0-7,12.279V123.5a5.49,5.49,0,0,0,5.033,5.5v18.117a5.476,5.476,0,0,0,5.527,5.414,5.558,5.558,0,0,0,3.774-1.48,5.561,5.561,0,0,0,3.775,1.48,5.476,5.476,0,0,0,5.525-5.414V128.994a5.49,5.49,0,0,0,5.033-5.5V110.45A14.294,14.294,0,0,0,697.922,98.17Z" transform="translate(-676.256 -84.994)" fill="#fff"/><rect width="12.948" height="8.888" transform="translate(7.86 37.82)" fill="#fff"/></g><g transform="translate(150.028 65.565)" opacity="0.5"><path d="M701.784,118.506a2.923,2.923,0,0,1-2.872,2.97H681.128a2.923,2.923,0,0,1-2.872-2.97V105.458a2.9,2.9,0,0,1,2.872-2.949h17.784a2.9,2.9,0,0,1,2.872,2.949Z" transform="translate(-678.256 -82.572)" fill="#335ba9"/><path d="M701.784,107.406A11.764,11.764,0,1,1,690.02,95.672,11.722,11.722,0,0,1,701.784,107.406Z" transform="translate(-678.256 -84.521)" fill="#335ba9"/><path d="M693.229,91.757a4.762,4.762,0,1,1-4.762-4.763A4.761,4.761,0,0,1,693.229,91.757Z" transform="translate(-676.703 -86.994)" fill="#335ba9"/><g transform="translate(5.033 34.808)"><path d="M685.13,114.082a2.9,2.9,0,0,0-2.957,2.842v21.9a2.958,2.958,0,0,0,5.912,0v-21.9A2.9,2.9,0,0,0,685.13,114.082Z" transform="translate(-682.173 -114.082)" fill="#335ba9"/><path d="M691,114.082a2.9,2.9,0,0,0-2.957,2.842v21.9a2.958,2.958,0,0,0,5.912,0v-21.9A2.9,2.9,0,0,0,691,114.082Z" transform="translate(-680.499 -114.082)" fill="#335ba9"/></g><rect width="7.808" height="3.748" transform="translate(7.86 37.82)" fill="#335ba9"/></g><path d="M730.731,98.184V92.327a7.343,7.343,0,0,0-14.686,0V98.17a14.294,14.294,0,0,0-7,12.279V123.5a5.49,5.49,0,0,0,5.033,5.5v18.117a5.477,5.477,0,0,0,5.527,5.414,5.558,5.558,0,0,0,3.774-1.48,5.562,5.562,0,0,0,3.775,1.48,5.476,5.476,0,0,0,5.525-5.414V128.994a5.49,5.49,0,0,0,5.033-5.5V110.45A14.293,14.293,0,0,0,730.731,98.184Z" transform="translate(-519.454 -21.999)" fill="#fff" opacity="0.5"/><g transform="translate(192.159 65.565)" opacity="0.5"><path d="M734.571,118.506a2.923,2.923,0,0,1-2.872,2.97H713.915a2.923,2.923,0,0,1-2.872-2.97V105.458a2.9,2.9,0,0,1,2.872-2.949H731.7a2.9,2.9,0,0,1,2.872,2.949Z" transform="translate(-711.043 -82.572)" fill="#335ba9"/><path d="M734.571,107.406a11.764,11.764,0,1,1-11.764-11.734A11.722,11.722,0,0,1,734.571,107.406Z" transform="translate(-711.043 -84.521)" fill="#335ba9"/><path d="M726.016,91.757a4.762,4.762,0,1,1-4.762-4.763A4.761,4.761,0,0,1,726.016,91.757Z" transform="translate(-709.49 -86.994)" fill="#335ba9"/><g transform="translate(5.033 34.808)"><path d="M717.917,114.082a2.9,2.9,0,0,0-2.957,2.842v21.9a2.958,2.958,0,0,0,5.912,0v-21.9A2.9,2.9,0,0,0,717.917,114.082Z" transform="translate(-714.96 -114.082)" fill="#335ba9"/><path d="M723.792,114.082a2.9,2.9,0,0,0-2.957,2.842v21.9a2.958,2.958,0,0,0,5.912,0v-21.9A2.9,2.9,0,0,0,723.792,114.082Z" transform="translate(-713.286 -114.082)" fill="#335ba9"/></g><rect width="7.808" height="3.748" transform="translate(7.86 37.82)" fill="#335ba9"/></g><path d="M665.135,98.17V92.327a7.332,7.332,0,1,0-14.664,0V98.17a14.294,14.294,0,0,0-7,12.279V123.5a5.49,5.49,0,0,0,5.033,5.5v18.117a5.476,5.476,0,0,0,5.525,5.414,5.561,5.561,0,0,0,3.775-1.48,5.558,5.558,0,0,0,3.774,1.48,5.476,5.476,0,0,0,5.527-5.414V128.994a5.49,5.49,0,0,0,5.033-5.5V110.45A14.294,14.294,0,0,0,665.135,98.17Z" transform="translate(-538.141 -21.999)" fill="#fff" opacity="0.5"/><g transform="translate(107.898 65.565)" opacity="0.5"><path d="M669,118.506a2.923,2.923,0,0,1-2.872,2.97H648.341a2.923,2.923,0,0,1-2.872-2.97V105.458a2.9,2.9,0,0,1,2.872-2.949h17.784A2.9,2.9,0,0,1,669,105.458Z" transform="translate(-645.469 -82.572)" fill="#335ba9"/><path d="M669,107.406a11.764,11.764,0,1,1-11.764-11.734A11.722,11.722,0,0,1,669,107.406Z" transform="translate(-645.469 -84.521)" fill="#335ba9"/><path d="M660.442,91.757a4.762,4.762,0,1,1-4.762-4.763A4.761,4.761,0,0,1,660.442,91.757Z" transform="translate(-643.916 -86.994)" fill="#335ba9"/><g transform="translate(5.033 34.808)"><path d="M652.341,114.082a2.9,2.9,0,0,0-2.955,2.842v21.9a2.958,2.958,0,0,0,5.912,0v-21.9A2.9,2.9,0,0,0,652.341,114.082Z" transform="translate(-649.386 -114.082)" fill="#335ba9"/><path d="M658.216,114.082a2.9,2.9,0,0,0-2.955,2.842v21.9a2.958,2.958,0,0,0,5.912,0v-21.9A2.9,2.9,0,0,0,658.216,114.082Z" transform="translate(-647.712 -114.082)" fill="#335ba9"/></g><rect width="7.808" height="3.748" transform="translate(7.86 37.82)" fill="#335ba9"/></g><g transform="translate(168.523 75.62)"><path d="M714.316,108v-5.845a7.332,7.332,0,1,0-14.664,0V108a14.289,14.289,0,0,0-7,12.277v13.049a5.489,5.489,0,0,0,5.033,5.5v18.118a5.476,5.476,0,0,0,5.527,5.412,5.561,5.561,0,0,0,3.775-1.48,5.556,5.556,0,0,0,3.774,1.48,5.476,5.476,0,0,0,5.527-5.412V138.819a5.489,5.489,0,0,0,5.033-5.5V120.275A14.291,14.291,0,0,0,714.316,108Z" transform="translate(-692.649 -94.819)" fill="#fff"/><rect width="12.948" height="8.887" transform="translate(7.861 37.821)" fill="#fff"/></g><g transform="translate(171.093 78.19)"><path d="M718.178,128.332a2.922,2.922,0,0,1-2.872,2.968H697.522a2.923,2.923,0,0,1-2.873-2.968V115.283a2.9,2.9,0,0,1,2.873-2.949h17.784a2.9,2.9,0,0,1,2.872,2.949Z" transform="translate(-694.649 -92.397)" fill="#335ba9"/><path d="M718.178,117.231A11.765,11.765,0,1,1,706.414,105.5,11.721,11.721,0,0,1,718.178,117.231Z" transform="translate(-694.649 -94.346)" fill="#335ba9"/><path d="M709.623,101.582a4.762,4.762,0,1,1-4.762-4.763A4.761,4.761,0,0,1,709.623,101.582Z" transform="translate(-693.096 -96.819)" fill="#335ba9"/><g transform="translate(5.033 34.808)"><path d="M701.523,123.907a2.9,2.9,0,0,0-2.957,2.844v21.9a2.959,2.959,0,0,0,5.914,0v-21.9A2.9,2.9,0,0,0,701.523,123.907Z" transform="translate(-698.566 -123.907)" fill="#335ba9"/><path d="M707.4,123.907a2.9,2.9,0,0,0-2.957,2.844v21.9a2.959,2.959,0,0,0,5.914,0v-21.9A2.9,2.9,0,0,0,707.4,123.907Z" transform="translate(-696.892 -123.907)" fill="#335ba9"/></g><rect width="7.808" height="3.747" transform="translate(7.861 37.821)" fill="#335ba9"/></g><path d="M747.124,108.009v-5.857a7.342,7.342,0,0,0-14.685,0V108a14.289,14.289,0,0,0-7,12.277v13.049a5.489,5.489,0,0,0,5.033,5.5v18.118A5.476,5.476,0,0,0,736,162.35a5.562,5.562,0,0,0,3.775-1.48,5.559,5.559,0,0,0,3.774,1.48,5.476,5.476,0,0,0,5.527-5.412V138.819a5.488,5.488,0,0,0,5.033-5.5V120.275A14.3,14.3,0,0,0,747.124,108.009Z" transform="translate(-514.782 -19.199)" fill="#fff"/><g transform="translate(213.224 78.19)"><path d="M750.965,128.332a2.922,2.922,0,0,1-2.872,2.968H730.309a2.923,2.923,0,0,1-2.873-2.968V115.283a2.9,2.9,0,0,1,2.873-2.949h17.784a2.9,2.9,0,0,1,2.872,2.949Z" transform="translate(-727.436 -92.397)" fill="#335ba9"/><path d="M750.965,117.231A11.765,11.765,0,1,1,739.2,105.5,11.721,11.721,0,0,1,750.965,117.231Z" transform="translate(-727.436 -94.346)" fill="#335ba9"/><path d="M742.41,101.582a4.762,4.762,0,1,1-4.762-4.763A4.761,4.761,0,0,1,742.41,101.582Z" transform="translate(-725.883 -96.819)" fill="#335ba9"/><g transform="translate(5.033 34.808)"><path d="M734.31,123.907a2.9,2.9,0,0,0-2.957,2.844v21.9a2.959,2.959,0,0,0,5.914,0v-21.9A2.9,2.9,0,0,0,734.31,123.907Z" transform="translate(-731.353 -123.907)" fill="#335ba9"/><path d="M740.185,123.907a2.9,2.9,0,0,0-2.957,2.844v21.9a2.959,2.959,0,0,0,5.913,0v-21.9A2.9,2.9,0,0,0,740.185,123.907Z" transform="translate(-729.679 -123.907)" fill="#335ba9"/></g><rect width="7.808" height="3.747" transform="translate(7.861 37.821)" fill="#335ba9"/></g><path d="M681.529,108v-5.845a7.333,7.333,0,1,0-14.666,0V108a14.291,14.291,0,0,0-7,12.277v13.049a5.489,5.489,0,0,0,5.033,5.5v18.118a5.476,5.476,0,0,0,5.527,5.412,5.562,5.562,0,0,0,3.775-1.48,5.556,5.556,0,0,0,3.774,1.48,5.476,5.476,0,0,0,5.527-5.412V138.819a5.489,5.489,0,0,0,5.033-5.5V120.275A14.291,14.291,0,0,0,681.529,108Z" transform="translate(-533.47 -19.199)" fill="#fff"/><g transform="translate(128.962 78.19)"><path d="M685.391,128.332a2.922,2.922,0,0,1-2.873,2.968H664.735a2.922,2.922,0,0,1-2.873-2.968V115.283a2.9,2.9,0,0,1,2.873-2.949h17.783a2.9,2.9,0,0,1,2.873,2.949Z" transform="translate(-661.862 -92.397)" fill="#335ba9"/><path d="M685.391,117.231A11.765,11.765,0,1,1,673.627,105.5,11.721,11.721,0,0,1,685.391,117.231Z" transform="translate(-661.862 -94.346)" fill="#335ba9"/><path d="M676.837,101.582a4.763,4.763,0,1,1-4.762-4.763A4.761,4.761,0,0,1,676.837,101.582Z" transform="translate(-660.309 -96.819)" fill="#335ba9"/><g transform="translate(5.033 34.808)"><path d="M668.736,123.907a2.9,2.9,0,0,0-2.957,2.844v21.9a2.959,2.959,0,0,0,5.914,0v-21.9A2.9,2.9,0,0,0,668.736,123.907Z" transform="translate(-665.779 -123.907)" fill="#335ba9"/><path d="M674.611,123.907a2.9,2.9,0,0,0-2.957,2.844v21.9a2.959,2.959,0,0,0,5.914,0v-21.9A2.9,2.9,0,0,0,674.611,123.907Z" transform="translate(-664.105 -123.907)" fill="#335ba9"/></g><rect width="7.808" height="3.747" transform="translate(7.861 37.821)" fill="#335ba9"/></g><g transform="translate(84.262 75.62)"><path d="M648.741,108v-5.845a7.332,7.332,0,1,0-14.664,0V108a14.291,14.291,0,0,0-7,12.277v13.049a5.489,5.489,0,0,0,5.033,5.5v18.118a5.476,5.476,0,0,0,5.527,5.412,5.556,5.556,0,0,0,3.774-1.48,5.562,5.562,0,0,0,3.775,1.48,5.476,5.476,0,0,0,5.527-5.412V138.819a5.489,5.489,0,0,0,5.033-5.5V120.275A14.289,14.289,0,0,0,648.741,108Z" transform="translate(-627.075 -94.819)" fill="#fff"/><rect width="12.948" height="8.887" transform="translate(7.861 37.821)" fill="#fff"/></g><g transform="translate(86.832 78.19)"><path d="M652.6,128.332a2.922,2.922,0,0,1-2.873,2.968H631.947a2.922,2.922,0,0,1-2.872-2.968V115.283a2.9,2.9,0,0,1,2.872-2.949h17.784a2.9,2.9,0,0,1,2.873,2.949Z" transform="translate(-629.075 -92.397)" fill="#335ba9"/><path d="M652.6,117.231A11.765,11.765,0,1,1,640.839,105.5,11.722,11.722,0,0,1,652.6,117.231Z" transform="translate(-629.075 -94.346)" fill="#335ba9"/><path d="M644.048,101.582a4.762,4.762,0,1,1-4.762-4.763A4.761,4.761,0,0,1,644.048,101.582Z" transform="translate(-627.522 -96.819)" fill="#335ba9"/><g transform="translate(5.033 34.808)"><path d="M635.949,123.907a2.9,2.9,0,0,0-2.957,2.844v21.9a2.959,2.959,0,0,0,5.913,0v-21.9A2.9,2.9,0,0,0,635.949,123.907Z" transform="translate(-632.992 -123.907)" fill="#335ba9"/><path d="M641.824,123.907a2.9,2.9,0,0,0-2.957,2.844v21.9a2.959,2.959,0,0,0,5.914,0v-21.9A2.9,2.9,0,0,0,641.824,123.907Z" transform="translate(-631.318 -123.907)" fill="#335ba9"/></g><rect width="7.808" height="3.747" transform="translate(7.861 37.821)" fill="#335ba9"/></g><path d="M583.189,88.453V82.594a7.343,7.343,0,0,0-14.686,0V88.44a14.289,14.289,0,0,0-7,12.278v13.048a5.487,5.487,0,0,0,5.033,5.5V137.38a5.477,5.477,0,0,0,5.527,5.414,5.558,5.558,0,0,0,3.774-1.48,5.561,5.561,0,0,0,3.775,1.48,5.476,5.476,0,0,0,5.525-5.414V119.261a5.487,5.487,0,0,0,5.033-5.5V100.718A14.3,14.3,0,0,0,583.189,88.453Z" transform="translate(-561.501 -24.773)" fill="#fff"/><g transform="translate(2.57 53.058)"><path d="M587.029,108.774a2.923,2.923,0,0,1-2.872,2.97H566.373a2.923,2.923,0,0,1-2.872-2.97V95.726a2.9,2.9,0,0,1,2.872-2.949h17.784a2.9,2.9,0,0,1,2.872,2.949Z" transform="translate(-563.501 -72.839)" fill="#335ba9"/><path d="M587.029,97.674a11.764,11.764,0,1,1-11.764-11.733A11.72,11.72,0,0,1,587.029,97.674Z" transform="translate(-563.501 -74.787)" fill="#335ba9"/><path d="M578.474,82.024a4.762,4.762,0,1,1-4.762-4.763A4.761,4.761,0,0,1,578.474,82.024Z" transform="translate(-561.948 -77.261)" fill="#335ba9"/><g transform="translate(5.033 34.808)"><path d="M570.375,104.349a2.9,2.9,0,0,0-2.957,2.844v21.9a2.958,2.958,0,0,0,5.912,0v-21.9A2.9,2.9,0,0,0,570.375,104.349Z" transform="translate(-567.418 -104.349)" fill="#335ba9"/><path d="M576.25,104.349a2.9,2.9,0,0,0-2.957,2.844v21.9a2.958,2.958,0,0,0,5.912,0v-21.9A2.9,2.9,0,0,0,576.25,104.349Z" transform="translate(-565.744 -104.349)" fill="#335ba9"/></g><rect width="7.808" height="3.747" transform="translate(7.86 37.822)" fill="#335ba9"/></g><g transform="translate(21.065 63.115)"><path d="M599.582,98.279V92.42a7.342,7.342,0,0,0-14.685,0v5.844a14.294,14.294,0,0,0-7,12.279V123.59a5.491,5.491,0,0,0,5.033,5.5v18.117a5.478,5.478,0,0,0,5.527,5.414,5.561,5.561,0,0,0,3.775-1.48,5.558,5.558,0,0,0,3.774,1.48,5.478,5.478,0,0,0,5.527-5.414V129.089a5.49,5.49,0,0,0,5.033-5.5V110.544A14.293,14.293,0,0,0,599.582,98.279Z" transform="translate(-577.894 -85.087)" fill="#fff"/><g transform="translate(2.57 2.57)"><path d="M603.423,118.6a2.923,2.923,0,0,1-2.872,2.971H582.767a2.923,2.923,0,0,1-2.873-2.971V105.552a2.9,2.9,0,0,1,2.873-2.949h17.784a2.9,2.9,0,0,1,2.872,2.949Z" transform="translate(-579.894 -82.665)" fill="#335ba9"/><path d="M603.423,107.5a11.765,11.765,0,1,1-11.764-11.734A11.723,11.723,0,0,1,603.423,107.5Z" transform="translate(-579.894 -84.614)" fill="#335ba9"/><path d="M594.868,91.85a4.762,4.762,0,1,1-4.762-4.763A4.761,4.761,0,0,1,594.868,91.85Z" transform="translate(-578.341 -87.087)" fill="#335ba9"/><g transform="translate(5.033 34.808)"><path d="M586.768,114.175a2.9,2.9,0,0,0-2.957,2.844v21.9a2.959,2.959,0,0,0,5.914,0v-21.9A2.9,2.9,0,0,0,586.768,114.175Z" transform="translate(-583.811 -114.175)" fill="#335ba9"/><path d="M592.643,114.175a2.9,2.9,0,0,0-2.957,2.844v21.9a2.959,2.959,0,0,0,5.914,0v-21.9A2.9,2.9,0,0,0,592.643,114.175Z" transform="translate(-582.137 -114.175)" fill="#335ba9"/></g><rect width="7.808" height="3.748" transform="translate(7.861 37.821)" fill="#335ba9"/></g></g><path d="M615.954,108v-5.845a7.332,7.332,0,1,0-14.664,0V108a14.291,14.291,0,0,0-7,12.277v13.049a5.488,5.488,0,0,0,5.033,5.5v18.118a5.476,5.476,0,0,0,5.527,5.412,5.556,5.556,0,0,0,3.774-1.48,5.562,5.562,0,0,0,3.775,1.48,5.476,5.476,0,0,0,5.527-5.412V138.819a5.489,5.489,0,0,0,5.033-5.5V120.275A14.289,14.289,0,0,0,615.954,108Z" transform="translate(-552.157 -19.199)" fill="#fff"/><g transform="translate(44.701 78.19)"><path d="M619.817,128.332a2.922,2.922,0,0,1-2.873,2.968H599.16a2.922,2.922,0,0,1-2.872-2.968V115.283a2.9,2.9,0,0,1,2.872-2.949h17.784a2.9,2.9,0,0,1,2.873,2.949Z" transform="translate(-596.288 -92.397)" fill="#335ba9"/><path d="M619.817,117.231A11.765,11.765,0,1,1,608.052,105.5,11.722,11.722,0,0,1,619.817,117.231Z" transform="translate(-596.288 -94.346)" fill="#335ba9"/><path d="M611.261,101.582a4.762,4.762,0,1,1-4.762-4.763A4.761,4.761,0,0,1,611.261,101.582Z" transform="translate(-594.735 -96.819)" fill="#335ba9"/><g transform="translate(5.033 34.808)"><path d="M603.162,123.907a2.9,2.9,0,0,0-2.957,2.844v21.9a2.959,2.959,0,0,0,5.914,0v-21.9A2.9,2.9,0,0,0,603.162,123.907Z" transform="translate(-600.205 -123.907)" fill="#335ba9"/><path d="M609.037,123.907a2.9,2.9,0,0,0-2.957,2.844v21.9a2.959,2.959,0,0,0,5.913,0v-21.9A2.9,2.9,0,0,0,609.037,123.907Z" transform="translate(-598.531 -123.907)" fill="#335ba9"/></g><rect width="7.808" height="3.747" transform="translate(7.861 37.821)" fill="#335ba9"/></g><g transform="translate(63.197 88.213)"><path d="M632.348,117.8v-5.843a7.332,7.332,0,1,0-14.664,0V117.8a14.294,14.294,0,0,0-7,12.279v13.048a5.49,5.49,0,0,0,5.033,5.5v18.117a5.476,5.476,0,0,0,5.525,5.414,5.562,5.562,0,0,0,3.775-1.48,5.558,5.558,0,0,0,3.774,1.48,5.477,5.477,0,0,0,5.527-5.414V148.619a5.49,5.49,0,0,0,5.033-5.5V130.075A14.294,14.294,0,0,0,632.348,117.8Z" transform="translate(-610.682 -104.619)" fill="#fff"/><rect width="12.948" height="8.888" transform="translate(7.86 37.82)" fill="#fff"/></g><g transform="translate(65.767 90.783)"><path d="M636.21,138.131a2.923,2.923,0,0,1-2.872,2.97H615.554a2.923,2.923,0,0,1-2.872-2.97V125.083a2.9,2.9,0,0,1,2.872-2.949h17.784a2.9,2.9,0,0,1,2.872,2.949Z" transform="translate(-612.682 -102.197)" fill="#335ba9"/><path d="M636.21,127.031A11.764,11.764,0,1,1,624.446,115.3,11.722,11.722,0,0,1,636.21,127.031Z" transform="translate(-612.682 -104.146)" fill="#335ba9"/><path d="M627.655,111.382a4.762,4.762,0,1,1-4.762-4.763A4.761,4.761,0,0,1,627.655,111.382Z" transform="translate(-611.129 -106.619)" fill="#335ba9"/><g transform="translate(5.033 34.808)"><path d="M619.554,133.707a2.9,2.9,0,0,0-2.955,2.842v21.9a2.958,2.958,0,0,0,5.912,0v-21.9A2.9,2.9,0,0,0,619.554,133.707Z" transform="translate(-616.599 -133.707)" fill="#335ba9"/><path d="M625.429,133.707a2.9,2.9,0,0,0-2.955,2.842v21.9a2.958,2.958,0,0,0,5.912,0v-21.9A2.9,2.9,0,0,0,625.429,133.707Z" transform="translate(-614.925 -133.707)" fill="#335ba9"/></g><rect width="7.808" height="3.748" transform="translate(7.86 37.82)" fill="#335ba9"/></g></g></svg>